#N canvas 692 370 1359 938 12;
#X obj 96 152 tgl 15 0 empty empty empty 17 7 0 10 -262144 -1 -1 1
1;
#X msg 9 111 \; pd dsp \$1;
#X obj 8 94 tgl 15 0 empty empty empty 17 7 0 10 -258113 -1 -1 1 1
;
#X obj 55 212 s iter;
#X obj 21 272 cnv 15 500 400 empty empty empty 20 12 0 14 -204800 -66577
0;
#X obj 218 629 cnv 15 70 30 empty empty empty 20 12 0 14 -204786 -66577
0;
#X msg 100 588 pythag;
#X msg 57 587 bare;
#X msg 158 588 pent;
#X msg 203 588 slendro;
#X msg 266 588 harrison;
#X msg 336 587 justdiatonic;
#X msg 436 586 major;
#X obj 222 634 s scale1;
#X obj 20 688 cnv 15 500 400 empty empty empty 20 12 0 14 -204800 -66577
0;
#X obj 229 1037 cnv 15 70 30 empty empty empty 20 12 0 14 -204786 -66577
0;
#X msg 133 991 pythag;
#X msg 90 990 bare;
#X msg 191 991 pent;
#X msg 236 991 slendro;
#X msg 299 991 harrison;
#X msg 369 990 justdiatonic;
#X msg 469 989 major;
#X obj 168 822 cnv 15 70 30 empty empty empty 20 12 0 14 -204786 -66577
0;
#X obj 118 772 r bfreq;
#N canvas 0 23 530 548 voice 0;
#X obj 63 58 inlet;
#X obj 117 55 inlet;
#X obj 207 44 inlet;
#N canvas 417 23 721 485 tuningsys 0;
#X obj 270 34 inlet;
#X obj 48 46 inlet;
#X obj 17 221 f;
#X msg 247 99 0;
#X msg 290 97 1;
#X msg 336 100 2;
#X msg 380 101 3;
#X obj 276 145 int;
#N canvas 366 38 719 482 pent 0;
#X obj 79 9 inlet;
#X obj 100 283 outlet;
#X obj 71 65 t f b;
#X obj 34 149 f;
#X msg 126 148 0.8;
#X msg 166 149 0.9;
#X msg 201 151 1;
#X obj 99 221 *;
#X msg 236 150 1.2;
#X msg 272 151 1.3333;
#X msg 342 153 1.6;
#X obj 151 110 sel 0 1 2 3 4 5;
#X obj 152 86 random 6;
#X connect 0 0 2 0;
#X connect 2 0 3 0;
#X connect 2 1 12 0;
#X connect 3 0 7 0;
#X connect 4 0 7 1;
#X connect 5 0 7 1;
#X connect 6 0 7 1;
#X connect 7 0 1 0;
#X connect 8 0 7 1;
#X connect 9 0 7 1;
#X connect 10 0 7 1;
#X connect 11 0 4 0;
#X connect 11 1 5 0;
#X connect 11 2 6 0;
#X connect 11 3 8 0;
#X connect 11 4 9 0;
#X connect 11 5 10 0;
#X connect 12 0 11 0;
#X restore 154 262 pd pent;
#N canvas 734 25 450 300 pythag 0;
#X obj 31 68 t f b;
#X obj 37 12 inlet;
#X msg 69 146 1;
#X msg 105 148 1.18519;
#X msg 174 152 1.33333;
#X msg 241 150 1.5;
#X msg 270 149 1.77778;
#X msg 339 149 2;
#X obj 44 217 *;
#X obj 31 92 f;
#X obj 44 241 outlet;
#X obj 152 86 random 6;
#X obj 151 110 sel 0 1 2 3 4 5;
#X connect 0 0 9 0;
#X connect 0 1 11 0;
#X connect 1 0 0 0;
#X connect 2 0 8 1;
#X connect 3 0 8 1;
#X connect 4 0 8 1;
#X connect 5 0 8 1;
#X connect 6 0 8 1;
#X connect 7 0 8 1;
#X connect 8 0 10 0;
#X connect 9 0 8 0;
#X connect 11 0 12 0;
#X connect 12 0 2 0;
#X connect 12 1 3 0;
#X connect 12 2 4 0;
#X connect 12 3 5 0;
#X connect 12 4 6 0;
#X connect 12 5 7 0;
#X restore 78 263 pd pythag;
#N canvas 0 23 450 300 slendro 0;
#X obj 31 68 t f b;
#X obj 37 12 inlet;
#X msg 69 146 1;
#X msg 236 149 1.5;
#X msg 327 151 2;
#X obj 44 189 *;
#X obj 31 92 f;
#X obj 43 262 outlet;
#X obj 152 86 random 6;
#X obj 151 110 sel 0 1 2 3 4 5;
#X msg 105 148 1.1875;
#X msg 168 147 1.3125;
#X msg 279 149 1.75;
#X obj 160 194 random 2;
#X obj 160 218 sel 0;
#X obj 44 213 + 0;
#X msg 197 244 0;
#X msg 139 245 0.5;
#X connect 0 0 6 0;
#X connect 0 1 8 0;
#X connect 0 1 13 0;
#X connect 1 0 0 0;
#X connect 2 0 5 1;
#X connect 3 0 5 1;
#X connect 4 0 5 1;
#X connect 5 0 15 0;
#X connect 6 0 5 0;
#X connect 8 0 9 0;
#X connect 9 0 2 0;
#X connect 9 1 10 0;
#X connect 9 2 11 0;
#X connect 9 3 3 0;
#X connect 9 4 12 0;
#X connect 9 5 4 0;
#X connect 10 0 5 1;
#X connect 11 0 5 1;
#X connect 12 0 5 1;
#X connect 13 0 14 0;
#X connect 14 0 17 0;
#X connect 14 1 16 0;
#X connect 15 0 7 0;
#X connect 16 0 15 1;
#X connect 17 0 15 1;
#X restore 219 265 pd slendro;
#N canvas 0 23 450 300 harrison 0;
#X obj 31 68 t f b;
#X obj 37 12 inlet;
#X msg 69 146 1;
#X msg 189 150 1.33333;
#X msg 254 151 1.5;
#X msg 373 153 2;
#X obj 44 217 *;
#X obj 31 92 f;
#X obj 44 241 outlet;
#X obj 152 86 random 6;
#X obj 151 110 sel 0 1 2 3 4 5;
#X msg 105 148 1.14286;
#X msg 289 151 1.71429;
#X connect 0 0 7 0;
#X connect 0 1 9 0;
#X connect 1 0 0 0;
#X connect 2 0 6 1;
#X connect 3 0 6 1;
#X connect 4 0 6 1;
#X connect 5 0 6 1;
#X connect 6 0 8 0;
#X connect 7 0 6 0;
#X connect 9 0 10 0;
#X connect 10 0 2 0;
#X connect 10 1 11 0;
#X connect 10 2 3 0;
#X connect 10 3 4 0;
#X connect 10 4 12 0;
#X connect 10 5 5 0;
#X connect 11 0 6 1;
#X connect 12 0 6 1;
#X restore 315 268 pd harrison;
#X msg 435 102 4;
#X obj 86 223 f;
#X obj 140 227 f;
#X obj 178 226 f;
#X obj 220 227 f;
#N canvas 0 23 619 340 justdiatonic 0;
#X obj 31 68 t f b;
#X obj 37 12 inlet;
#X msg 69 146 1;
#X obj 44 217 *;
#X obj 31 92 f;
#X obj 44 241 outlet;
#X msg 105 147 1.125;
#X msg 159 148 1.2;
#X msg 197 148 1.33333;
#X msg 281 153 1.5;
#X obj 151 110 sel 0 1 2 3 4 5 6 7;
#X msg 321 152 1.66667;
#X msg 412 152 1.875;
#X msg 463 151 2;
#X obj 152 85 random 8;
#X connect 0 0 4 0;
#X connect 0 1 14 0;
#X connect 1 0 0 0;
#X connect 2 0 3 1;
#X connect 3 0 5 0;
#X connect 4 0 3 0;
#X connect 6 0 3 1;
#X connect 7 0 3 1;
#X connect 8 0 3 1;
#X connect 9 0 3 1;
#X connect 10 0 2 0;
#X connect 10 1 6 0;
#X connect 10 2 7 0;
#X connect 10 3 8 0;
#X connect 10 4 9 0;
#X connect 10 5 11 0;
#X connect 10 6 12 0;
#X connect 10 7 13 0;
#X connect 11 0 3 1;
#X connect 14 0 10 0;
#X restore 435 268 pd justdiatonic;
#X obj 261 227 f;
#X msg 501 100 5;
#N canvas 248 23 719 482 major 0;
#X obj 79 9 inlet;
#X obj 71 65 t f b;
#X msg 126 148 0;
#X obj 152 86 random 8;
#X obj 151 110 sel 0 1 2 3 4 5 6 7;
#X obj 99 221 +;
#X obj 99 245 mtof;
#X obj 100 283 outlet;
#X obj 34 149 f;
#X msg 388 149 12;
#X obj 79 33 ftom;
#X msg 166 149 2;
#X msg 201 151 4;
#X msg 236 150 5;
#X msg 272 151 7;
#X msg 313 150 9;
#X msg 350 149 11;
#X connect 0 0 10 0;
#X connect 1 0 8 0;
#X connect 1 1 3 0;
#X connect 2 0 5 1;
#X connect 3 0 4 0;
#X connect 4 0 2 0;
#X connect 4 1 11 0;
#X connect 4 2 12 0;
#X connect 4 3 13 0;
#X connect 4 4 14 0;
#X connect 4 5 15 0;
#X connect 4 6 16 0;
#X connect 4 7 9 0;
#X connect 5 0 6 0;
#X connect 6 0 7 0;
#X connect 8 0 5 0;
#X connect 9 0 5 1;
#X connect 10 0 1 0;
#X connect 11 0 5 1;
#X connect 12 0 5 1;
#X connect 13 0 5 1;
#X connect 14 0 5 1;
#X connect 15 0 5 1;
#X connect 16 0 5 1;
#X restore 557 269 pd major;
#X obj 313 228 f;
#X msg 546 109 6;
#X obj 598 110 print Not Found;
#X obj 131 352 outlet;
#X obj 111 21 inlet;
#X obj 326 31 print oscvoice #2;
#X obj 267 60 route bare pythag pent slendro harrison justdiatonic
major 9TET, f 63;
#X msg 589 145 7;
#X obj 289 184 sel 0 1 2 3 4 5 6 7;
#X obj 355 225 f;
#N canvas 0 23 450 300 9tet 0;
#X obj 79 9 inlet;
#X obj 100 283 outlet;
#X obj 71 65 t f b;
#X obj 34 149 f;
#X obj 99 221 *;
#X obj 152 86 random 9;
#X msg 82 128 1.08;
#X msg 97 155 1.16667;
#X msg 129 180 1.26;
#X msg 164 198 1.36111;
#X msg 219 218 1.46939;
#X msg 288 244 1.5873;
#X msg 317 219 1.71429;
#X msg 344 194 1.85185;
#X msg 383 170 2;
#X obj 151 110 sel 0 1 2 3 4 5 6 7 8;
#X connect 0 0 2 0;
#X connect 2 0 3 0;
#X connect 2 1 5 0;
#X connect 3 0 4 0;
#X connect 4 0 1 0;
#X connect 5 0 15 0;
#X connect 6 0 4 1;
#X connect 7 0 4 1;
#X connect 8 0 4 1;
#X connect 9 0 4 1;
#X connect 10 0 4 1;
#X connect 11 0 4 1;
#X connect 12 0 4 1;
#X connect 14 0 4 1;
#X connect 15 0 6 0;
#X connect 15 1 7 0;
#X connect 15 2 8 0;
#X connect 15 3 9 0;
#X connect 15 4 10 0;
#X connect 15 5 11 0;
#X connect 15 6 12 0;
#X connect 15 7 13 0;
#X connect 15 8 14 0;
#X restore 627 268 pd 9tet;
#X connect 0 0 26 0;
#X connect 0 0 27 0;
#X connect 1 0 2 1;
#X connect 1 0 13 1;
#X connect 1 0 14 1;
#X connect 1 0 15 1;
#X connect 1 0 16 1;
#X connect 1 0 18 1;
#X connect 1 0 21 1;
#X connect 1 0 30 1;
#X connect 2 0 24 0;
#X connect 3 0 7 1;
#X connect 4 0 7 1;
#X connect 5 0 7 1;
#X connect 6 0 7 1;
#X connect 7 0 29 0;
#X connect 8 0 24 0;
#X connect 9 0 24 0;
#X connect 10 0 24 0;
#X connect 11 0 24 0;
#X connect 12 0 7 1;
#X connect 13 0 9 0;
#X connect 14 0 8 0;
#X connect 15 0 10 0;
#X connect 16 0 11 0;
#X connect 17 0 24 0;
#X connect 18 0 17 0;
#X connect 19 0 7 1;
#X connect 20 0 24 0;
#X connect 21 0 20 0;
#X connect 22 0 7 1;
#X connect 25 0 7 0;
#X connect 27 0 3 0;
#X connect 27 1 4 0;
#X connect 27 2 5 0;
#X connect 27 3 6 0;
#X connect 27 4 12 0;
#X connect 27 5 19 0;
#X connect 27 6 22 0;
#X connect 27 7 28 0;
#X connect 27 8 23 0;
#X connect 28 0 7 1;
#X connect 29 0 2 0;
#X connect 29 1 13 0;
#X connect 29 2 14 0;
#X connect 29 3 15 0;
#X connect 29 4 16 0;
#X connect 29 5 18 0;
#X connect 29 6 21 0;
#X connect 29 7 30 0;
#X connect 30 0 31 0;
#X connect 31 0 24 0;
#X restore 76 108 pd tuningsys;
#X obj 81 361 outlet~;
#X obj 290 212 outlet;
#N canvas 93 25 1131 708 keys 0;
#X obj 466 599 outlet~;
#X obj 96 50 inlet;
#X obj 630 98 inlet;
#X obj 93 93 t f b;
#X obj 302 39 int;
#X obj 333 39 + 1;
#X obj 66 293 syn.ctl;
#X obj 65 179 f, f 2;
#X obj 274 301 syn.ctl;
#X obj 263 188 f, f 2;
#X obj 502 229 unpack f f f;
#X obj 456 310 syn.ctl;
#X obj 431 201 f, f 2;
#X obj 636 328 syn.ctl;
#X obj 648 203 f, f 2;
#X obj 845 320 syn.ctl;
#X obj 832 217 f;
#X obj 301 65 mod 10;
#X obj 77 343 f, f 2;
#X obj 275 352 f, f 2;
#X obj 443 365 f, f 2;
#X obj 660 367 f, f 2;
#X obj 839 395 f;
#X obj 279 115 sel 0 1 2 3 4 5 6 7 8 9;
#X obj 44 450 syn.ctl;
#X obj 252 458 syn.ctl;
#X obj 480 386 unpack f f f;
#X obj 434 467 syn.ctl;
#X obj 614 485 syn.ctl;
#X obj 823 477 syn.ctl;
#X connect 1 0 3 0;
#X connect 2 0 10 0;
#X connect 2 0 26 0;
#X connect 3 0 7 1;
#X connect 3 0 9 1;
#X connect 3 0 12 1;
#X connect 3 0 14 1;
#X connect 3 0 16 1;
#X connect 3 0 18 1;
#X connect 3 0 19 1;
#X connect 3 0 20 1;
#X connect 3 0 21 1;
#X connect 3 0 22 1;
#X connect 3 1 4 0;
#X connect 4 0 5 0;
#X connect 4 0 17 0;
#X connect 6 0 0 0;
#X connect 7 0 6 0;
#X connect 8 0 0 0;
#X connect 9 0 8 0;
#X connect 10 0 6 1;
#X connect 10 0 8 1;
#X connect 10 0 11 1;
#X connect 10 0 13 1;
#X connect 10 0 15 1;
#X connect 10 1 6 2;
#X connect 10 1 8 2;
#X connect 10 1 11 2;
#X connect 10 1 13 2;
#X connect 10 1 15 2;
#X connect 10 2 6 3;
#X connect 10 2 8 3;
#X connect 10 2 11 3;
#X connect 10 2 13 3;
#X connect 10 2 15 3;
#X connect 11 0 0 0;
#X connect 12 0 11 0;
#X connect 13 0 0 0;
#X connect 14 0 13 0;
#X connect 15 0 0 0;
#X connect 16 0 15 0;
#X connect 17 0 23 0;
#X connect 18 0 24 0;
#X connect 19 0 25 0;
#X connect 20 0 27 0;
#X connect 21 0 28 0;
#X connect 22 0 29 0;
#X connect 23 0 7 0;
#X connect 23 1 9 0;
#X connect 23 2 12 0;
#X connect 23 3 14 0;
#X connect 23 4 16 0;
#X connect 23 5 18 0;
#X connect 23 6 19 0;
#X connect 23 7 20 0;
#X connect 23 8 21 0;
#X connect 23 9 22 0;
#X connect 24 0 0 0;
#X connect 25 0 0 0;
#X connect 26 0 24 1;
#X connect 26 0 25 1;
#X connect 26 0 27 1;
#X connect 26 0 28 1;
#X connect 26 0 29 1;
#X connect 26 1 24 2;
#X connect 26 1 25 2;
#X connect 26 1 27 2;
#X connect 26 1 28 2;
#X connect 26 1 29 2;
#X connect 26 2 24 3;
#X connect 26 2 25 3;
#X connect 26 2 27 3;
#X connect 26 2 28 3;
#X connect 26 2 29 3;
#X connect 27 0 0 0;
#X connect 28 0 0 0;
#X connect 29 0 0 0;
#X restore 87 197 pd keys;
#N canvas 11 472 593 303 randasdr 0;
#X obj 61 27 inlet;
#X obj 117 167 pack 40 70 160;
#X obj 117 191 outlet;
#X obj 29 90 random 50;
#X obj 126 86 random 200;
#X obj 241 87 random 200;
#X obj 126 110 + 100;
#X obj 29 114 + 50;
#X obj 241 111 + 100;
#X connect 0 0 3 0;
#X connect 0 0 4 0;
#X connect 0 0 5 0;
#X connect 1 0 2 0;
#X connect 3 0 7 0;
#X connect 4 0 6 0;
#X connect 5 0 8 0;
#X connect 6 0 1 1;
#X connect 7 0 1 0;
#X connect 8 0 1 2;
#X restore 211 129 pd randasdr;
#N canvas 388 13 450 300 vol 0;
#X obj 158 130 line~;
#X obj 159 91 inlet;
#X obj 140 184 *~;
#X obj 82 130 inlet~;
#X obj 140 210 outlet~;
#X connect 0 0 2 1;
#X connect 1 0 0 0;
#X connect 2 0 4 0;
#X connect 3 0 2 0;
#X restore 83 325 pd vol;
#X obj 123 235 r initVol;
#X obj 119 268 del 8000;
#X msg 123 296 1 3000;
#X connect 0 0 3 0;
#X connect 1 0 3 1;
#X connect 1 0 7 0;
#X connect 2 0 3 2;
#X connect 3 0 6 0;
#X connect 3 0 5 0;
#X connect 6 0 8 0;
#X connect 7 0 6 1;
#X connect 8 0 4 0;
#X connect 9 0 10 0;
#X connect 10 0 11 0;
#X connect 11 0 8 1;
#X restore 119 852 pd voice;
#X obj 172 826 r scale2;
#X obj 542 272 cnv 15 500 400 empty empty empty 20 12 0 14 -204800
-66577 0;
#X obj 737 605 cnv 15 70 30 empty empty empty 20 12 0 14 -204786 -66577
0;
#X msg 619 564 pythag;
#X msg 576 563 bare;
#X msg 677 564 pent;
#X msg 722 564 slendro;
#X msg 785 564 harrison;
#X msg 855 563 justdiatonic;
#X msg 955 562 major;
#X obj 700 385 cnv 15 70 30 empty empty empty 20 12 0 14 -204786 -66577
0;
#N canvas 798 7 574 496 voice 0;
#X obj 63 58 inlet;
#X obj 117 55 inlet;
#X obj 207 44 inlet;
#N canvas 581 91 1036 644 keys 0;
#X obj 466 599 outlet~;
#X obj 96 50 inlet;
#X obj 630 98 inlet;
#X obj 93 93 t f b;
#X obj 302 39 int;
#X obj 333 39 + 1;
#X obj 66 293 syn.ctl;
#X obj 65 179 f, f 2;
#X obj 274 301 syn.ctl;
#X obj 263 188 f, f 2;
#X obj 502 229 unpack f f f;
#X obj 456 310 syn.ctl;
#X obj 431 201 f, f 2;
#X obj 636 328 syn.ctl;
#X obj 648 203 f, f 2;
#X obj 845 320 syn.ctl;
#X obj 832 217 f;
#X obj 301 65 mod 10;
#X obj 77 343 f, f 2;
#X obj 275 352 f, f 2;
#X obj 443 365 f, f 2;
#X obj 660 367 f, f 2;
#X obj 839 395 f;
#X obj 279 115 sel 0 1 2 3 4 5 6 7 8 9;
#X obj 44 450 syn.ctl;
#X obj 252 458 syn.ctl;
#X obj 480 386 unpack f f f;
#X obj 434 467 syn.ctl;
#X obj 614 485 syn.ctl;
#X obj 823 477 syn.ctl;
#X connect 1 0 3 0;
#X connect 2 0 10 0;
#X connect 2 0 26 0;
#X connect 3 0 7 1;
#X connect 3 0 9 1;
#X connect 3 0 12 1;
#X connect 3 0 14 1;
#X connect 3 0 16 1;
#X connect 3 0 18 1;
#X connect 3 0 19 1;
#X connect 3 0 20 1;
#X connect 3 0 21 1;
#X connect 3 0 22 1;
#X connect 3 1 4 0;
#X connect 4 0 5 0;
#X connect 4 0 17 0;
#X connect 6 0 0 0;
#X connect 7 0 6 0;
#X connect 8 0 0 0;
#X connect 9 0 8 0;
#X connect 10 0 6 1;
#X connect 10 0 8 1;
#X connect 10 0 11 1;
#X connect 10 0 13 1;
#X connect 10 0 15 1;
#X connect 10 1 6 2;
#X connect 10 1 8 2;
#X connect 10 1 11 2;
#X connect 10 1 13 2;
#X connect 10 1 15 2;
#X connect 10 2 6 3;
#X connect 10 2 8 3;
#X connect 10 2 11 3;
#X connect 10 2 13 3;
#X connect 10 2 15 3;
#X connect 11 0 0 0;
#X connect 12 0 11 0;
#X connect 13 0 0 0;
#X connect 14 0 13 0;
#X connect 15 0 0 0;
#X connect 16 0 15 0;
#X connect 17 0 23 0;
#X connect 18 0 24 0;
#X connect 19 0 25 0;
#X connect 20 0 27 0;
#X connect 21 0 28 0;
#X connect 22 0 29 0;
#X connect 23 0 7 0;
#X connect 23 1 9 0;
#X connect 23 2 12 0;
#X connect 23 3 14 0;
#X connect 23 4 16 0;
#X connect 23 5 18 0;
#X connect 23 6 19 0;
#X connect 23 7 20 0;
#X connect 23 8 21 0;
#X connect 23 9 22 0;
#X connect 24 0 0 0;
#X connect 25 0 0 0;
#X connect 26 0 24 1;
#X connect 26 0 25 1;
#X connect 26 0 27 1;
#X connect 26 0 28 1;
#X connect 26 0 29 1;
#X connect 26 1 24 2;
#X connect 26 1 25 2;
#X connect 26 1 27 2;
#X connect 26 1 28 2;
#X connect 26 1 29 2;
#X connect 26 2 24 3;
#X connect 26 2 25 3;
#X connect 26 2 27 3;
#X connect 26 2 28 3;
#X connect 26 2 29 3;
#X connect 27 0 0 0;
#X connect 28 0 0 0;
#X connect 29 0 0 0;
#X restore 76 169 pd keys;
#N canvas 417 23 721 485 tuningsys 0;
#X obj 270 34 inlet;
#X obj 48 46 inlet;
#X obj 78 217 f;
#X msg 247 99 0;
#X msg 290 97 1;
#X msg 336 100 2;
#X msg 380 101 3;
#X obj 276 145 int;
#N canvas 366 38 719 482 pent 0;
#X obj 79 9 inlet;
#X obj 71 65 t f b;
#X obj 100 283 outlet;
#X obj 34 149 f;
#X msg 126 148 0.8;
#X msg 166 149 0.9;
#X msg 201 151 1;
#X obj 99 221 *;
#X msg 236 150 1.2;
#X msg 272 151 1.3333;
#X msg 342 153 1.6;
#X obj 151 110 sel 0 1 2 3 4 5;
#X obj 152 86 random 6;
#X connect 0 0 1 0;
#X connect 1 0 3 0;
#X connect 1 1 12 0;
#X connect 3 0 7 0;
#X connect 4 0 7 1;
#X connect 5 0 7 1;
#X connect 6 0 7 1;
#X connect 7 0 2 0;
#X connect 8 0 7 1;
#X connect 9 0 7 1;
#X connect 10 0 7 1;
#X connect 11 0 4 0;
#X connect 11 1 5 0;
#X connect 11 2 6 0;
#X connect 11 3 8 0;
#X connect 11 4 9 0;
#X connect 11 5 10 0;
#X connect 12 0 11 0;
#X restore 219 259 pd pent;
#N canvas 734 25 450 300 pythag 0;
#X obj 31 68 t f b;
#X obj 37 12 inlet;
#X msg 69 146 1;
#X msg 105 148 1.18519;
#X msg 174 152 1.33333;
#X msg 241 150 1.5;
#X msg 270 149 1.77778;
#X msg 339 149 2;
#X obj 44 217 *;
#X obj 31 92 f;
#X obj 44 241 outlet;
#X obj 152 86 random 6;
#X obj 151 110 sel 0 1 2 3 4 5;
#X connect 0 0 9 0;
#X connect 0 1 11 0;
#X connect 1 0 0 0;
#X connect 2 0 8 1;
#X connect 3 0 8 1;
#X connect 4 0 8 1;
#X connect 5 0 8 1;
#X connect 6 0 8 1;
#X connect 7 0 8 1;
#X connect 8 0 10 0;
#X connect 9 0 8 0;
#X connect 11 0 12 0;
#X connect 12 0 2 0;
#X connect 12 1 3 0;
#X connect 12 2 4 0;
#X connect 12 3 5 0;
#X connect 12 4 6 0;
#X connect 12 5 7 0;
#X restore 143 260 pd pythag;
#N canvas 0 23 450 300 slendro 0;
#X obj 31 68 t f b;
#X obj 37 12 inlet;
#X msg 69 146 1;
#X msg 236 149 1.5;
#X msg 327 151 2;
#X obj 44 217 *;
#X obj 31 92 f;
#X obj 44 241 outlet;
#X obj 152 86 random 6;
#X obj 151 110 sel 0 1 2 3 4 5;
#X msg 105 148 1.1875;
#X msg 168 147 1.3125;
#X msg 279 149 1.75;
#X connect 0 0 6 0;
#X connect 0 1 8 0;
#X connect 1 0 0 0;
#X connect 2 0 5 1;
#X connect 3 0 5 1;
#X connect 4 0 5 1;
#X connect 5 0 7 0;
#X connect 6 0 5 0;
#X connect 8 0 9 0;
#X connect 9 0 2 0;
#X connect 9 1 10 0;
#X connect 9 2 11 0;
#X connect 9 3 3 0;
#X connect 9 4 12 0;
#X connect 9 5 4 0;
#X connect 10 0 5 1;
#X connect 11 0 5 1;
#X connect 12 0 5 1;
#X restore 284 262 pd slendro;
#N canvas 0 23 450 300 harrison 0;
#X obj 31 68 t f b;
#X obj 37 12 inlet;
#X msg 69 146 1;
#X msg 189 150 1.33333;
#X msg 254 151 1.5;
#X msg 373 153 2;
#X obj 44 217 *;
#X obj 31 92 f;
#X obj 44 241 outlet;
#X obj 152 86 random 6;
#X obj 151 110 sel 0 1 2 3 4 5;
#X msg 105 148 1.14286;
#X msg 289 151 1.71429;
#X connect 0 0 7 0;
#X connect 0 1 9 0;
#X connect 1 0 0 0;
#X connect 2 0 6 1;
#X connect 3 0 6 1;
#X connect 4 0 6 1;
#X connect 5 0 6 1;
#X connect 6 0 8 0;
#X connect 7 0 6 0;
#X connect 9 0 10 0;
#X connect 10 0 2 0;
#X connect 10 1 11 0;
#X connect 10 2 3 0;
#X connect 10 3 4 0;
#X connect 10 4 12 0;
#X connect 10 5 5 0;
#X connect 11 0 6 1;
#X connect 12 0 6 1;
#X restore 380 265 pd harrison;
#X msg 435 102 4;
#X obj 147 219 f;
#X obj 201 223 f;
#X obj 239 222 f;
#X obj 281 223 f;
#N canvas 0 23 619 340 justdiatonic 0;
#X obj 31 68 t f b;
#X obj 37 12 inlet;
#X msg 69 146 1;
#X obj 44 217 *;
#X obj 31 92 f;
#X obj 44 241 outlet;
#X msg 105 147 1.125;
#X msg 159 148 1.2;
#X msg 197 148 1.33333;
#X msg 281 153 1.5;
#X obj 151 110 sel 0 1 2 3 4 5 6 7;
#X msg 321 152 1.66667;
#X msg 412 152 1.875;
#X msg 463 151 2;
#X obj 152 85 random 8;
#X connect 0 0 4 0;
#X connect 0 1 14 0;
#X connect 1 0 0 0;
#X connect 2 0 3 1;
#X connect 3 0 5 0;
#X connect 4 0 3 0;
#X connect 6 0 3 1;
#X connect 7 0 3 1;
#X connect 8 0 3 1;
#X connect 9 0 3 1;
#X connect 10 0 2 0;
#X connect 10 1 6 0;
#X connect 10 2 7 0;
#X connect 10 3 8 0;
#X connect 10 4 9 0;
#X connect 10 5 11 0;
#X connect 10 6 12 0;
#X connect 10 7 13 0;
#X connect 11 0 3 1;
#X connect 14 0 10 0;
#X restore 500 265 pd justdiatonic;
#X obj 322 223 f;
#X msg 501 100 5;
#N canvas 248 23 719 482 major 0;
#X obj 79 9 inlet;
#X obj 71 65 t f b;
#X msg 126 148 0;
#X obj 152 86 random 8;
#X obj 151 110 sel 0 1 2 3 4 5 6 7;
#X obj 99 221 +;
#X obj 99 245 mtof;
#X obj 100 283 outlet;
#X obj 34 149 f;
#X msg 388 149 12;
#X obj 79 33 ftom;
#X msg 166 149 2;
#X msg 201 151 4;
#X msg 236 150 5;
#X msg 272 151 7;
#X msg 313 150 9;
#X msg 350 149 11;
#X connect 0 0 10 0;
#X connect 1 0 8 0;
#X connect 1 1 3 0;
#X connect 2 0 5 1;
#X connect 3 0 4 0;
#X connect 4 0 2 0;
#X connect 4 1 11 0;
#X connect 4 2 12 0;
#X connect 4 3 13 0;
#X connect 4 4 14 0;
#X connect 4 5 15 0;
#X connect 4 6 16 0;
#X connect 4 7 9 0;
#X connect 5 0 6 0;
#X connect 6 0 7 0;
#X connect 8 0 5 0;
#X connect 9 0 5 1;
#X connect 10 0 1 0;
#X connect 11 0 5 1;
#X connect 12 0 5 1;
#X connect 13 0 5 1;
#X connect 14 0 5 1;
#X connect 15 0 5 1;
#X connect 16 0 5 1;
#X restore 622 266 pd major;
#X obj 374 224 f;
#X msg 546 109 6;
#X obj 267 60 route bare pythag pent slendro harrison justdiatonic
major;
#X obj 289 184 sel 0 1 2 3 4 5 6;
#X obj 598 110 print Not Found;
#X obj 181 336 outlet;
#X obj 147 33 inlet;
#X obj 326 31 print oscvoice #4;
#X connect 0 0 23 0;
#X connect 0 0 28 0;
#X connect 1 0 2 1;
#X connect 1 0 13 1;
#X connect 1 0 14 1;
#X connect 1 0 15 1;
#X connect 1 0 16 1;
#X connect 1 0 18 1;
#X connect 1 0 21 1;
#X connect 2 0 26 0;
#X connect 3 0 7 1;
#X connect 4 0 7 1;
#X connect 5 0 7 1;
#X connect 6 0 7 1;
#X connect 7 0 24 0;
#X connect 8 0 26 0;
#X connect 9 0 26 0;
#X connect 10 0 26 0;
#X connect 11 0 26 0;
#X connect 12 0 7 1;
#X connect 13 0 9 0;
#X connect 14 0 8 0;
#X connect 15 0 10 0;
#X connect 16 0 11 0;
#X connect 17 0 26 0;
#X connect 18 0 17 0;
#X connect 19 0 7 1;
#X connect 20 0 26 0;
#X connect 21 0 20 0;
#X connect 22 0 7 1;
#X connect 23 0 3 0;
#X connect 23 1 4 0;
#X connect 23 2 5 0;
#X connect 23 3 6 0;
#X connect 23 4 12 0;
#X connect 23 5 19 0;
#X connect 23 6 22 0;
#X connect 23 7 25 0;
#X connect 24 0 2 0;
#X connect 24 1 13 0;
#X connect 24 2 14 0;
#X connect 24 3 15 0;
#X connect 24 4 16 0;
#X connect 24 5 18 0;
#X connect 24 6 21 0;
#X connect 27 0 7 0;
#X restore 76 108 pd tuningsys;
#X obj 83 316 outlet~;
#X obj 352 172 outlet;
#X obj 269 67 loadbang;
#X obj 289 90 bng 15 250 50 0 empty empty empty 17 7 0 10 -262144 -1
-1;
#X msg 221 122 1000;
#X msg 276 120 2000;
#N canvas 51 20 450 300 vol 0;
#X obj 158 130 line~;
#X obj 159 91 inlet;
#X obj 140 184 *~;
#X obj 82 130 inlet~;
#X obj 140 210 outlet~;
#X connect 0 0 2 1;
#X connect 1 0 0 0;
#X connect 2 0 4 0;
#X connect 3 0 2 0;
#X restore 91 283 pd vol;
#X obj 131 193 r initVol;
#X obj 127 226 del 8000;
#X msg 130 253 1.3 3000;
#X msg 180 118 100;
#X obj 167 147 pack 100 1000 2000;
#X connect 0 0 4 0;
#X connect 1 0 4 1;
#X connect 2 0 4 2;
#X connect 3 0 11 0;
#X connect 4 0 6 0;
#X connect 4 0 3 0;
#X connect 7 0 15 0;
#X connect 7 0 9 0;
#X connect 7 0 10 0;
#X connect 8 0 15 0;
#X connect 8 0 9 0;
#X connect 8 0 10 0;
#X connect 9 0 16 1;
#X connect 10 0 16 2;
#X connect 11 0 5 0;
#X connect 12 0 13 0;
#X connect 13 0 14 0;
#X connect 14 0 11 1;
#X connect 15 0 16 0;
#X connect 16 0 3 1;
#X restore 647 420 pd voice;
#X obj 625 387 *;
#X obj 624 334 r bfreq;
#N canvas 666 17 450 300 rhythm 0;
#X obj 78 33 r iter;
#X obj 72 192 nbx 5 14 0 1e+37 0 1 empty empty empty 0 -8 0 10 -262144
-1 -1 0.25 256;
#X obj 129 215 bng 15 250 50 0 empty empty empty 17 7 0 10 -262144
-1 -1;
#X obj 79 66 int;
#X obj 109 64 + 1;
#X obj 74 94 mod 64;
#X obj 129 235 outlet;
#X obj 67 238 outlet;
#X msg 28 153 0.5;
#X msg 77 151 0.25;
#X msg 117 152 0.75;
#X msg 168 151 1.77777;
#X obj 60 119 sel 0 32 52 16;
#X connect 0 0 3 0;
#X connect 1 0 2 0;
#X connect 1 0 7 0;
#X connect 2 0 6 0;
#X connect 3 0 4 0;
#X connect 3 0 5 0;
#X connect 4 0 3 1;
#X connect 5 0 12 0;
#X connect 8 0 1 0;
#X connect 9 0 1 0;
#X connect 10 0 1 0;
#X connect 11 0 1 0;
#X connect 12 0 8 0;
#X connect 12 1 9 0;
#X connect 12 2 10 0;
#X connect 12 3 11 0;
#X restore 643 360 pd rhythm;
#X obj 233 1042 s scale2;
#X obj 137 401 cnv 15 70 30 empty empty empty 20 12 0 14 -204786 -66577
0;
#X obj 112 354 mtof;
#X obj 39 389 s bfreq;
#N canvas 351 111 494 473 rhythm 0;
#X obj 32 271 sel 0;
#X obj 33 313 outlet;
#X obj 29 204 int;
#X obj 63 204 + 1;
#X obj 31 168 r iter;
#X obj 32 241 mod 10;
#X connect 0 0 1 0;
#X connect 2 0 3 0;
#X connect 2 0 5 0;
#X connect 3 0 2 1;
#X connect 4 0 2 0;
#X connect 5 0 0 0;
#X restore 127 381 pd rhythm;
#N canvas 105 268 750 690 voice 1;
#X obj 96 18 inlet;
#X obj 163 34 inlet;
#X obj 253 23 inlet;
#N canvas 951 650 759 643 FX 0;
#X obj 37 37 inlet~;
#N canvas 427 376 970 462 rev 0;
#X obj 40 68 inlet~;
#X obj 37 244 outlet~;
#X obj 38 199 hv.reverb;
#X msg 176 134 dry-gain 22;
#X msg 468 130 damp 7;
#X msg 534 131 lowcut 15;
#X msg 611 133 predelay_ms 10;
#X obj 385 68 loadbang;
#X msg 272 133 wet-gain 98;
#X msg 369 131 feedback 98;
#X connect 0 0 2 0;
#X connect 2 0 1 0;
#X connect 3 0 2 1;
#X connect 4 0 2 1;
#X connect 5 0 2 1;
#X connect 6 0 2 1;
#X connect 7 0 3 0;
#X connect 7 0 8 0;
#X connect 7 0 9 0;
#X connect 7 0 4 0;
#X connect 7 0 5 0;
#X connect 7 0 6 0;
#X connect 8 0 2 1;
#X connect 9 0 2 1;
#X restore 39 75 pd rev;
#X obj 39 108 outlet~;
#X connect 0 0 1 0;
#X connect 1 0 2 0;
#X restore 107 394 pd FX;
#N canvas 591 313 1096 672 keys 0;
#X obj 466 599 outlet~;
#X obj 96 50 inlet;
#X obj 630 98 inlet;
#X obj 93 93 t f b;
#X obj 302 39 int;
#X obj 333 39 + 1;
#X obj 66 293 syn.ctl;
#X obj 65 179 f, f 2;
#X obj 274 301 syn.ctl;
#X obj 263 188 f, f 2;
#X obj 502 229 unpack f f f;
#X obj 456 310 syn.ctl;
#X obj 431 201 f, f 2;
#X obj 636 328 syn.ctl;
#X obj 648 203 f, f 2;
#X obj 845 320 syn.ctl;
#X obj 832 217 f;
#X obj 301 65 mod 10;
#X obj 77 343 f, f 2;
#X obj 275 352 f, f 2;
#X obj 443 365 f, f 2;
#X obj 660 367 f, f 2;
#X obj 839 395 f;
#X obj 279 115 sel 0 1 2 3 4 5 6 7 8 9;
#X obj 44 450 syn.ctl;
#X obj 252 458 syn.ctl;
#X obj 480 386 unpack f f f;
#X obj 434 467 syn.ctl;
#X obj 614 485 syn.ctl;
#X obj 823 477 syn.ctl;
#X connect 1 0 3 0;
#X connect 2 0 10 0;
#X connect 2 0 26 0;
#X connect 3 0 7 1;
#X connect 3 0 9 1;
#X connect 3 0 12 1;
#X connect 3 0 14 1;
#X connect 3 0 16 1;
#X connect 3 0 18 1;
#X connect 3 0 19 1;
#X connect 3 0 20 1;
#X connect 3 0 21 1;
#X connect 3 0 22 1;
#X connect 3 1 4 0;
#X connect 4 0 5 0;
#X connect 4 0 17 0;
#X connect 6 0 0 0;
#X connect 7 0 6 0;
#X connect 8 0 0 0;
#X connect 9 0 8 0;
#X connect 10 0 6 1;
#X connect 10 0 8 1;
#X connect 10 0 11 1;
#X connect 10 0 13 1;
#X connect 10 0 15 1;
#X connect 10 1 6 2;
#X connect 10 1 8 2;
#X connect 10 1 11 2;
#X connect 10 1 13 2;
#X connect 10 1 15 2;
#X connect 10 2 6 3;
#X connect 10 2 8 3;
#X connect 10 2 11 3;
#X connect 10 2 13 3;
#X connect 10 2 15 3;
#X connect 11 0 0 0;
#X connect 12 0 11 0;
#X connect 13 0 0 0;
#X connect 14 0 13 0;
#X connect 15 0 0 0;
#X connect 16 0 15 0;
#X connect 17 0 23 0;
#X connect 18 0 24 0;
#X connect 19 0 25 0;
#X connect 20 0 27 0;
#X connect 21 0 28 0;
#X connect 22 0 29 0;
#X connect 23 0 7 0;
#X connect 23 1 9 0;
#X connect 23 2 12 0;
#X connect 23 3 14 0;
#X connect 23 4 16 0;
#X connect 23 5 18 0;
#X connect 23 6 19 0;
#X connect 23 7 20 0;
#X connect 23 8 21 0;
#X connect 23 9 22 0;
#X connect 24 0 0 0;
#X connect 25 0 0 0;
#X connect 26 0 24 1;
#X connect 26 0 25 1;
#X connect 26 0 27 1;
#X connect 26 0 28 1;
#X connect 26 0 29 1;
#X connect 26 1 24 2;
#X connect 26 1 25 2;
#X connect 26 1 27 2;
#X connect 26 1 28 2;
#X connect 26 1 29 2;
#X connect 26 2 24 3;
#X connect 26 2 25 3;
#X connect 26 2 27 3;
#X connect 26 2 28 3;
#X connect 26 2 29 3;
#X connect 27 0 0 0;
#X connect 28 0 0 0;
#X connect 29 0 0 0;
#X restore 31 285 pd keys;
#N canvas 417 23 721 485 tuningsys 0;
#X obj 270 34 inlet;
#X obj 48 46 inlet;
#X obj 78 217 f;
#X msg 247 99 0;
#X msg 290 97 1;
#X msg 336 100 2;
#X msg 380 101 3;
#X obj 276 145 int;
#N canvas 366 38 719 482 pent 0;
#X obj 79 9 inlet;
#X obj 100 283 outlet;
#X obj 71 65 t f b;
#X obj 34 149 f;
#X msg 126 148 0.8;
#X msg 166 149 0.9;
#X msg 201 151 1;
#X obj 99 221 *;
#X msg 236 150 1.2;
#X msg 272 151 1.3333;
#X msg 342 153 1.6;
#X obj 151 110 sel 0 1 2 3 4 5;
#X obj 152 86 random 6;
#X connect 0 0 2 0;
#X connect 2 0 3 0;
#X connect 2 1 12 0;
#X connect 3 0 7 0;
#X connect 4 0 7 1;
#X connect 5 0 7 1;
#X connect 6 0 7 1;
#X connect 7 0 1 0;
#X connect 8 0 7 1;
#X connect 9 0 7 1;
#X connect 10 0 7 1;
#X connect 11 0 4 0;
#X connect 11 1 5 0;
#X connect 11 2 6 0;
#X connect 11 3 8 0;
#X connect 11 4 9 0;
#X connect 11 5 10 0;
#X connect 12 0 11 0;
#X restore 219 259 pd pent;
#N canvas 734 25 450 300 pythag 0;
#X obj 31 68 t f b;
#X obj 37 12 inlet;
#X msg 69 146 1;
#X msg 105 148 1.18519;
#X msg 174 152 1.33333;
#X msg 241 150 1.5;
#X msg 270 149 1.77778;
#X msg 339 149 2;
#X obj 44 217 *;
#X obj 31 92 f;
#X obj 44 241 outlet;
#X obj 152 86 random 6;
#X obj 151 110 sel 0 1 2 3 4 5;
#X connect 0 0 9 0;
#X connect 0 1 11 0;
#X connect 1 0 0 0;
#X connect 2 0 8 1;
#X connect 3 0 8 1;
#X connect 4 0 8 1;
#X connect 5 0 8 1;
#X connect 6 0 8 1;
#X connect 7 0 8 1;
#X connect 8 0 10 0;
#X connect 9 0 8 0;
#X connect 11 0 12 0;
#X connect 12 0 2 0;
#X connect 12 1 3 0;
#X connect 12 2 4 0;
#X connect 12 3 5 0;
#X connect 12 4 6 0;
#X connect 12 5 7 0;
#X restore 143 260 pd pythag;
#N canvas 0 23 450 300 slendro 0;
#X obj 31 68 t f b;
#X obj 37 12 inlet;
#X msg 69 146 1;
#X msg 236 149 1.5;
#X msg 327 151 2;
#X obj 44 217 *;
#X obj 31 92 f;
#X obj 44 241 outlet;
#X obj 152 86 random 6;
#X obj 151 110 sel 0 1 2 3 4 5;
#X msg 105 148 1.1875;
#X msg 168 147 1.3125;
#X msg 279 149 1.75;
#X connect 0 0 6 0;
#X connect 0 1 8 0;
#X connect 1 0 0 0;
#X connect 2 0 5 1;
#X connect 3 0 5 1;
#X connect 4 0 5 1;
#X connect 5 0 7 0;
#X connect 6 0 5 0;
#X connect 8 0 9 0;
#X connect 9 0 2 0;
#X connect 9 1 10 0;
#X connect 9 2 11 0;
#X connect 9 3 3 0;
#X connect 9 4 12 0;
#X connect 9 5 4 0;
#X connect 10 0 5 1;
#X connect 11 0 5 1;
#X connect 12 0 5 1;
#X restore 284 262 pd slendro;
#N canvas 0 23 450 300 harrison 0;
#X obj 31 68 t f b;
#X obj 37 12 inlet;
#X msg 69 146 1;
#X msg 189 150 1.33333;
#X msg 254 151 1.5;
#X msg 373 153 2;
#X obj 44 217 *;
#X obj 31 92 f;
#X obj 44 241 outlet;
#X obj 152 86 random 6;
#X obj 151 110 sel 0 1 2 3 4 5;
#X msg 105 148 1.14286;
#X msg 289 151 1.71429;
#X connect 0 0 7 0;
#X connect 0 1 9 0;
#X connect 1 0 0 0;
#X connect 2 0 6 1;
#X connect 3 0 6 1;
#X connect 4 0 6 1;
#X connect 5 0 6 1;
#X connect 6 0 8 0;
#X connect 7 0 6 0;
#X connect 9 0 10 0;
#X connect 10 0 2 0;
#X connect 10 1 11 0;
#X connect 10 2 3 0;
#X connect 10 3 4 0;
#X connect 10 4 12 0;
#X connect 10 5 5 0;
#X connect 11 0 6 1;
#X connect 12 0 6 1;
#X restore 380 265 pd harrison;
#X msg 435 102 4;
#X obj 147 219 f;
#X obj 201 223 f;
#X obj 239 222 f;
#X obj 281 223 f;
#N canvas 0 23 619 340 justdiatonic 0;
#X obj 31 68 t f b;
#X obj 37 12 inlet;
#X msg 69 146 1;
#X obj 44 217 *;
#X obj 31 92 f;
#X obj 44 241 outlet;
#X msg 105 147 1.125;
#X msg 159 148 1.2;
#X msg 197 148 1.33333;
#X msg 281 153 1.5;
#X obj 151 110 sel 0 1 2 3 4 5 6 7;
#X msg 321 152 1.66667;
#X msg 412 152 1.875;
#X msg 463 151 2;
#X obj 152 85 random 8;
#X connect 0 0 4 0;
#X connect 0 1 14 0;
#X connect 1 0 0 0;
#X connect 2 0 3 1;
#X connect 3 0 5 0;
#X connect 4 0 3 0;
#X connect 6 0 3 1;
#X connect 7 0 3 1;
#X connect 8 0 3 1;
#X connect 9 0 3 1;
#X connect 10 0 2 0;
#X connect 10 1 6 0;
#X connect 10 2 7 0;
#X connect 10 3 8 0;
#X connect 10 4 9 0;
#X connect 10 5 11 0;
#X connect 10 6 12 0;
#X connect 10 7 13 0;
#X connect 11 0 3 1;
#X connect 14 0 10 0;
#X restore 500 265 pd justdiatonic;
#X obj 322 223 f;
#X msg 501 100 5;
#X obj 326 31 print oscvoice #1;
#N canvas 248 23 719 482 major 0;
#X obj 79 9 inlet;
#X obj 71 65 t f b;
#X msg 126 148 0;
#X obj 152 86 random 8;
#X obj 151 110 sel 0 1 2 3 4 5 6 7;
#X obj 99 221 +;
#X obj 99 245 mtof;
#X obj 100 283 outlet;
#X obj 34 149 f;
#X msg 388 149 12;
#X obj 79 33 ftom;
#X msg 166 149 2;
#X msg 201 151 4;
#X msg 236 150 5;
#X msg 272 151 7;
#X msg 313 150 9;
#X msg 350 149 11;
#X connect 0 0 10 0;
#X connect 1 0 8 0;
#X connect 1 1 3 0;
#X connect 2 0 5 1;
#X connect 3 0 4 0;
#X connect 4 0 2 0;
#X connect 4 1 11 0;
#X connect 4 2 12 0;
#X connect 4 3 13 0;
#X connect 4 4 14 0;
#X connect 4 5 15 0;
#X connect 4 6 16 0;
#X connect 4 7 9 0;
#X connect 5 0 6 0;
#X connect 6 0 7 0;
#X connect 8 0 5 0;
#X connect 9 0 5 1;
#X connect 10 0 1 0;
#X connect 11 0 5 1;
#X connect 12 0 5 1;
#X connect 13 0 5 1;
#X connect 14 0 5 1;
#X connect 15 0 5 1;
#X connect 16 0 5 1;
#X restore 622 266 pd major;
#X obj 374 224 f;
#X msg 546 109 6;
#X obj 267 60 route bare pythag pent slendro harrison justdiatonic
major;
#X obj 289 184 sel 0 1 2 3 4 5 6;
#X obj 598 110 print Not Found;
#X obj 181 336 outlet;
#X obj 147 33 inlet;
#X connect 0 0 20 0;
#X connect 0 0 24 0;
#X connect 1 0 2 1;
#X connect 1 0 13 1;
#X connect 1 0 14 1;
#X connect 1 0 15 1;
#X connect 1 0 16 1;
#X connect 1 0 18 1;
#X connect 1 0 22 1;
#X connect 2 0 27 0;
#X connect 3 0 7 1;
#X connect 4 0 7 1;
#X connect 5 0 7 1;
#X connect 6 0 7 1;
#X connect 7 0 25 0;
#X connect 8 0 27 0;
#X connect 9 0 27 0;
#X connect 10 0 27 0;
#X connect 11 0 27 0;
#X connect 12 0 7 1;
#X connect 13 0 9 0;
#X connect 14 0 8 0;
#X connect 15 0 10 0;
#X connect 16 0 11 0;
#X connect 17 0 27 0;
#X connect 18 0 17 0;
#X connect 19 0 7 1;
#X connect 21 0 27 0;
#X connect 22 0 21 0;
#X connect 23 0 7 1;
#X connect 24 0 3 0;
#X connect 24 1 4 0;
#X connect 24 2 5 0;
#X connect 24 3 6 0;
#X connect 24 4 12 0;
#X connect 24 5 19 0;
#X connect 24 6 23 0;
#X connect 24 7 26 0;
#X connect 25 0 2 0;
#X connect 25 1 13 0;
#X connect 25 2 14 0;
#X connect 25 3 15 0;
#X connect 25 4 16 0;
#X connect 25 5 18 0;
#X connect 25 6 22 0;
#X connect 28 0 7 0;
#X restore 114 75 pd tuningsys;
#X obj 104 437 outlet~;
#X obj 288 204 outlet;
#N canvas 0 23 639 300 randasdr 0;
#X obj 97 188 outlet;
#X obj 95 86 inlet;
#X msg 55 121 200;
#X msg 91 118 1000;
#X msg 142 118 500;
#X obj 83 161 pack f f f;
#X connect 1 0 2 0;
#X connect 1 0 3 0;
#X connect 1 0 4 0;
#X connect 2 0 5 0;
#X connect 3 0 5 1;
#X connect 4 0 5 2;
#X connect 5 0 0 0;
#X restore 243 95 pd randasdr;
#X obj 113 257 r initVol;
#X obj 251 289 syn2.ctl;
#X obj 38 253 f;
#X obj 250 259 f;
#X obj 376 186 loadbang;
#X obj 209 191 sel 0 1;
#X obj 269 145 f 0;
#X msg 293 245 4;
#X msg 368 247 114;
#X msg 410 246 278;
#X obj 188 121 bng 15 250 50 0 empty empty empty 17 7 0 10 -262144
-1 -1;
#X msg 329 246 10;
#X obj 371 213 bng 15 250 50 0 empty empty empty 17 7 0 10 -262144
-1 -1;
#N canvas 51 20 450 300 vol 0;
#X obj 158 130 line~;
#X obj 159 91 inlet;
#X obj 140 184 *~;
#X obj 82 130 inlet~;
#X obj 140 210 outlet~;
#X connect 0 0 2 1;
#X connect 1 0 0 0;
#X connect 2 0 4 0;
#X connect 3 0 2 0;
#X restore 114 350 pd vol;
#X msg 120 290 2 3000;
#X msg 463 102 0;
#X msg 387 67 1;
#X msg 186 290 0.2;
#X obj 463 58 r shieldstop;
#X obj 387 23 r shieldstart;
#X connect 0 0 5 0;
#X connect 1 0 5 1;
#X connect 1 0 8 0;
#X connect 2 0 5 2;
#X connect 3 0 6 0;
#X connect 4 0 22 0;
#X connect 5 0 7 0;
#X connect 5 0 19 0;
#X connect 5 0 11 1;
#X connect 5 0 12 1;
#X connect 8 0 4 1;
#X connect 9 0 23 0;
#X connect 10 0 22 0;
#X connect 11 0 4 0;
#X connect 12 0 10 0;
#X connect 13 0 21 0;
#X connect 14 0 11 0;
#X connect 14 0 23 0;
#X connect 14 1 12 0;
#X connect 14 1 26 0;
#X connect 15 0 14 0;
#X connect 16 0 10 1;
#X connect 17 0 10 3;
#X connect 18 0 10 4;
#X connect 19 0 15 0;
#X connect 20 0 10 2;
#X connect 21 0 16 0;
#X connect 21 0 20 0;
#X connect 21 0 17 0;
#X connect 21 0 18 0;
#X connect 22 0 3 0;
#X connect 23 0 22 1;
#X connect 24 0 15 1;
#X connect 25 0 15 1;
#X connect 26 0 22 1;
#X connect 27 0 24 0;
#X connect 28 0 25 0;
#X restore 109 448 pd voice;
#X obj 144 406 r scale1;
#N canvas 572 23 637 501 rhythm 0;
#X obj 27 258 sel 0;
#X obj 14 306 outlet;
#X obj 26 183 int;
#X obj 23 142 r iter;
#X obj 60 183 + 1;
#X obj 27 228 mod 3;
#X obj 264 196 random 6;
#X obj 264 220 sel 0 1 2 3 4 5;
#X msg 261 245 2;
#X obj 272 294 int;
#X msg 298 245 4;
#X msg 335 246 6;
#X msg 375 248 8;
#X msg 416 248 10;
#X msg 227 244 2;
#X obj 90 306 s rhythmIter;
#X obj 126 146 r rhythmUpdate;
#X obj 130 182 random 8;
#X obj 130 206 + 1;
#X connect 0 0 1 0;
#X connect 0 0 15 0;
#X connect 2 0 4 0;
#X connect 2 0 5 0;
#X connect 3 0 2 0;
#X connect 4 0 2 1;
#X connect 5 0 0 0;
#X connect 6 0 7 0;
#X connect 7 0 14 0;
#X connect 7 1 8 0;
#X connect 7 2 10 0;
#X connect 7 3 11 0;
#X connect 7 4 12 0;
#X connect 7 5 13 0;
#X connect 8 0 9 0;
#X connect 10 0 9 0;
#X connect 11 0 9 0;
#X connect 12 0 9 0;
#X connect 13 0 9 0;
#X connect 14 0 9 0;
#X connect 16 0 17 0;
#X connect 17 0 18 0;
#X connect 18 0 5 1;
#X restore 141 802 pd rhythm;
#X obj 663 390 bng 15 250 50 0 empty empty empty 17 7 0 10 -262144
-1 -1;
#X msg 42 996 9TET;
#X msg 446 162 happyState;
#X msg 391 191 initState;
#X msg 537 172 weakState;
#X obj 107 26 loadbang;
#X obj 542 696 cnv 15 500 400 empty empty empty 20 12 0 14 -204800
-66577 0;
#X obj 749 1067 cnv 15 70 30 empty empty empty 20 12 0 14 -204786 -66577
0;
#X msg 653 1021 pythag;
#X msg 610 1020 bare;
#X msg 711 1021 pent;
#X msg 756 1021 slendro;
#X msg 819 1021 harrison;
#X msg 889 1020 justdiatonic;
#X msg 989 1019 major;
#X obj 690 830 cnv 15 70 30 empty empty empty 20 12 0 14 -204786 -66577
0;
#X obj 640 774 r bfreq;
#N canvas 740 61 908 643 voice 0;
#X obj 28 50 inlet;
#X obj 82 47 inlet;
#X obj 207 44 inlet;
#N canvas 417 23 721 485 tuningsys 0;
#X obj 270 34 inlet;
#X obj 48 46 inlet;
#X obj 17 221 f;
#X msg 247 99 0;
#X msg 290 97 1;
#X msg 336 100 2;
#X msg 380 101 3;
#X obj 276 145 int;
#N canvas 366 38 719 482 pent 0;
#X obj 79 9 inlet;
#X obj 100 283 outlet;
#X obj 71 65 t f b;
#X obj 34 149 f;
#X msg 126 148 0.8;
#X msg 166 149 0.9;
#X msg 201 151 1;
#X obj 99 221 *;
#X msg 236 150 1.2;
#X msg 272 151 1.3333;
#X msg 342 153 1.6;
#X obj 151 110 sel 0 1 2 3 4 5;
#X obj 152 86 random 6;
#X connect 0 0 2 0;
#X connect 2 0 3 0;
#X connect 2 1 12 0;
#X connect 3 0 7 0;
#X connect 4 0 7 1;
#X connect 5 0 7 1;
#X connect 6 0 7 1;
#X connect 7 0 1 0;
#X connect 8 0 7 1;
#X connect 9 0 7 1;
#X connect 10 0 7 1;
#X connect 11 0 4 0;
#X connect 11 1 5 0;
#X connect 11 2 6 0;
#X connect 11 3 8 0;
#X connect 11 4 9 0;
#X connect 11 5 10 0;
#X connect 12 0 11 0;
#X restore 154 262 pd pent;
#N canvas 734 25 450 300 pythag 0;
#X obj 31 68 t f b;
#X obj 37 12 inlet;
#X msg 69 146 1;
#X msg 105 148 1.18519;
#X msg 174 152 1.33333;
#X msg 241 150 1.5;
#X msg 270 149 1.77778;
#X msg 339 149 2;
#X obj 44 217 *;
#X obj 31 92 f;
#X obj 44 241 outlet;
#X obj 152 86 random 6;
#X obj 151 110 sel 0 1 2 3 4 5;
#X connect 0 0 9 0;
#X connect 0 1 11 0;
#X connect 1 0 0 0;
#X connect 2 0 8 1;
#X connect 3 0 8 1;
#X connect 4 0 8 1;
#X connect 5 0 8 1;
#X connect 6 0 8 1;
#X connect 7 0 8 1;
#X connect 8 0 10 0;
#X connect 9 0 8 0;
#X connect 11 0 12 0;
#X connect 12 0 2 0;
#X connect 12 1 3 0;
#X connect 12 2 4 0;
#X connect 12 3 5 0;
#X connect 12 4 6 0;
#X connect 12 5 7 0;
#X restore 78 263 pd pythag;
#N canvas 0 23 450 300 slendro 0;
#X obj 31 68 t f b;
#X obj 37 12 inlet;
#X msg 69 146 1;
#X msg 236 149 1.5;
#X msg 327 151 2;
#X obj 44 189 *;
#X obj 31 92 f;
#X obj 43 262 outlet;
#X obj 152 86 random 6;
#X obj 151 110 sel 0 1 2 3 4 5;
#X msg 105 148 1.1875;
#X msg 168 147 1.3125;
#X msg 279 149 1.75;
#X obj 160 194 random 2;
#X obj 160 218 sel 0;
#X obj 44 213 + 0;
#X msg 197 244 0;
#X msg 139 245 0.5;
#X connect 0 0 6 0;
#X connect 0 1 8 0;
#X connect 0 1 13 0;
#X connect 1 0 0 0;
#X connect 2 0 5 1;
#X connect 3 0 5 1;
#X connect 4 0 5 1;
#X connect 5 0 15 0;
#X connect 6 0 5 0;
#X connect 8 0 9 0;
#X connect 9 0 2 0;
#X connect 9 1 10 0;
#X connect 9 2 11 0;
#X connect 9 3 3 0;
#X connect 9 4 12 0;
#X connect 9 5 4 0;
#X connect 10 0 5 1;
#X connect 11 0 5 1;
#X connect 12 0 5 1;
#X connect 13 0 14 0;
#X connect 14 0 17 0;
#X connect 14 1 16 0;
#X connect 15 0 7 0;
#X connect 16 0 15 1;
#X connect 17 0 15 1;
#X restore 219 265 pd slendro;
#N canvas 0 23 450 300 harrison 0;
#X obj 31 68 t f b;
#X obj 37 12 inlet;
#X msg 69 146 1;
#X msg 189 150 1.33333;
#X msg 254 151 1.5;
#X msg 373 153 2;
#X obj 44 217 *;
#X obj 31 92 f;
#X obj 44 241 outlet;
#X obj 152 86 random 6;
#X obj 151 110 sel 0 1 2 3 4 5;
#X msg 105 148 1.14286;
#X msg 289 151 1.71429;
#X connect 0 0 7 0;
#X connect 0 1 9 0;
#X connect 1 0 0 0;
#X connect 2 0 6 1;
#X connect 3 0 6 1;
#X connect 4 0 6 1;
#X connect 5 0 6 1;
#X connect 6 0 8 0;
#X connect 7 0 6 0;
#X connect 9 0 10 0;
#X connect 10 0 2 0;
#X connect 10 1 11 0;
#X connect 10 2 3 0;
#X connect 10 3 4 0;
#X connect 10 4 12 0;
#X connect 10 5 5 0;
#X connect 11 0 6 1;
#X connect 12 0 6 1;
#X restore 315 268 pd harrison;
#X msg 435 102 4;
#X obj 86 223 f;
#X obj 140 227 f;
#X obj 178 226 f;
#X obj 220 227 f;
#N canvas 0 23 619 340 justdiatonic 0;
#X obj 31 68 t f b;
#X obj 37 12 inlet;
#X msg 69 146 1;
#X obj 44 217 *;
#X obj 31 92 f;
#X obj 44 241 outlet;
#X msg 105 147 1.125;
#X msg 159 148 1.2;
#X msg 197 148 1.33333;
#X msg 281 153 1.5;
#X obj 151 110 sel 0 1 2 3 4 5 6 7;
#X msg 321 152 1.66667;
#X msg 412 152 1.875;
#X msg 463 151 2;
#X obj 152 85 random 8;
#X connect 0 0 4 0;
#X connect 0 1 14 0;
#X connect 1 0 0 0;
#X connect 2 0 3 1;
#X connect 3 0 5 0;
#X connect 4 0 3 0;
#X connect 6 0 3 1;
#X connect 7 0 3 1;
#X connect 8 0 3 1;
#X connect 9 0 3 1;
#X connect 10 0 2 0;
#X connect 10 1 6 0;
#X connect 10 2 7 0;
#X connect 10 3 8 0;
#X connect 10 4 9 0;
#X connect 10 5 11 0;
#X connect 10 6 12 0;
#X connect 10 7 13 0;
#X connect 11 0 3 1;
#X connect 14 0 10 0;
#X restore 435 268 pd justdiatonic;
#X obj 261 227 f;
#X msg 501 100 5;
#N canvas 248 23 719 482 major 0;
#X obj 79 9 inlet;
#X obj 71 65 t f b;
#X msg 126 148 0;
#X obj 152 86 random 8;
#X obj 151 110 sel 0 1 2 3 4 5 6 7;
#X obj 99 221 +;
#X obj 99 245 mtof;
#X obj 100 283 outlet;
#X obj 34 149 f;
#X msg 388 149 12;
#X obj 79 33 ftom;
#X msg 166 149 2;
#X msg 201 151 4;
#X msg 236 150 5;
#X msg 272 151 7;
#X msg 313 150 9;
#X msg 350 149 11;
#X connect 0 0 10 0;
#X connect 1 0 8 0;
#X connect 1 1 3 0;
#X connect 2 0 5 1;
#X connect 3 0 4 0;
#X connect 4 0 2 0;
#X connect 4 1 11 0;
#X connect 4 2 12 0;
#X connect 4 3 13 0;
#X connect 4 4 14 0;
#X connect 4 5 15 0;
#X connect 4 6 16 0;
#X connect 4 7 9 0;
#X connect 5 0 6 0;
#X connect 6 0 7 0;
#X connect 8 0 5 0;
#X connect 9 0 5 1;
#X connect 10 0 1 0;
#X connect 11 0 5 1;
#X connect 12 0 5 1;
#X connect 13 0 5 1;
#X connect 14 0 5 1;
#X connect 15 0 5 1;
#X connect 16 0 5 1;
#X restore 557 269 pd major;
#X obj 313 228 f;
#X msg 546 109 6;
#X obj 598 110 print Not Found;
#X obj 131 352 outlet;
#X obj 111 21 inlet;
#X obj 267 60 route bare pythag pent slendro harrison justdiatonic
major 9TET, f 63;
#X msg 589 145 7;
#X obj 289 184 sel 0 1 2 3 4 5 6 7;
#X obj 355 225 f;
#N canvas 0 23 450 300 9tet 0;
#X obj 79 9 inlet;
#X obj 100 283 outlet;
#X obj 71 65 t f b;
#X obj 34 149 f;
#X obj 99 221 *;
#X obj 152 86 random 9;
#X msg 82 128 1.08;
#X msg 97 155 1.16667;
#X msg 129 180 1.26;
#X msg 164 198 1.36111;
#X msg 219 218 1.46939;
#X msg 288 244 1.5873;
#X msg 317 219 1.71429;
#X msg 344 194 1.85185;
#X msg 383 170 2;
#X obj 151 110 sel 0 1 2 3 4 5 6 7 8;
#X connect 0 0 2 0;
#X connect 2 0 3 0;
#X connect 2 1 5 0;
#X connect 3 0 4 0;
#X connect 4 0 1 0;
#X connect 5 0 15 0;
#X connect 6 0 4 1;
#X connect 7 0 4 1;
#X connect 8 0 4 1;
#X connect 9 0 4 1;
#X connect 10 0 4 1;
#X connect 11 0 4 1;
#X connect 12 0 4 1;
#X connect 14 0 4 1;
#X connect 15 0 6 0;
#X connect 15 1 7 0;
#X connect 15 2 8 0;
#X connect 15 3 9 0;
#X connect 15 4 10 0;
#X connect 15 5 11 0;
#X connect 15 6 12 0;
#X connect 15 7 13 0;
#X connect 15 8 14 0;
#X restore 627 268 pd 9tet;
#X obj 326 31 print oscvoice #3;
#X connect 0 0 26 0;
#X connect 0 0 31 0;
#X connect 1 0 2 1;
#X connect 1 0 13 1;
#X connect 1 0 14 1;
#X connect 1 0 15 1;
#X connect 1 0 16 1;
#X connect 1 0 18 1;
#X connect 1 0 21 1;
#X connect 1 0 29 1;
#X connect 2 0 24 0;
#X connect 3 0 7 1;
#X connect 4 0 7 1;
#X connect 5 0 7 1;
#X connect 6 0 7 1;
#X connect 7 0 28 0;
#X connect 8 0 24 0;
#X connect 9 0 24 0;
#X connect 10 0 24 0;
#X connect 11 0 24 0;
#X connect 12 0 7 1;
#X connect 13 0 9 0;
#X connect 14 0 8 0;
#X connect 15 0 10 0;
#X connect 16 0 11 0;
#X connect 17 0 24 0;
#X connect 18 0 17 0;
#X connect 19 0 7 1;
#X connect 20 0 24 0;
#X connect 21 0 20 0;
#X connect 22 0 7 1;
#X connect 25 0 7 0;
#X connect 26 0 3 0;
#X connect 26 1 4 0;
#X connect 26 2 5 0;
#X connect 26 3 6 0;
#X connect 26 4 12 0;
#X connect 26 5 19 0;
#X connect 26 6 22 0;
#X connect 26 7 27 0;
#X connect 26 8 23 0;
#X connect 27 0 7 1;
#X connect 28 0 2 0;
#X connect 28 1 13 0;
#X connect 28 2 14 0;
#X connect 28 3 15 0;
#X connect 28 4 16 0;
#X connect 28 5 18 0;
#X connect 28 6 21 0;
#X connect 28 7 29 0;
#X connect 29 0 30 0;
#X connect 30 0 24 0;
#X restore 50 114 pd tuningsys;
#X obj 61 344 outlet~;
#X obj 296 186 outlet;
#N canvas 844 172 1021 747 keys 0;
#X obj 466 599 outlet~;
#X obj 96 50 inlet;
#X obj 630 98 inlet;
#X obj 93 93 t f b;
#X obj 302 39 int;
#X obj 333 39 + 1;
#X obj 66 293 syn.ctl;
#X obj 65 179 f, f 2;
#X obj 274 301 syn.ctl;
#X obj 263 188 f, f 2;
#X obj 502 229 unpack f f f;
#X obj 456 310 syn.ctl;
#X obj 431 201 f, f 2;
#X obj 636 328 syn.ctl;
#X obj 648 203 f, f 2;
#X obj 845 320 syn.ctl;
#X obj 832 217 f;
#X obj 301 65 mod 10;
#X obj 77 343 f, f 2;
#X obj 275 352 f, f 2;
#X obj 443 365 f, f 2;
#X obj 660 367 f, f 2;
#X obj 839 395 f;
#X obj 279 115 sel 0 1 2 3 4 5 6 7 8 9;
#X obj 44 450 syn.ctl;
#X obj 252 458 syn.ctl;
#X obj 480 386 unpack f f f;
#X obj 434 467 syn.ctl;
#X obj 614 485 syn.ctl;
#X obj 823 477 syn.ctl;
#X connect 1 0 3 0;
#X connect 2 0 10 0;
#X connect 2 0 26 0;
#X connect 3 0 7 1;
#X connect 3 0 9 1;
#X connect 3 0 12 1;
#X connect 3 0 14 1;
#X connect 3 0 16 1;
#X connect 3 0 18 1;
#X connect 3 0 19 1;
#X connect 3 0 20 1;
#X connect 3 0 21 1;
#X connect 3 0 22 1;
#X connect 3 1 4 0;
#X connect 4 0 5 0;
#X connect 4 0 17 0;
#X connect 6 0 0 0;
#X connect 7 0 6 0;
#X connect 8 0 0 0;
#X connect 9 0 8 0;
#X connect 10 0 6 1;
#X connect 10 0 8 1;
#X connect 10 0 11 1;
#X connect 10 0 13 1;
#X connect 10 0 15 1;
#X connect 10 1 6 2;
#X connect 10 1 8 2;
#X connect 10 1 11 2;
#X connect 10 1 13 2;
#X connect 10 1 15 2;
#X connect 10 2 6 3;
#X connect 10 2 8 3;
#X connect 10 2 11 3;
#X connect 10 2 13 3;
#X connect 10 2 15 3;
#X connect 11 0 0 0;
#X connect 12 0 11 0;
#X connect 13 0 0 0;
#X connect 14 0 13 0;
#X connect 15 0 0 0;
#X connect 16 0 15 0;
#X connect 17 0 23 0;
#X connect 18 0 24 0;
#X connect 19 0 25 0;
#X connect 20 0 27 0;
#X connect 21 0 28 0;
#X connect 22 0 29 0;
#X connect 23 0 7 0;
#X connect 23 1 9 0;
#X connect 23 2 12 0;
#X connect 23 3 14 0;
#X connect 23 4 16 0;
#X connect 23 5 18 0;
#X connect 23 6 19 0;
#X connect 23 7 20 0;
#X connect 23 8 21 0;
#X connect 23 9 22 0;
#X connect 24 0 0 0;
#X connect 25 0 0 0;
#X connect 26 0 24 1;
#X connect 26 0 25 1;
#X connect 26 0 27 1;
#X connect 26 0 28 1;
#X connect 26 0 29 1;
#X connect 26 1 24 2;
#X connect 26 1 25 2;
#X connect 26 1 27 2;
#X connect 26 1 28 2;
#X connect 26 1 29 2;
#X connect 26 2 24 3;
#X connect 26 2 25 3;
#X connect 26 2 27 3;
#X connect 26 2 28 3;
#X connect 26 2 29 3;
#X connect 27 0 0 0;
#X connect 28 0 0 0;
#X connect 29 0 0 0;
#X restore 42 187 pd keys;
#N canvas 9 362 593 303 randasdr 0;
#X obj 61 27 inlet;
#X obj 117 167 pack 40 70 160;
#X obj 117 191 outlet;
#X obj 126 86 random 200;
#X obj 241 87 random 200;
#X obj 28 90 random 50;
#X obj 29 114 + 50;
#X obj 126 110 + 300;
#X obj 241 111 + 200;
#X connect 0 0 3 0;
#X connect 0 0 4 0;
#X connect 0 0 5 0;
#X connect 1 0 2 0;
#X connect 3 0 7 0;
#X connect 4 0 8 0;
#X connect 5 0 6 0;
#X connect 6 0 1 0;
#X connect 7 0 1 1;
#X connect 8 0 1 2;
#X restore 156 84 pd randasdr;
#N canvas 51 20 450 300 vol 0;
#X obj 158 130 line~;
#X obj 159 91 inlet;
#X obj 140 184 *~;
#X obj 82 130 inlet~;
#X obj 140 210 outlet~;
#X connect 0 0 2 1;
#X connect 1 0 0 0;
#X connect 2 0 4 0;
#X connect 3 0 2 0;
#X restore 67 299 pd vol;
#X obj 107 209 r initVol;
#X obj 103 242 del 8000;
#X msg 106 269 1 5000;
#X connect 0 0 3 0;
#X connect 1 0 3 1;
#X connect 1 0 7 0;
#X connect 2 0 3 2;
#X connect 3 0 5 0;
#X connect 3 0 6 0;
#X connect 6 0 8 0;
#X connect 7 0 6 1;
#X connect 8 0 4 0;
#X connect 9 0 10 0;
#X connect 10 0 11 0;
#X connect 11 0 8 1;
#X restore 641 860 pd voice;
#N canvas 424 23 484 367 rhythm 0;
#X obj 28 158 sel 0;
#X obj 25 205 outlet;
#X obj 27 83 int;
#X obj 25 39 r iter;
#X obj 61 83 + 1;
#X obj 28 128 mod 2;
#X obj 241 94 random 6;
#X obj 241 118 sel 0 1 2 3 4 5;
#X msg 204 142 1;
#X msg 238 143 2;
#X msg 275 143 3;
#X msg 312 144 5;
#X msg 352 146 7;
#X msg 393 146 9;
#X obj 303 172 int;
#X obj 87 205 s rhythmIter;
#X obj 128 49 r rhythmUpdate;
#X obj 130 86 random 8;
#X obj 130 110 + 1;
#X connect 0 0 1 0;
#X connect 0 0 15 0;
#X connect 2 0 4 0;
#X connect 2 0 5 0;
#X connect 3 0 2 0;
#X connect 4 0 2 1;
#X connect 5 0 0 0;
#X connect 6 0 7 0;
#X connect 7 0 8 0;
#X connect 7 1 9 0;
#X connect 7 2 10 0;
#X connect 7 3 11 0;
#X connect 7 4 12 0;
#X connect 7 5 13 0;
#X connect 8 0 14 0;
#X connect 9 0 14 0;
#X connect 10 0 14 0;
#X connect 11 0 14 0;
#X connect 12 0 14 0;
#X connect 13 0 14 0;
#X connect 16 0 17 0;
#X connect 17 0 18 0;
#X connect 18 0 5 1;
#X restore 667 805 pd rhythm;
#X msg 562 1026 9TET;
#X msg 620 173 chillState;
#X msg 711 174 actionState;
#X msg 820 176 recoveringState;
#X obj 690 885 bng 15 250 50 0 empty empty empty 17 7 0 10 -262144
-1 -1;
#X obj 171 879 bng 15 250 50 0 empty empty empty 17 7 0 10 -262144
-1 -1;
#N canvas 1391 131 438 418 parseState 0;
#X obj 235 16 inlet;
#N canvas 0 50 1065 420 scaleControl 0;
#X obj 234 48 inlet;
#X obj 383 299 s scale2;
#X obj 261 298 s scale1;
#X msg 32 182 slendro;
#X msg 686 189 bare;
#X msg 13 268 justdiatonic;
#X msg 774 185 justdiatonic;
#X msg 597 190 pent;
#X msg 873 186 pythag;
#X msg 426 190 slendro;
#X obj 237 87 route initState happyState weakState chillState actionState
recoveringState, f 76;
#X msg 968 190 pythag;
#X msg 1031 191 pent;
#X msg 230 189 pent;
#X msg 535 188 slendro;
#X msg 333 190 bare;
#X obj 681 303 s scale4;
#X obj 488 302 s scale3;
#X msg 124 186 bare;
#X connect 0 0 10 0;
#X connect 3 0 2 0;
#X connect 3 0 17 0;
#X connect 4 0 16 0;
#X connect 5 0 2 0;
#X connect 6 0 2 0;
#X connect 6 0 1 0;
#X connect 7 0 1 0;
#X connect 7 0 17 0;
#X connect 8 0 17 0;
#X connect 9 0 17 0;
#X connect 10 0 18 0;
#X connect 10 0 3 0;
#X connect 10 1 13 0;
#X connect 10 1 4 0;
#X connect 10 2 4 0;
#X connect 10 2 15 0;
#X connect 10 2 9 0;
#X connect 10 3 7 0;
#X connect 10 3 4 0;
#X connect 10 3 14 0;
#X connect 10 4 6 0;
#X connect 10 4 8 0;
#X connect 10 4 4 0;
#X connect 10 5 4 0;
#X connect 10 5 12 0;
#X connect 10 5 11 0;
#X connect 11 0 2 0;
#X connect 12 0 1 0;
#X connect 12 0 17 0;
#X connect 13 0 2 0;
#X connect 13 0 1 0;
#X connect 13 0 17 0;
#X connect 14 0 2 0;
#X connect 15 0 2 0;
#X connect 15 0 1 0;
#X connect 18 0 1 0;
#X connect 18 0 16 0;
#X restore 313 62 pd scaleControl;
#N canvas 0 50 590 300 volumeControl 0;
#X obj 240 48 inlet;
#X obj 237 87 route initState happyState weakState chillState actionState
recoveringState, f 76;
#X obj 152 145 s initVol;
#X obj 219 124 bng 15 250 50 0 empty empty empty 17 7 0 10 -262144
-1 -1;
#X connect 0 0 1 0;
#X connect 1 0 3 0;
#X connect 1 1 3 0;
#X connect 3 0 2 0;
#X restore 186 63 pd volumeControl;
#X connect 0 0 1 0;
#X connect 0 0 2 0;
#X restore 611 231 pd parseState;
#X obj 753 1072 s scale3;
#X obj 694 834 r scale3;
#X obj 704 391 r scale4;
#X obj 741 610 s scale4;
#X obj 391 80 r start @hv_event;
#X obj 737 16 r damage @hv_event;
#X obj 442 117 r load @hv_event;
#X obj 114 314 r unitfreq @hv_param 0 100 64;
#X msg 46 321 64;
#X obj 39 285 loadbang;
#X obj 119 897 *~ 0.1;
#X obj 640 910 *~ 0.1;
#X obj 649 455 *~ 0.1;
#X obj 818 148 r death @hv_event;
#X obj 64 179 metro 140;
#X obj 142 177 r meternum @hv_param 100 200 140;
#X obj 831 42 r egg @hv_event;
#N canvas 529 166 612 482 SFX 0;
#X obj 165 249 dac~;
#N canvas 796 9 872 587 shd 0;
#X obj 169 512 outlet~;
#X obj 247 22 inlet;
#X obj 246 50 route bang float;
#X obj 171 464 syn2.ctl;
#X obj 161 341 * 329;
#X obj 266 232 line~;
#X obj 309 110 bng 15 250 50 0 empty empty empty 17 7 0 10 -262144
-1 -1;
#X obj 306 134 t b b;
#X obj 266 267 snapshot~;
#X obj 391 165 tgl 15 0 empty empty empty 17 7 0 10 -262144 -1 -1 0
1;
#X msg 453 247 0;
#X msg 392 129 1;
#X obj 134 246 f;
#X obj 205 169 f;
#X obj 248 168 f;
#X obj 202 204 pack f f;
#X msg 267 204 \$1 \$2;
#X obj 389 194 metro 10;
#X obj 368 268 t b b;
#X obj 303 305 moses;
#X obj 401 349 loadbang;
#X obj 398 381 bng 15 250 50 0 empty empty empty 17 7 0 10 -262144
-1 -1;
#X msg 313 414 2;
#X msg 348 415 3;
#X msg 387 416 5;
#X msg 429 415 1000;
#X obj 136 272 + 0.01;
#X msg 325 188 \$1 \$2;
#X obj 535 154 pack f 3;
#X obj 488 128 f;
#X obj 154 59 loadbang;
#X obj 152 92 bng 15 250 50 0 empty empty empty 17 7 0 10 -262144 -1
-1;
#X msg 214 121 250;
#X msg 161 121 1;
#X obj 536 103 + 2;
#X obj 538 44 random 100;
#X obj 538 74 / 25;
#X connect 1 0 2 0;
#X connect 2 0 6 0;
#X connect 2 1 4 1;
#X connect 3 0 0 0;
#X connect 4 0 3 0;
#X connect 5 0 8 0;
#X connect 6 0 7 0;
#X connect 6 0 11 0;
#X connect 7 0 13 0;
#X connect 7 1 14 0;
#X connect 7 1 35 0;
#X connect 8 0 19 0;
#X connect 8 0 4 0;
#X connect 9 0 17 0;
#X connect 10 0 9 0;
#X connect 11 0 9 0;
#X connect 12 0 26 0;
#X connect 13 0 15 0;
#X connect 14 0 15 1;
#X connect 15 0 16 0;
#X connect 16 0 5 0;
#X connect 17 0 8 0;
#X connect 18 0 29 0;
#X connect 18 1 10 0;
#X connect 19 0 18 0;
#X connect 20 0 21 0;
#X connect 21 0 22 0;
#X connect 21 0 23 0;
#X connect 21 0 24 0;
#X connect 21 0 25 0;
#X connect 22 0 3 1;
#X connect 23 0 3 2;
#X connect 24 0 3 3;
#X connect 25 0 3 4;
#X connect 26 0 19 1;
#X connect 27 0 5 0;
#X connect 28 0 27 0;
#X connect 29 0 28 0;
#X connect 30 0 31 0;
#X connect 31 0 33 0;
#X connect 31 0 32 0;
#X connect 32 0 14 1;
#X connect 33 0 12 0;
#X connect 33 0 13 1;
#X connect 34 0 28 0;
#X connect 34 0 29 1;
#X connect 35 0 36 0;
#X connect 36 0 34 0;
#X restore 64 141 pd shd;
#N canvas 264 105 1009 619 shd 0;
#X obj 95 375 nbx 5 14 0 1e+37 0 0 empty empty empty 0 -8 0 10 -262144
-1 -1 0 256;
#X obj 55 171 int;
#X obj 93 172 + 1;
#X obj 86 112 tgl 15 0 empty empty empty 17 7 0 10 -262144 -1 -1 0
1;
#X msg 177 120 0, f 2;
#X obj 177 519 outlet~;
#X obj 119 -1 inlet;
#X obj 118 27 route bang float;
#X obj 395 340 f;
#X obj 108 409 * 329;
#X obj 178 484 syn2.ctl;
#N canvas 0 50 450 300 pNoise 0;
#X obj 124 165 +;
#X obj 94 7 inlet;
#X obj 124 191 outlet;
#X obj 93 53 t b f;
#X obj 55 95 random 100;
#X obj 55 122 / 1000;
#X floatatom 94 31 5 0 0 0 - - -;
#X connect 0 0 2 0;
#X connect 1 0 6 0;
#X connect 3 0 4 0;
#X connect 3 1 0 1;
#X connect 4 0 5 0;
#X connect 5 0 0 0;
#X connect 6 0 3 0;
#X restore 22 456 pd pNoise;
#X obj 47 47 r iter;
#X obj 89 84 f;
#X msg 142 59 1;
#X obj 19 294 sel 0 1 2 3 4 5 6;
#X obj 125 195 moses 7;
#X msg 73 333 0.25;
#X msg 24 329 0.4;
#X obj 63 132 metro 140;
#X obj 55 197 mod 8;
#X msg 137 141 0;
#X obj 163 291 sel 0 1 2 3 4 5 6;
#X obj 207 173 random 2;
#X obj 43 260 f;
#X obj 112 224 f;
#X obj 146 225 sel 0 1;
#X obj 55 223 t f b;
#X obj 175 263 f;
#X msg 160 325 0.4;
#X msg 202 327 0.4;
#X msg 245 326 0.39;
#X msg 302 328 0.38;
#X obj 281 388 loadbang;
#X obj 276 416 bng 15 250 50 0 empty empty empty 17 7 0 10 -262144
-1 -1;
#X msg 347 446 1000;
#X msg 263 442 0;
#X msg 309 445 0;
#X msg 219 445 1;
#X text 265 62 ONLY GOOD FOR HIGH QUALITY SPEAKER;
#X connect 0 0 9 0;
#X connect 1 0 2 0;
#X connect 1 0 20 0;
#X connect 2 0 1 1;
#X connect 3 0 19 0;
#X connect 4 0 13 0;
#X connect 6 0 7 0;
#X connect 7 0 14 0;
#X connect 7 0 21 0;
#X connect 7 0 23 0;
#X connect 7 1 8 0;
#X connect 8 0 9 1;
#X connect 9 0 10 0;
#X connect 10 0 5 0;
#X connect 12 0 13 0;
#X connect 13 0 3 0;
#X connect 14 0 13 1;
#X connect 15 0 18 0;
#X connect 15 2 17 0;
#X connect 15 6 17 0;
#X connect 16 1 4 0;
#X connect 16 1 21 0;
#X connect 17 0 0 0;
#X connect 18 0 0 0;
#X connect 19 0 1 0;
#X connect 20 0 16 0;
#X connect 20 0 27 0;
#X connect 21 0 1 1;
#X connect 22 0 29 0;
#X connect 22 4 30 0;
#X connect 22 5 31 0;
#X connect 22 6 32 0;
#X connect 23 0 25 1;
#X connect 24 0 15 0;
#X connect 25 0 26 0;
#X connect 26 0 24 0;
#X connect 26 1 28 0;
#X connect 27 0 24 1;
#X connect 27 0 28 1;
#X connect 27 1 25 0;
#X connect 28 0 22 0;
#X connect 29 0 0 0;
#X connect 30 0 0 0;
#X connect 31 0 0 0;
#X connect 32 0 0 0;
#X connect 33 0 34 0;
#X connect 34 0 38 0;
#X connect 34 0 36 0;
#X connect 34 0 37 0;
#X connect 34 0 35 0;
#X connect 35 0 10 4;
#X connect 36 0 10 2;
#X connect 37 0 10 3;
#X connect 38 0 10 1;
#X restore 298 135 pd shd;
#X obj 123 21 inlet;
#X obj 33 66 inlet;
#N canvas 1030 5 509 594 shd 0;
#X obj 118 384 nbx 5 14 0 1e+37 0 0 empty empty empty 0 -8 0 10 -262144
-1 -1 0 256;
#X obj 61 174 int;
#X obj 102 172 + 1;
#X obj 65 118 tgl 15 0 empty empty empty 17 7 0 10 -262144 -1 -1 0
1;
#X msg 68 90 1;
#X msg 173 176 0;
#X obj 122 484 syn2.ctl;
#X obj 124 527 outlet~;
#X obj 127 32 inlet;
#X obj 126 60 route bang float;
#X obj 78 203 moses 5;
#X obj 60 269 sel 0 1 2 3 4;
#X msg 45 340 1;
#X msg 80 340 1.2;
#X msg 120 338 2;
#X msg 174 340 1.5;
#X obj 250 387 loadbang;
#X obj 118 419 * 329;
#X msg 212 451 114;
#X msg 254 450 278;
#X msg 173 450 -4;
#X msg 137 451 2;
#X obj 65 138 metro 60;
#X connect 0 0 17 0;
#X connect 1 0 2 0;
#X connect 1 0 10 0;
#X connect 2 0 1 1;
#X connect 3 0 22 0;
#X connect 4 0 3 0;
#X connect 5 0 3 0;
#X connect 5 0 1 1;
#X connect 6 0 7 0;
#X connect 8 0 9 0;
#X connect 9 0 4 0;
#X connect 9 1 17 1;
#X connect 10 0 11 0;
#X connect 10 1 5 0;
#X connect 11 0 12 0;
#X connect 11 1 13 0;
#X connect 11 2 14 0;
#X connect 11 3 15 0;
#X connect 12 0 0 0;
#X connect 13 0 0 0;
#X connect 14 0 0 0;
#X connect 15 0 0 0;
#X connect 16 0 21 0;
#X connect 16 0 20 0;
#X connect 16 0 18 0;
#X connect 16 0 19 0;
#X connect 17 0 6 0;
#X connect 18 0 6 3;
#X connect 19 0 6 4;
#X connect 20 0 6 2;
#X connect 21 0 6 1;
#X connect 22 0 1 0;
#X restore 175 135 pd shd;
#X obj 149 47 route damage egg death;
#X obj 127 84 bng 15 250 50 0 empty empty empty 17 7 0 10 -262144 -1
-1;
#X obj 191 89 bng 15 250 50 0 empty empty empty 17 7 0 10 -262144 -1
-1;
#X obj 285 101 bng 15 250 50 0 empty empty empty 17 7 0 10 -262144
-1 -1;
#X obj 65 174 *~ 0.01;
#X obj 179 182 *~ 0.01;
#X obj 291 180 *~ 0.1;
#X text 317 107 Not yet implemented;
#X obj 83 335 r damageVol @hv_param 0 0.5 0.061;
#X obj 246 279 r eggVol @hv_param 0 0.5 0.049;
#X connect 1 0 10 0;
#X connect 2 0 12 0;
#X connect 3 0 6 0;
#X connect 4 0 1 0;
#X connect 4 0 5 0;
#X connect 4 0 2 0;
#X connect 5 0 11 0;
#X connect 6 0 7 0;
#X connect 6 1 8 0;
#X connect 6 2 9 0;
#X connect 7 0 1 0;
#X connect 8 0 5 0;
#X connect 9 0 2 0;
#X connect 10 0 0 1;
#X connect 10 0 0 0;
#X connect 11 0 0 0;
#X connect 11 0 0 1;
#X connect 14 0 10 1;
#X connect 15 0 11 1;
#X restore 702 112 pd SFX;
#X obj 666 65 r bfreq;
#X obj 110 934 dac~;
#X obj 632 945 dac~;
#X obj 649 481 dac~;
#X obj 106 517 dac~;
#X obj 107 52 t b b b;
#X obj 204 103 del 1000;
#X text 406 35 GAME STATE EVENT HANDLING;
#X text 189 31 INITIALIZER;
#X text 291 382 AMBIENT HI REVERB VOICE;
#X text 881 327 BASS LINE;
#X text 809 350 ADD MORE SEQUENCES FOR LEVELS;
#X text 360 715 MELODIC VOICES WITH AUTOMATIC RHYTHM READJUSTMENT;
#X msg 738 68 damage;
#X msg 833 72 egg;
#X obj 704 454 r bassVol @hv_param 0 1 0.1;
#X obj 182 902 r melody1Vol @hv_param 0 1 0.1;
#X obj 697 914 r melody2Vol @hv_param 0 1 0.1;
#X obj 230 441 s spawncloud @hv_param;
#X obj 175 489 r reverbVol @hv_param 0 1 0.319;
#X obj 106 491 *~ 0.319;
#X connect 0 0 89 0;
#X connect 2 0 1 0;
#X connect 6 0 13 0;
#X connect 7 0 13 0;
#X connect 8 0 13 0;
#X connect 9 0 13 0;
#X connect 10 0 13 0;
#X connect 11 0 13 0;
#X connect 12 0 13 0;
#X connect 16 0 41 0;
#X connect 17 0 41 0;
#X connect 18 0 41 0;
#X connect 19 0 41 0;
#X connect 20 0 41 0;
#X connect 21 0 41 0;
#X connect 22 0 41 0;
#X connect 24 0 25 0;
#X connect 25 0 85 0;
#X connect 25 1 73 0;
#X connect 26 0 25 2;
#X connect 29 0 78 0;
#X connect 30 0 78 0;
#X connect 31 0 78 0;
#X connect 32 0 78 0;
#X connect 33 0 78 0;
#X connect 34 0 78 0;
#X connect 35 0 78 0;
#X connect 37 0 87 0;
#X connect 38 0 37 0;
#X connect 39 0 38 0;
#X connect 40 0 38 1;
#X connect 40 1 49 0;
#X connect 43 0 44 0;
#X connect 43 0 46 0;
#X connect 45 0 46 1;
#X connect 46 0 113 0;
#X connect 46 1 111 0;
#X connect 47 0 46 2;
#X connect 48 0 25 1;
#X connect 49 0 38 0;
#X connect 49 0 37 1;
#X connect 50 0 41 0;
#X connect 51 0 74 0;
#X connect 52 0 74 0;
#X connect 53 0 74 0;
#X connect 54 0 98 0;
#X connect 57 0 75 0;
#X connect 58 0 75 0;
#X connect 59 0 75 0;
#X connect 60 0 75 0;
#X connect 61 0 75 0;
#X connect 62 0 75 0;
#X connect 63 0 75 0;
#X connect 65 0 66 0;
#X connect 66 0 86 0;
#X connect 66 1 72 0;
#X connect 67 0 66 1;
#X connect 68 0 75 0;
#X connect 69 0 74 0;
#X connect 70 0 74 0;
#X connect 71 0 74 0;
#X connect 76 0 66 2;
#X connect 77 0 37 2;
#X connect 79 0 52 0;
#X connect 80 0 106 0;
#X connect 81 0 51 0;
#X connect 82 0 43 0;
#X connect 83 0 43 0;
#X connect 84 0 83 0;
#X connect 85 0 94 0;
#X connect 86 0 95 1;
#X connect 87 0 96 0;
#X connect 87 0 96 1;
#X connect 88 0 71 0;
#X connect 89 0 3 0;
#X connect 90 0 89 1;
#X connect 91 0 107 0;
#X connect 93 0 92 0;
#X connect 98 0 99 0;
#X connect 98 1 0 0;
#X connect 98 2 2 0;
#X connect 99 0 51 0;
#X connect 106 0 92 1;
#X connect 107 0 92 1;
#X connect 108 0 87 1;
#X connect 109 0 85 1;
#X connect 110 0 86 1;
#X connect 112 0 113 1;
#X connect 113 0 97 0;
#X connect 113 0 97 1;
