#N canvas 458 78 1297 748 12;
#X obj 106 138 tgl 15 0 empty empty empty 17 7 0 10 -262144 -1 -1 0
1;
#X msg 11 79 \; pd dsp \$1;
#X obj 12 51 tgl 15 0 empty empty empty 17 7 0 10 -258113 -1 -1 1 1
;
#X obj 101 206 s iter;
#X obj 21 272 cnv 15 500 400 empty empty empty 20 12 0 14 -204800 -66577
0;
#X obj 284 419 vsl 15 50 1 100 1 1 empty empty dry -1 -9 0 10 -262144
-1 -1 3300 1;
#X obj 315 419 vsl 15 50 80 100 1 1 empty empty wet -1 -9 0 10 -262144
-1 -1 4400 1;
#X obj 357 420 vsl 15 50 80 100 1 1 empty empty feedback -17 -9 0 10
-262144 -1 -1 4400 1;
#X obj 403 420 vsl 15 50 1 100 1 1 empty empty damp -5 -9 0 10 -262144
-1 -1 2100 1;
#X obj 446 420 vsl 15 50 1 100 1 1 empty empty lowcut -11 -9 0 10 -262144
-1 -1 2900 1;
#X obj 292 484 bng 15 250 50 0 empty empty empty 17 7 0 10 -262144
-1 -1;
#X obj 310 507 cnv 15 70 30 empty empty empty 20 12 0 14 -204786 -66577
0;
#X obj 385 509 s rev1;
#X obj 218 629 cnv 15 70 30 empty empty empty 20 12 0 14 -204786 -66577
0;
#X msg 100 588 pythag;
#X msg 57 587 bare;
#X msg 158 588 pent;
#X msg 203 588 slendro;
#X msg 266 588 harrison;
#X msg 336 587 justdiatonic;
#X msg 436 586 major;
#X obj 222 634 s scale1;
#X obj 20 688 cnv 15 500 400 empty empty empty 20 12 0 14 -204800 -66577
0;
#X obj 300 833 vsl 15 50 1 100 1 1 empty empty dry -1 -9 0 10 -262144
-1 -1 2300 1;
#X obj 331 833 vsl 15 50 1 100 1 1 empty empty wet -1 -9 0 10 -262144
-1 -1 4600 1;
#X obj 373 834 vsl 15 50 80 100 1 1 empty empty feedback -17 -9 0 10
-262144 -1 -1 4700 1;
#X obj 419 834 vsl 15 50 1 100 1 1 empty empty damp -5 -9 0 10 -262144
-1 -1 3900 1;
#X obj 462 834 vsl 15 50 1 100 1 1 empty empty lowcut -11 -9 0 10 -262144
-1 -1 1700 1;
#X obj 336 895 pack f f f f f;
#X obj 308 898 bng 15 250 50 0 empty empty empty 17 7 0 10 -262144
-1 -1;
#X obj 326 921 cnv 15 70 30 empty empty empty 20 12 0 14 -204786 -66577
0;
#X obj 229 1037 cnv 15 70 30 empty empty empty 20 12 0 14 -204786 -66577
0;
#X msg 133 991 pythag;
#X msg 90 990 bare;
#X msg 191 991 pent;
#X msg 236 991 slendro;
#X msg 299 991 harrison;
#X msg 369 990 justdiatonic;
#X msg 469 989 major;
#X obj 168 822 cnv 15 70 30 empty empty empty 20 12 0 14 -204786 -66577
0;
#X obj 118 772 r bfreq;
#N canvas 0 23 530 548 voice 0;
#X obj 63 58 inlet;
#X obj 117 55 inlet;
#X obj 207 44 inlet;
#N canvas 417 23 721 485 tuningsys 0;
#X obj 270 34 inlet;
#X obj 48 46 inlet;
#X obj 17 221 f;
#X msg 247 99 0;
#X msg 290 97 1;
#X msg 336 100 2;
#X msg 380 101 3;
#X obj 276 145 int;
#N canvas 366 38 719 482 pent 0;
#X obj 79 9 inlet;
#X obj 100 283 outlet;
#X obj 71 65 t f b;
#X obj 34 149 f;
#X msg 126 148 0.8;
#X msg 166 149 0.9;
#X msg 201 151 1;
#X obj 99 221 *;
#X msg 236 150 1.2;
#X msg 272 151 1.3333;
#X msg 342 153 1.6;
#X obj 151 110 sel 0 1 2 3 4 5;
#X obj 152 86 random 6;
#X connect 0 0 2 0;
#X connect 2 0 3 0;
#X connect 2 1 12 0;
#X connect 3 0 7 0;
#X connect 4 0 7 1;
#X connect 5 0 7 1;
#X connect 6 0 7 1;
#X connect 7 0 1 0;
#X connect 8 0 7 1;
#X connect 9 0 7 1;
#X connect 10 0 7 1;
#X connect 11 0 4 0;
#X connect 11 1 5 0;
#X connect 11 2 6 0;
#X connect 11 3 8 0;
#X connect 11 4 9 0;
#X connect 11 5 10 0;
#X connect 12 0 11 0;
#X restore 154 262 pd pent;
#N canvas 734 25 450 300 pythag 0;
#X obj 31 68 t f b;
#X obj 37 12 inlet;
#X msg 69 146 1;
#X msg 105 148 1.18519;
#X msg 174 152 1.33333;
#X msg 241 150 1.5;
#X msg 270 149 1.77778;
#X msg 339 149 2;
#X obj 44 217 *;
#X obj 31 92 f;
#X obj 44 241 outlet;
#X obj 152 86 random 6;
#X obj 151 110 sel 0 1 2 3 4 5;
#X connect 0 0 9 0;
#X connect 0 1 11 0;
#X connect 1 0 0 0;
#X connect 2 0 8 1;
#X connect 3 0 8 1;
#X connect 4 0 8 1;
#X connect 5 0 8 1;
#X connect 6 0 8 1;
#X connect 7 0 8 1;
#X connect 8 0 10 0;
#X connect 9 0 8 0;
#X connect 11 0 12 0;
#X connect 12 0 2 0;
#X connect 12 1 3 0;
#X connect 12 2 4 0;
#X connect 12 3 5 0;
#X connect 12 4 6 0;
#X connect 12 5 7 0;
#X restore 78 263 pd pythag;
#N canvas 0 23 450 300 slendro 0;
#X obj 31 68 t f b;
#X obj 37 12 inlet;
#X msg 69 146 1;
#X msg 236 149 1.5;
#X msg 327 151 2;
#X obj 44 189 *;
#X obj 31 92 f;
#X obj 43 262 outlet;
#X obj 152 86 random 6;
#X obj 151 110 sel 0 1 2 3 4 5;
#X msg 105 148 1.1875;
#X msg 168 147 1.3125;
#X msg 279 149 1.75;
#X obj 160 194 random 2;
#X obj 160 218 sel 0;
#X obj 44 213 + 0;
#X msg 197 244 0;
#X msg 139 245 0.5;
#X connect 0 0 6 0;
#X connect 0 1 8 0;
#X connect 0 1 13 0;
#X connect 1 0 0 0;
#X connect 2 0 5 1;
#X connect 3 0 5 1;
#X connect 4 0 5 1;
#X connect 5 0 15 0;
#X connect 6 0 5 0;
#X connect 8 0 9 0;
#X connect 9 0 2 0;
#X connect 9 1 10 0;
#X connect 9 2 11 0;
#X connect 9 3 3 0;
#X connect 9 4 12 0;
#X connect 9 5 4 0;
#X connect 10 0 5 1;
#X connect 11 0 5 1;
#X connect 12 0 5 1;
#X connect 13 0 14 0;
#X connect 14 0 17 0;
#X connect 14 1 16 0;
#X connect 15 0 7 0;
#X connect 16 0 15 1;
#X connect 17 0 15 1;
#X restore 219 265 pd slendro;
#N canvas 0 23 450 300 harrison 0;
#X obj 31 68 t f b;
#X obj 37 12 inlet;
#X msg 69 146 1;
#X msg 189 150 1.33333;
#X msg 254 151 1.5;
#X msg 373 153 2;
#X obj 44 217 *;
#X obj 31 92 f;
#X obj 44 241 outlet;
#X obj 152 86 random 6;
#X obj 151 110 sel 0 1 2 3 4 5;
#X msg 105 148 1.14286;
#X msg 289 151 1.71429;
#X connect 0 0 7 0;
#X connect 0 1 9 0;
#X connect 1 0 0 0;
#X connect 2 0 6 1;
#X connect 3 0 6 1;
#X connect 4 0 6 1;
#X connect 5 0 6 1;
#X connect 6 0 8 0;
#X connect 7 0 6 0;
#X connect 9 0 10 0;
#X connect 10 0 2 0;
#X connect 10 1 11 0;
#X connect 10 2 3 0;
#X connect 10 3 4 0;
#X connect 10 4 12 0;
#X connect 10 5 5 0;
#X connect 11 0 6 1;
#X connect 12 0 6 1;
#X restore 315 268 pd harrison;
#X msg 435 102 4;
#X obj 86 223 f;
#X obj 140 227 f;
#X obj 178 226 f;
#X obj 220 227 f;
#N canvas 0 23 619 340 justdiatonic 0;
#X obj 31 68 t f b;
#X obj 37 12 inlet;
#X msg 69 146 1;
#X obj 44 217 *;
#X obj 31 92 f;
#X obj 44 241 outlet;
#X msg 105 147 1.125;
#X msg 159 148 1.2;
#X msg 197 148 1.33333;
#X msg 281 153 1.5;
#X obj 151 110 sel 0 1 2 3 4 5 6 7;
#X msg 321 152 1.66667;
#X msg 412 152 1.875;
#X msg 463 151 2;
#X obj 152 85 random 8;
#X connect 0 0 4 0;
#X connect 0 1 14 0;
#X connect 1 0 0 0;
#X connect 2 0 3 1;
#X connect 3 0 5 0;
#X connect 4 0 3 0;
#X connect 6 0 3 1;
#X connect 7 0 3 1;
#X connect 8 0 3 1;
#X connect 9 0 3 1;
#X connect 10 0 2 0;
#X connect 10 1 6 0;
#X connect 10 2 7 0;
#X connect 10 3 8 0;
#X connect 10 4 9 0;
#X connect 10 5 11 0;
#X connect 10 6 12 0;
#X connect 10 7 13 0;
#X connect 11 0 3 1;
#X connect 14 0 10 0;
#X restore 435 268 pd justdiatonic;
#X obj 261 227 f;
#X msg 501 100 5;
#N canvas 248 23 719 482 major 0;
#X obj 79 9 inlet;
#X obj 71 65 t f b;
#X msg 126 148 0;
#X obj 152 86 random 8;
#X obj 151 110 sel 0 1 2 3 4 5 6 7;
#X obj 99 221 +;
#X obj 99 245 mtof;
#X obj 100 283 outlet;
#X obj 34 149 f;
#X msg 388 149 12;
#X obj 79 33 ftom;
#X msg 166 149 2;
#X msg 201 151 4;
#X msg 236 150 5;
#X msg 272 151 7;
#X msg 313 150 9;
#X msg 350 149 11;
#X connect 0 0 10 0;
#X connect 1 0 8 0;
#X connect 1 1 3 0;
#X connect 2 0 5 1;
#X connect 3 0 4 0;
#X connect 4 0 2 0;
#X connect 4 1 11 0;
#X connect 4 2 12 0;
#X connect 4 3 13 0;
#X connect 4 4 14 0;
#X connect 4 5 15 0;
#X connect 4 6 16 0;
#X connect 4 7 9 0;
#X connect 5 0 6 0;
#X connect 6 0 7 0;
#X connect 8 0 5 0;
#X connect 9 0 5 1;
#X connect 10 0 1 0;
#X connect 11 0 5 1;
#X connect 12 0 5 1;
#X connect 13 0 5 1;
#X connect 14 0 5 1;
#X connect 15 0 5 1;
#X connect 16 0 5 1;
#X restore 557 269 pd major;
#X obj 313 228 f;
#X msg 546 109 6;
#X obj 598 110 print Not Found;
#X obj 131 352 outlet;
#X obj 111 21 inlet;
#X obj 326 31 print oscvoice #2;
#X obj 267 60 route bare pythag pent slendro harrison justdiatonic
major 9TET, f 63;
#X msg 589 145 7;
#X obj 289 184 sel 0 1 2 3 4 5 6 7;
#X obj 355 225 f;
#N canvas 0 23 450 300 9tet 0;
#X obj 79 9 inlet;
#X obj 100 283 outlet;
#X obj 71 65 t f b;
#X obj 34 149 f;
#X obj 99 221 *;
#X obj 152 86 random 9;
#X msg 82 128 1.08;
#X msg 97 155 1.16667;
#X msg 129 180 1.26;
#X msg 164 198 1.36111;
#X msg 219 218 1.46939;
#X msg 288 244 1.5873;
#X msg 317 219 1.71429;
#X msg 344 194 1.85185;
#X msg 383 170 2;
#X obj 151 110 sel 0 1 2 3 4 5 6 7 8;
#X connect 0 0 2 0;
#X connect 2 0 3 0;
#X connect 2 1 5 0;
#X connect 3 0 4 0;
#X connect 4 0 1 0;
#X connect 5 0 15 0;
#X connect 6 0 4 1;
#X connect 7 0 4 1;
#X connect 8 0 4 1;
#X connect 9 0 4 1;
#X connect 10 0 4 1;
#X connect 11 0 4 1;
#X connect 12 0 4 1;
#X connect 14 0 4 1;
#X connect 15 0 6 0;
#X connect 15 1 7 0;
#X connect 15 2 8 0;
#X connect 15 3 9 0;
#X connect 15 4 10 0;
#X connect 15 5 11 0;
#X connect 15 6 12 0;
#X connect 15 7 13 0;
#X connect 15 8 14 0;
#X restore 627 268 pd 9tet;
#X connect 0 0 26 0;
#X connect 0 0 27 0;
#X connect 1 0 2 1;
#X connect 1 0 13 1;
#X connect 1 0 14 1;
#X connect 1 0 15 1;
#X connect 1 0 16 1;
#X connect 1 0 18 1;
#X connect 1 0 21 1;
#X connect 1 0 30 1;
#X connect 2 0 24 0;
#X connect 3 0 7 1;
#X connect 4 0 7 1;
#X connect 5 0 7 1;
#X connect 6 0 7 1;
#X connect 7 0 29 0;
#X connect 8 0 24 0;
#X connect 9 0 24 0;
#X connect 10 0 24 0;
#X connect 11 0 24 0;
#X connect 12 0 7 1;
#X connect 13 0 9 0;
#X connect 14 0 8 0;
#X connect 15 0 10 0;
#X connect 16 0 11 0;
#X connect 17 0 24 0;
#X connect 18 0 17 0;
#X connect 19 0 7 1;
#X connect 20 0 24 0;
#X connect 21 0 20 0;
#X connect 22 0 7 1;
#X connect 25 0 7 0;
#X connect 27 0 3 0;
#X connect 27 1 4 0;
#X connect 27 2 5 0;
#X connect 27 3 6 0;
#X connect 27 4 12 0;
#X connect 27 5 19 0;
#X connect 27 6 22 0;
#X connect 27 7 28 0;
#X connect 27 8 23 0;
#X connect 28 0 7 1;
#X connect 29 0 2 0;
#X connect 29 1 13 0;
#X connect 29 2 14 0;
#X connect 29 3 15 0;
#X connect 29 4 16 0;
#X connect 29 5 18 0;
#X connect 29 6 21 0;
#X connect 29 7 30 0;
#X connect 30 0 31 0;
#X connect 31 0 24 0;
#X restore 76 108 pd tuningsys;
#X obj 75 345 outlet~;
#X obj 290 212 outlet;
#X obj 251 188 bng 15 250 50 0 empty empty empty 17 7 0 10 -262144
-1 -1;
#N canvas 298 243 593 303 randasdr 0;
#X obj 61 27 inlet;
#X obj 117 167 pack 40 70 160;
#X obj 117 191 outlet;
#X obj 241 111 + 100;
#X obj 29 114 + 10;
#X obj 26 91 random 50;
#X obj 241 87 random 200;
#X obj 126 110 + 200;
#X obj 126 86 random 200;
#X connect 0 0 5 0;
#X connect 0 0 6 0;
#X connect 0 0 8 0;
#X connect 1 0 2 0;
#X connect 3 0 1 2;
#X connect 4 0 1 0;
#X connect 5 0 4 0;
#X connect 6 0 3 0;
#X connect 7 0 1 1;
#X connect 8 0 7 0;
#X restore 211 129 pd randasdr;
#X obj 196 333 del 10000;
#X obj 198 296 r initVol;
#N canvas 272 371 450 300 init 0;
#X obj 63 126 line~;
#X obj 63 152 snapshot~;
#X obj 132 123 metro 1;
#X obj 140 92 tgl 15 0 empty empty empty 17 7 0 10 -262144 -1 -1 0
1;
#X obj 64 7 inlet;
#X obj 63 178 outlet;
#X msg 63 99 1.3 10000;
#X obj 134 58 del 10000;
#X connect 0 0 1 0;
#X connect 1 0 5 0;
#X connect 2 0 1 0;
#X connect 3 0 2 0;
#X connect 4 0 3 0;
#X connect 4 0 6 0;
#X connect 4 0 7 0;
#X connect 6 0 0 0;
#X connect 7 0 3 0;
#X restore 189 366 pd init;
#X obj 76 292 *~ 0;
#X obj 110 250 r vol2;
#N canvas 591 313 1096 672 keys 0;
#X obj 150 150 bng 15 250 50 0 empty empty empty 17 7 0 10 -262144
-1 -1;
#X msg 37 94 next \$1;
#X obj 38 169 outlet~;
#X obj 37 14 inlet;
#X msg 150 90 all \$1;
#N canvas 0 23 450 300 vary 0;
#X obj 121 4 noise~;
#X obj 243 14 tgl 15 0 empty empty empty 17 7 0 10 -262144 -1 -1 1
1;
#X obj 154 69 snapshot~;
#X obj 278 8 loadbang;
#X obj 243 34 metro 1;
#X obj 167 37 +~ 1;
#X obj 154 93 outlet;
#X connect 0 0 5 0;
#X connect 0 0 2 0;
#X connect 1 0 4 0;
#X connect 2 0 6 0;
#X connect 3 0 1 0;
#X connect 4 0 2 0;
#X restore 98 16 pd vary;
#X obj 37 60 +;
#X msg 164 21 0;
#X msg 201 23 100;
#X obj 91 58 * 0;
#X msg 215 87 all \$1;
#X msg 278 90 all \$1;
#X obj 243 35 inlet;
#X obj 204 62 unpack f f f;
#X obj 34 124 clone syn.ctl 50;
#X connect 1 0 14 0;
#X connect 3 0 6 0;
#X connect 4 0 14 1;
#X connect 5 0 9 0;
#X connect 6 0 1 0;
#X connect 7 0 9 1;
#X connect 8 0 9 1;
#X connect 9 0 6 1;
#X connect 10 0 14 2;
#X connect 11 0 14 3;
#X connect 12 0 13 0;
#X connect 13 0 4 0;
#X connect 13 1 10 0;
#X connect 13 2 11 0;
#X connect 14 0 2 0;
#X connect 14 1 0 0;
#X restore 138 183 pd keys;
#X connect 0 0 3 0;
#X connect 1 0 3 1;
#X connect 1 0 7 0;
#X connect 2 0 3 2;
#X connect 3 0 6 0;
#X connect 3 0 13 0;
#X connect 6 0 5 0;
#X connect 7 0 13 1;
#X connect 8 0 10 0;
#X connect 9 0 8 0;
#X connect 10 0 11 1;
#X connect 11 0 4 0;
#X connect 12 0 11 1;
#X connect 13 0 11 0;
#X restore 119 852 pd voice;
#X obj 172 826 r scale2;
#X obj 542 272 cnv 15 500 400 empty empty empty 20 12 0 14 -204800
-66577 0;
#X obj 823 420 vsl 15 50 1 100 1 1 empty empty dry -1 -9 0 10 -262144
-1 -1 1900 1;
#X obj 854 420 vsl 15 50 1 100 1 1 empty empty wet -1 -9 0 10 -262144
-1 -1 3600 1;
#X obj 896 421 vsl 15 50 1 100 1 1 empty empty feedback -17 -9 0 10
-262144 -1 -1 3100 1;
#X obj 942 421 vsl 15 50 1 100 1 1 empty empty damp -5 -9 0 10 -262144
-1 -1 4000 1;
#X obj 985 421 vsl 15 50 1 100 1 1 empty empty lowcut -11 -9 0 10 -262144
-1 -1 1600 1;
#X obj 859 482 pack f f f f f;
#X obj 831 485 bng 15 250 50 0 empty empty empty 17 7 0 10 -262144
-1 -1;
#X obj 849 508 cnv 15 70 30 empty empty empty 20 12 0 14 -204786 -66577
0;
#X obj 737 605 cnv 15 70 30 empty empty empty 20 12 0 14 -204786 -66577
0;
#X msg 619 564 pythag;
#X msg 576 563 bare;
#X msg 677 564 pent;
#X msg 722 564 slendro;
#X msg 785 564 harrison;
#X msg 855 563 justdiatonic;
#X msg 955 562 major;
#X obj 700 385 cnv 15 70 30 empty empty empty 20 12 0 14 -204786 -66577
0;
#X obj 513 681 dac~;
#N canvas 59 23 432 390 voice 0;
#X obj 63 58 inlet;
#X obj 117 55 inlet;
#X obj 207 44 inlet;
#N canvas 417 23 721 485 tuningsys 0;
#X obj 270 34 inlet;
#X obj 48 46 inlet;
#X obj 78 217 f;
#X msg 247 99 0;
#X msg 290 97 1;
#X msg 336 100 2;
#X msg 380 101 3;
#X obj 276 145 int;
#N canvas 366 38 719 482 pent 0;
#X obj 79 9 inlet;
#X obj 71 65 t f b;
#X obj 100 283 outlet;
#X obj 34 149 f;
#X msg 126 148 0.8;
#X msg 166 149 0.9;
#X msg 201 151 1;
#X obj 99 221 *;
#X msg 236 150 1.2;
#X msg 272 151 1.3333;
#X msg 342 153 1.6;
#X obj 151 110 sel 0 1 2 3 4 5;
#X obj 152 86 random 6;
#X connect 0 0 1 0;
#X connect 1 0 3 0;
#X connect 1 1 12 0;
#X connect 3 0 7 0;
#X connect 4 0 7 1;
#X connect 5 0 7 1;
#X connect 6 0 7 1;
#X connect 7 0 2 0;
#X connect 8 0 7 1;
#X connect 9 0 7 1;
#X connect 10 0 7 1;
#X connect 11 0 4 0;
#X connect 11 1 5 0;
#X connect 11 2 6 0;
#X connect 11 3 8 0;
#X connect 11 4 9 0;
#X connect 11 5 10 0;
#X connect 12 0 11 0;
#X restore 219 259 pd pent;
#N canvas 734 25 450 300 pythag 0;
#X obj 31 68 t f b;
#X obj 37 12 inlet;
#X msg 69 146 1;
#X msg 105 148 1.18519;
#X msg 174 152 1.33333;
#X msg 241 150 1.5;
#X msg 270 149 1.77778;
#X msg 339 149 2;
#X obj 44 217 *;
#X obj 31 92 f;
#X obj 44 241 outlet;
#X obj 152 86 random 6;
#X obj 151 110 sel 0 1 2 3 4 5;
#X connect 0 0 9 0;
#X connect 0 1 11 0;
#X connect 1 0 0 0;
#X connect 2 0 8 1;
#X connect 3 0 8 1;
#X connect 4 0 8 1;
#X connect 5 0 8 1;
#X connect 6 0 8 1;
#X connect 7 0 8 1;
#X connect 8 0 10 0;
#X connect 9 0 8 0;
#X connect 11 0 12 0;
#X connect 12 0 2 0;
#X connect 12 1 3 0;
#X connect 12 2 4 0;
#X connect 12 3 5 0;
#X connect 12 4 6 0;
#X connect 12 5 7 0;
#X restore 143 260 pd pythag;
#N canvas 0 23 450 300 slendro 0;
#X obj 31 68 t f b;
#X obj 37 12 inlet;
#X msg 69 146 1;
#X msg 236 149 1.5;
#X msg 327 151 2;
#X obj 44 217 *;
#X obj 31 92 f;
#X obj 44 241 outlet;
#X obj 152 86 random 6;
#X obj 151 110 sel 0 1 2 3 4 5;
#X msg 105 148 1.1875;
#X msg 168 147 1.3125;
#X msg 279 149 1.75;
#X connect 0 0 6 0;
#X connect 0 1 8 0;
#X connect 1 0 0 0;
#X connect 2 0 5 1;
#X connect 3 0 5 1;
#X connect 4 0 5 1;
#X connect 5 0 7 0;
#X connect 6 0 5 0;
#X connect 8 0 9 0;
#X connect 9 0 2 0;
#X connect 9 1 10 0;
#X connect 9 2 11 0;
#X connect 9 3 3 0;
#X connect 9 4 12 0;
#X connect 9 5 4 0;
#X connect 10 0 5 1;
#X connect 11 0 5 1;
#X connect 12 0 5 1;
#X restore 284 262 pd slendro;
#N canvas 0 23 450 300 harrison 0;
#X obj 31 68 t f b;
#X obj 37 12 inlet;
#X msg 69 146 1;
#X msg 189 150 1.33333;
#X msg 254 151 1.5;
#X msg 373 153 2;
#X obj 44 217 *;
#X obj 31 92 f;
#X obj 44 241 outlet;
#X obj 152 86 random 6;
#X obj 151 110 sel 0 1 2 3 4 5;
#X msg 105 148 1.14286;
#X msg 289 151 1.71429;
#X connect 0 0 7 0;
#X connect 0 1 9 0;
#X connect 1 0 0 0;
#X connect 2 0 6 1;
#X connect 3 0 6 1;
#X connect 4 0 6 1;
#X connect 5 0 6 1;
#X connect 6 0 8 0;
#X connect 7 0 6 0;
#X connect 9 0 10 0;
#X connect 10 0 2 0;
#X connect 10 1 11 0;
#X connect 10 2 3 0;
#X connect 10 3 4 0;
#X connect 10 4 12 0;
#X connect 10 5 5 0;
#X connect 11 0 6 1;
#X connect 12 0 6 1;
#X restore 380 265 pd harrison;
#X msg 435 102 4;
#X obj 147 219 f;
#X obj 201 223 f;
#X obj 239 222 f;
#X obj 281 223 f;
#N canvas 0 23 619 340 justdiatonic 0;
#X obj 31 68 t f b;
#X obj 37 12 inlet;
#X msg 69 146 1;
#X obj 44 217 *;
#X obj 31 92 f;
#X obj 44 241 outlet;
#X msg 105 147 1.125;
#X msg 159 148 1.2;
#X msg 197 148 1.33333;
#X msg 281 153 1.5;
#X obj 151 110 sel 0 1 2 3 4 5 6 7;
#X msg 321 152 1.66667;
#X msg 412 152 1.875;
#X msg 463 151 2;
#X obj 152 85 random 8;
#X connect 0 0 4 0;
#X connect 0 1 14 0;
#X connect 1 0 0 0;
#X connect 2 0 3 1;
#X connect 3 0 5 0;
#X connect 4 0 3 0;
#X connect 6 0 3 1;
#X connect 7 0 3 1;
#X connect 8 0 3 1;
#X connect 9 0 3 1;
#X connect 10 0 2 0;
#X connect 10 1 6 0;
#X connect 10 2 7 0;
#X connect 10 3 8 0;
#X connect 10 4 9 0;
#X connect 10 5 11 0;
#X connect 10 6 12 0;
#X connect 10 7 13 0;
#X connect 11 0 3 1;
#X connect 14 0 10 0;
#X restore 500 265 pd justdiatonic;
#X obj 322 223 f;
#X msg 501 100 5;
#N canvas 248 23 719 482 major 0;
#X obj 79 9 inlet;
#X obj 71 65 t f b;
#X msg 126 148 0;
#X obj 152 86 random 8;
#X obj 151 110 sel 0 1 2 3 4 5 6 7;
#X obj 99 221 +;
#X obj 99 245 mtof;
#X obj 100 283 outlet;
#X obj 34 149 f;
#X msg 388 149 12;
#X obj 79 33 ftom;
#X msg 166 149 2;
#X msg 201 151 4;
#X msg 236 150 5;
#X msg 272 151 7;
#X msg 313 150 9;
#X msg 350 149 11;
#X connect 0 0 10 0;
#X connect 1 0 8 0;
#X connect 1 1 3 0;
#X connect 2 0 5 1;
#X connect 3 0 4 0;
#X connect 4 0 2 0;
#X connect 4 1 11 0;
#X connect 4 2 12 0;
#X connect 4 3 13 0;
#X connect 4 4 14 0;
#X connect 4 5 15 0;
#X connect 4 6 16 0;
#X connect 4 7 9 0;
#X connect 5 0 6 0;
#X connect 6 0 7 0;
#X connect 8 0 5 0;
#X connect 9 0 5 1;
#X connect 10 0 1 0;
#X connect 11 0 5 1;
#X connect 12 0 5 1;
#X connect 13 0 5 1;
#X connect 14 0 5 1;
#X connect 15 0 5 1;
#X connect 16 0 5 1;
#X restore 622 266 pd major;
#X obj 374 224 f;
#X msg 546 109 6;
#X obj 267 60 route bare pythag pent slendro harrison justdiatonic
major;
#X obj 289 184 sel 0 1 2 3 4 5 6;
#X obj 598 110 print Not Found;
#X obj 181 336 outlet;
#X obj 147 33 inlet;
#X obj 326 31 print oscvoice #4;
#X connect 0 0 23 0;
#X connect 0 0 28 0;
#X connect 1 0 2 1;
#X connect 1 0 13 1;
#X connect 1 0 14 1;
#X connect 1 0 15 1;
#X connect 1 0 16 1;
#X connect 1 0 18 1;
#X connect 1 0 21 1;
#X connect 2 0 26 0;
#X connect 3 0 7 1;
#X connect 4 0 7 1;
#X connect 5 0 7 1;
#X connect 6 0 7 1;
#X connect 7 0 24 0;
#X connect 8 0 26 0;
#X connect 9 0 26 0;
#X connect 10 0 26 0;
#X connect 11 0 26 0;
#X connect 12 0 7 1;
#X connect 13 0 9 0;
#X connect 14 0 8 0;
#X connect 15 0 10 0;
#X connect 16 0 11 0;
#X connect 17 0 26 0;
#X connect 18 0 17 0;
#X connect 19 0 7 1;
#X connect 20 0 26 0;
#X connect 21 0 20 0;
#X connect 22 0 7 1;
#X connect 23 0 3 0;
#X connect 23 1 4 0;
#X connect 23 2 5 0;
#X connect 23 3 6 0;
#X connect 23 4 12 0;
#X connect 23 5 19 0;
#X connect 23 6 22 0;
#X connect 23 7 25 0;
#X connect 24 0 2 0;
#X connect 24 1 13 0;
#X connect 24 2 14 0;
#X connect 24 3 15 0;
#X connect 24 4 16 0;
#X connect 24 5 18 0;
#X connect 24 6 21 0;
#X connect 27 0 7 0;
#X restore 76 108 pd tuningsys;
#X obj 113 349 outlet~;
#X obj 343 160 outlet;
#X obj 269 67 loadbang;
#X obj 289 90 bng 15 250 50 0 empty empty empty 17 7 0 10 -262144 -1
-1;
#X obj 197 180 pack 50 1000 2000;
#X msg 179 118 50;
#X msg 221 122 1000;
#X msg 276 120 2000;
#N canvas 313 114 450 300 initV4 0;
#X obj 63 126 line~;
#X obj 63 152 snapshot~;
#X obj 132 123 metro 1;
#X obj 140 92 tgl 15 0 empty empty empty 17 7 0 10 -262144 -1 -1 0
1;
#X obj 64 7 inlet;
#X obj 63 178 outlet;
#X obj 133 59 del 10000;
#X msg 63 99 1 10000;
#X connect 0 0 1 0;
#X connect 1 0 5 0;
#X connect 2 0 1 0;
#X connect 3 0 2 0;
#X connect 4 0 3 0;
#X connect 4 0 7 0;
#X connect 4 0 6 0;
#X connect 6 0 3 0;
#X connect 7 0 0 0;
#X restore 186 328 pd initV4;
#X obj 188 297 del 10000;
#X obj 188 266 r initVol;
#X obj 110 271 *~ 0;
#X obj 148 237 r vol4;
#N canvas 591 313 1096 672 keys 0;
#X obj 150 150 bng 15 250 50 0 empty empty empty 17 7 0 10 -262144
-1 -1;
#X msg 37 94 next \$1;
#X obj 38 169 outlet~;
#X obj 37 14 inlet;
#X msg 150 90 all \$1;
#N canvas 0 23 450 300 vary 0;
#X obj 121 4 noise~;
#X obj 243 14 tgl 15 0 empty empty empty 17 7 0 10 -262144 -1 -1 1
1;
#X obj 154 69 snapshot~;
#X obj 278 8 loadbang;
#X obj 243 34 metro 1;
#X obj 167 37 +~ 1;
#X obj 154 93 outlet;
#X connect 0 0 5 0;
#X connect 0 0 2 0;
#X connect 1 0 4 0;
#X connect 2 0 6 0;
#X connect 3 0 1 0;
#X connect 4 0 2 0;
#X restore 98 16 pd vary;
#X obj 37 60 +;
#X msg 164 21 0;
#X msg 201 23 100;
#X obj 91 58 * 0;
#X msg 215 87 all \$1;
#X msg 278 90 all \$1;
#X obj 243 35 inlet;
#X obj 204 62 unpack f f f;
#X obj 34 124 clone syn.ctl 50;
#X connect 1 0 14 0;
#X connect 3 0 6 0;
#X connect 4 0 14 1;
#X connect 5 0 9 0;
#X connect 6 0 1 0;
#X connect 7 0 9 1;
#X connect 8 0 9 1;
#X connect 9 0 6 1;
#X connect 10 0 14 2;
#X connect 11 0 14 3;
#X connect 12 0 13 0;
#X connect 13 0 4 0;
#X connect 13 1 10 0;
#X connect 13 2 11 0;
#X connect 14 0 2 0;
#X connect 14 1 0 0;
#X restore 109 197 pd keys;
#X connect 0 0 3 0;
#X connect 1 0 3 1;
#X connect 2 0 3 2;
#X connect 3 0 5 0;
#X connect 3 0 17 0;
#X connect 6 0 9 0;
#X connect 6 0 10 0;
#X connect 6 0 11 0;
#X connect 7 0 9 0;
#X connect 7 0 10 0;
#X connect 7 0 11 0;
#X connect 8 0 17 1;
#X connect 9 0 8 0;
#X connect 10 0 8 1;
#X connect 11 0 8 2;
#X connect 12 0 15 1;
#X connect 13 0 12 0;
#X connect 14 0 13 0;
#X connect 15 0 4 0;
#X connect 16 0 15 1;
#X connect 17 0 15 0;
#X restore 647 420 pd voice;
#X obj 625 387 *;
#X obj 624 334 r bfreq;
#N canvas 816 23 450 300 rhythm 0;
#X obj 78 33 r iter;
#X obj 75 215 nbx 5 14 0 1e+037 0 1 empty empty empty 0 -8 0 10 -262144
-1 -1 0.25 256;
#X obj 132 238 bng 15 250 50 0 empty empty empty 17 7 0 10 -262144
-1 -1;
#X obj 79 66 int;
#X obj 109 64 + 1;
#X obj 77 117 mod 64;
#X obj 132 258 outlet;
#X obj 70 261 outlet;
#X msg 31 176 0.5;
#X msg 80 174 0.25;
#X msg 120 175 0.75;
#X msg 171 174 1.77777;
#X obj 63 142 sel 0 32 52 16;
#X connect 0 0 3 0;
#X connect 1 0 2 0;
#X connect 1 0 7 0;
#X connect 2 0 6 0;
#X connect 3 0 4 0;
#X connect 3 0 5 0;
#X connect 4 0 3 1;
#X connect 5 0 12 0;
#X connect 8 0 1 0;
#X connect 9 0 1 0;
#X connect 10 0 1 0;
#X connect 11 0 1 0;
#X connect 12 0 8 0;
#X connect 12 1 9 0;
#X connect 12 2 10 0;
#X connect 12 3 11 0;
#X restore 643 360 pd rhythm;
#X obj 338 924 s rev2;
#X obj 233 1042 s scale2;
#X obj 163 401 cnv 15 70 30 empty empty empty 20 12 0 14 -204786 -66577
0;
#X obj 112 354 mtof;
#X obj 48 390 s bfreq;
#N canvas 18 89 494 473 rhythm 1;
#X obj 28 272 sel 0;
#X obj 31 306 outlet;
#X obj 29 204 int;
#X obj 63 204 + 1;
#X obj 33 130 r iter;
#X obj 107 241 mod 64;
#X obj 107 267 sel 0;
#X obj 107 319 + 2;
#X obj 107 293 random 3;
#X obj 28 242 mod 8;
#X obj 106 349 * 2;
#X connect 0 0 1 0;
#X connect 2 0 3 0;
#X connect 2 0 5 0;
#X connect 2 0 9 0;
#X connect 3 0 2 1;
#X connect 4 0 2 0;
#X connect 5 0 6 0;
#X connect 6 0 8 0;
#X connect 7 0 10 0;
#X connect 8 0 7 0;
#X connect 9 0 0 0;
#X connect 10 0 9 1;
#X restore 187 336 pd rhythm;
#N canvas 1085 183 743 600 voice 0;
#X obj 96 18 inlet;
#X obj 163 34 inlet;
#X obj 253 23 inlet;
#N canvas 951 650 759 643 FX 0;
#X obj 37 37 inlet~;
#N canvas 427 376 970 462 rev 0;
#X obj 40 68 inlet~;
#X obj 37 244 outlet~;
#X obj 38 199 hv.reverb;
#X msg 176 134 dry-gain 22;
#X msg 272 133 wet-gain 97;
#X msg 369 131 feedback 97;
#X msg 468 130 damp 7;
#X msg 534 131 lowcut 15;
#X msg 611 133 predelay_ms 10;
#X obj 385 68 loadbang;
#X connect 0 0 2 0;
#X connect 2 0 1 0;
#X connect 3 0 2 1;
#X connect 4 0 2 1;
#X connect 5 0 2 1;
#X connect 6 0 2 1;
#X connect 7 0 2 1;
#X connect 8 0 2 1;
#X connect 9 0 3 0;
#X connect 9 0 4 0;
#X connect 9 0 5 0;
#X connect 9 0 6 0;
#X connect 9 0 7 0;
#X connect 9 0 8 0;
#X restore 39 75 pd rev;
#X obj 39 108 outlet~;
#X connect 0 0 1 0;
#X connect 1 0 2 0;
#X restore 85 473 pd FX;
#N canvas 591 313 1096 672 keys 0;
#X obj 150 150 bng 15 250 50 0 empty empty empty 17 7 0 10 -262144
-1 -1;
#X msg 37 94 next \$1;
#X obj 38 169 outlet~;
#X obj 37 14 inlet;
#X msg 150 90 all \$1;
#N canvas 0 23 450 300 vary 0;
#X obj 121 4 noise~;
#X obj 243 14 tgl 15 0 empty empty empty 17 7 0 10 -262144 -1 -1 1
1;
#X obj 154 69 snapshot~;
#X obj 278 8 loadbang;
#X obj 243 34 metro 1;
#X obj 167 37 +~ 1;
#X obj 154 93 outlet;
#X connect 0 0 5 0;
#X connect 0 0 2 0;
#X connect 1 0 4 0;
#X connect 2 0 6 0;
#X connect 3 0 1 0;
#X connect 4 0 2 0;
#X restore 98 16 pd vary;
#X obj 37 60 +;
#X msg 164 21 0;
#X msg 201 23 100;
#X obj 91 58 * 0;
#X msg 215 87 all \$1;
#X msg 278 90 all \$1;
#X obj 243 35 inlet;
#X obj 204 62 unpack f f f;
#X obj 34 124 clone syn.ctl 50;
#X connect 1 0 14 0;
#X connect 3 0 6 0;
#X connect 4 0 14 1;
#X connect 5 0 9 0;
#X connect 6 0 1 0;
#X connect 7 0 9 1;
#X connect 8 0 9 1;
#X connect 9 0 6 1;
#X connect 10 0 14 2;
#X connect 11 0 14 3;
#X connect 12 0 13 0;
#X connect 13 0 4 0;
#X connect 13 1 10 0;
#X connect 13 2 11 0;
#X connect 14 0 2 0;
#X connect 14 1 0 0;
#X restore 75 297 pd keys;
#N canvas 417 24 721 484 tuningsys 0;
#X obj 270 34 inlet;
#X obj 48 46 inlet;
#X obj 78 217 f;
#X msg 247 99 0;
#X msg 290 97 1;
#X msg 336 100 2;
#X msg 380 101 3;
#X obj 276 145 int;
#N canvas 366 38 719 482 pent 0;
#X obj 79 9 inlet;
#X obj 100 283 outlet;
#X obj 71 65 t f b;
#X obj 34 149 f;
#X msg 126 148 0.8;
#X msg 166 149 0.9;
#X msg 201 151 1;
#X obj 99 221 *;
#X msg 236 150 1.2;
#X msg 272 151 1.3333;
#X msg 342 153 1.6;
#X obj 151 110 sel 0 1 2 3 4 5;
#X obj 152 86 random 6;
#X connect 0 0 2 0;
#X connect 2 0 3 0;
#X connect 2 1 12 0;
#X connect 3 0 7 0;
#X connect 4 0 7 1;
#X connect 5 0 7 1;
#X connect 6 0 7 1;
#X connect 7 0 1 0;
#X connect 8 0 7 1;
#X connect 9 0 7 1;
#X connect 10 0 7 1;
#X connect 11 0 4 0;
#X connect 11 1 5 0;
#X connect 11 2 6 0;
#X connect 11 3 8 0;
#X connect 11 4 9 0;
#X connect 11 5 10 0;
#X connect 12 0 11 0;
#X restore 219 259 pd pent;
#N canvas 734 25 450 300 pythag 0;
#X obj 31 68 t f b;
#X obj 37 12 inlet;
#X msg 69 146 1;
#X msg 105 148 1.18519;
#X msg 174 152 1.33333;
#X msg 241 150 1.5;
#X msg 270 149 1.77778;
#X msg 339 149 2;
#X obj 44 217 *;
#X obj 31 92 f;
#X obj 44 241 outlet;
#X obj 152 86 random 6;
#X obj 151 110 sel 0 1 2 3 4 5;
#X connect 0 0 9 0;
#X connect 0 1 11 0;
#X connect 1 0 0 0;
#X connect 2 0 8 1;
#X connect 3 0 8 1;
#X connect 4 0 8 1;
#X connect 5 0 8 1;
#X connect 6 0 8 1;
#X connect 7 0 8 1;
#X connect 8 0 10 0;
#X connect 9 0 8 0;
#X connect 11 0 12 0;
#X connect 12 0 2 0;
#X connect 12 1 3 0;
#X connect 12 2 4 0;
#X connect 12 3 5 0;
#X connect 12 4 6 0;
#X connect 12 5 7 0;
#X restore 143 260 pd pythag;
#N canvas 0 23 450 300 slendro 0;
#X obj 31 68 t f b;
#X obj 37 12 inlet;
#X msg 69 146 1;
#X msg 236 149 1.5;
#X msg 327 151 2;
#X obj 44 217 *;
#X obj 31 92 f;
#X obj 44 241 outlet;
#X obj 152 86 random 6;
#X obj 151 110 sel 0 1 2 3 4 5;
#X msg 105 148 1.1875;
#X msg 168 147 1.3125;
#X msg 279 149 1.75;
#X connect 0 0 6 0;
#X connect 0 1 8 0;
#X connect 1 0 0 0;
#X connect 2 0 5 1;
#X connect 3 0 5 1;
#X connect 4 0 5 1;
#X connect 5 0 7 0;
#X connect 6 0 5 0;
#X connect 8 0 9 0;
#X connect 9 0 2 0;
#X connect 9 1 10 0;
#X connect 9 2 11 0;
#X connect 9 3 3 0;
#X connect 9 4 12 0;
#X connect 9 5 4 0;
#X connect 10 0 5 1;
#X connect 11 0 5 1;
#X connect 12 0 5 1;
#X restore 284 262 pd slendro;
#N canvas 0 23 450 300 harrison 0;
#X obj 31 68 t f b;
#X obj 37 12 inlet;
#X msg 69 146 1;
#X msg 189 150 1.33333;
#X msg 254 151 1.5;
#X msg 373 153 2;
#X obj 44 217 *;
#X obj 31 92 f;
#X obj 44 241 outlet;
#X obj 152 86 random 6;
#X obj 151 110 sel 0 1 2 3 4 5;
#X msg 105 148 1.14286;
#X msg 289 151 1.71429;
#X connect 0 0 7 0;
#X connect 0 1 9 0;
#X connect 1 0 0 0;
#X connect 2 0 6 1;
#X connect 3 0 6 1;
#X connect 4 0 6 1;
#X connect 5 0 6 1;
#X connect 6 0 8 0;
#X connect 7 0 6 0;
#X connect 9 0 10 0;
#X connect 10 0 2 0;
#X connect 10 1 11 0;
#X connect 10 2 3 0;
#X connect 10 3 4 0;
#X connect 10 4 12 0;
#X connect 10 5 5 0;
#X connect 11 0 6 1;
#X connect 12 0 6 1;
#X restore 380 265 pd harrison;
#X msg 435 102 4;
#X obj 147 219 f;
#X obj 201 223 f;
#X obj 239 222 f;
#X obj 281 223 f;
#N canvas 0 23 619 340 justdiatonic 0;
#X obj 31 68 t f b;
#X obj 37 12 inlet;
#X msg 69 146 1;
#X obj 44 217 *;
#X obj 31 92 f;
#X obj 44 241 outlet;
#X msg 105 147 1.125;
#X msg 159 148 1.2;
#X msg 197 148 1.33333;
#X msg 281 153 1.5;
#X obj 151 110 sel 0 1 2 3 4 5 6 7;
#X msg 321 152 1.66667;
#X msg 412 152 1.875;
#X msg 463 151 2;
#X obj 152 85 random 8;
#X connect 0 0 4 0;
#X connect 0 1 14 0;
#X connect 1 0 0 0;
#X connect 2 0 3 1;
#X connect 3 0 5 0;
#X connect 4 0 3 0;
#X connect 6 0 3 1;
#X connect 7 0 3 1;
#X connect 8 0 3 1;
#X connect 9 0 3 1;
#X connect 10 0 2 0;
#X connect 10 1 6 0;
#X connect 10 2 7 0;
#X connect 10 3 8 0;
#X connect 10 4 9 0;
#X connect 10 5 11 0;
#X connect 10 6 12 0;
#X connect 10 7 13 0;
#X connect 11 0 3 1;
#X connect 14 0 10 0;
#X restore 500 265 pd justdiatonic;
#X obj 322 223 f;
#X msg 501 100 5;
#X obj 326 31 print oscvoice #1;
#N canvas 248 23 719 482 major 0;
#X obj 79 9 inlet;
#X obj 71 65 t f b;
#X msg 126 148 0;
#X obj 152 86 random 8;
#X obj 151 110 sel 0 1 2 3 4 5 6 7;
#X obj 99 221 +;
#X obj 99 245 mtof;
#X obj 100 283 outlet;
#X obj 34 149 f;
#X msg 388 149 12;
#X obj 79 33 ftom;
#X msg 166 149 2;
#X msg 201 151 4;
#X msg 236 150 5;
#X msg 272 151 7;
#X msg 313 150 9;
#X msg 350 149 11;
#X connect 0 0 10 0;
#X connect 1 0 8 0;
#X connect 1 1 3 0;
#X connect 2 0 5 1;
#X connect 3 0 4 0;
#X connect 4 0 2 0;
#X connect 4 1 11 0;
#X connect 4 2 12 0;
#X connect 4 3 13 0;
#X connect 4 4 14 0;
#X connect 4 5 15 0;
#X connect 4 6 16 0;
#X connect 4 7 9 0;
#X connect 5 0 6 0;
#X connect 6 0 7 0;
#X connect 8 0 5 0;
#X connect 9 0 5 1;
#X connect 10 0 1 0;
#X connect 11 0 5 1;
#X connect 12 0 5 1;
#X connect 13 0 5 1;
#X connect 14 0 5 1;
#X connect 15 0 5 1;
#X connect 16 0 5 1;
#X restore 622 266 pd major;
#X obj 374 224 f;
#X msg 546 109 6;
#X obj 267 60 route bare pythag pent slendro harrison justdiatonic
major;
#X obj 289 184 sel 0 1 2 3 4 5 6;
#X obj 598 110 print Not Found;
#X obj 181 336 outlet;
#X obj 147 33 inlet;
#X connect 0 0 20 0;
#X connect 0 0 24 0;
#X connect 1 0 2 1;
#X connect 1 0 13 1;
#X connect 1 0 14 1;
#X connect 1 0 15 1;
#X connect 1 0 16 1;
#X connect 1 0 18 1;
#X connect 1 0 22 1;
#X connect 2 0 27 0;
#X connect 3 0 7 1;
#X connect 4 0 7 1;
#X connect 5 0 7 1;
#X connect 6 0 7 1;
#X connect 7 0 25 0;
#X connect 8 0 27 0;
#X connect 9 0 27 0;
#X connect 10 0 27 0;
#X connect 11 0 27 0;
#X connect 12 0 7 1;
#X connect 13 0 9 0;
#X connect 14 0 8 0;
#X connect 15 0 10 0;
#X connect 16 0 11 0;
#X connect 17 0 27 0;
#X connect 18 0 17 0;
#X connect 19 0 7 1;
#X connect 21 0 27 0;
#X connect 22 0 21 0;
#X connect 23 0 7 1;
#X connect 24 0 3 0;
#X connect 24 1 4 0;
#X connect 24 2 5 0;
#X connect 24 3 6 0;
#X connect 24 4 12 0;
#X connect 24 5 19 0;
#X connect 24 6 23 0;
#X connect 24 7 26 0;
#X connect 25 0 2 0;
#X connect 25 1 13 0;
#X connect 25 2 14 0;
#X connect 25 3 15 0;
#X connect 25 4 16 0;
#X connect 25 5 18 0;
#X connect 25 6 22 0;
#X connect 28 0 7 0;
#X restore 114 75 pd tuningsys;
#X obj 86 513 outlet~;
#N canvas 0 23 639 300 randasdr 0;
#X obj 97 188 outlet;
#X obj 95 86 inlet;
#X msg 55 121 200;
#X msg 91 118 1000;
#X msg 142 118 500;
#X obj 83 161 pack f f f;
#X connect 1 0 2 0;
#X connect 1 0 3 0;
#X connect 1 0 4 0;
#X connect 2 0 5 0;
#X connect 3 0 5 1;
#X connect 4 0 5 2;
#X connect 5 0 0 0;
#X restore 240 75 pd randasdr;
#N canvas 679 235 450 300 init 0;
#X obj 63 126 line~;
#X obj 63 152 snapshot~;
#X obj 132 123 metro 1;
#X obj 140 92 tgl 15 0 empty empty empty 17 7 0 10 -262144 -1 -1 0
1;
#X obj 64 7 inlet;
#X obj 63 178 outlet;
#X msg 63 99 1.3 7000;
#X obj 134 58 del 7000;
#X connect 0 0 1 0;
#X connect 1 0 5 0;
#X connect 2 0 1 0;
#X connect 3 0 2 0;
#X connect 4 0 6 0;
#X connect 4 0 3 0;
#X connect 4 0 7 0;
#X connect 6 0 0 0;
#X connect 7 0 3 0;
#X restore 157 420 pd init;
#X obj 88 442 *~ 0;
#X obj 162 385 r initVol;
#X obj 107 250 f;
#X obj 172 273 f;
#X obj 231 244 sel 0 1;
#X obj 229 219 f 0;
#X obj 231 198 bng 15 250 50 0 empty empty empty 17 7 0 10 -262144
-1 -1;
#X obj 370 137 r shieldStop;
#X obj 259 137 r shieldStart;
#X msg 259 163 1;
#X msg 370 163 0;
#N canvas 0 50 450 300 shieldSynth 0;
#X obj 51 35 inlet;
#X obj 51 107 syn2.ctl;
#X obj 123 28 loadbang;
#X msg 71 77 4;
#X msg 146 79 114;
#X msg 188 78 278;
#X msg 107 78 10;
#X obj 49 169 outlet~;
#X obj 50 136 *~ 0.05;
#X connect 0 0 1 0;
#X connect 1 0 8 0;
#X connect 2 0 3 0;
#X connect 2 0 6 0;
#X connect 2 0 4 0;
#X connect 2 0 5 0;
#X connect 3 0 1 1;
#X connect 4 0 1 3;
#X connect 5 0 1 4;
#X connect 6 0 1 2;
#X connect 8 0 7 0;
#X restore 151 337 pd shieldSynth;
#X obj 321 340 outlet;
#X connect 0 0 5 0;
#X connect 1 0 5 1;
#X connect 1 0 7 0;
#X connect 2 0 5 2;
#X connect 3 0 6 0;
#X connect 4 0 9 0;
#X connect 5 0 4 0;
#X connect 5 0 15 0;
#X connect 5 0 11 1;
#X connect 5 0 12 1;
#X connect 7 0 4 1;
#X connect 8 0 9 1;
#X connect 9 0 3 0;
#X connect 10 0 8 0;
#X connect 11 0 4 0;
#X connect 12 0 20 0;
#X connect 12 0 21 0;
#X connect 13 0 11 0;
#X connect 13 1 12 0;
#X connect 14 0 13 0;
#X connect 15 0 14 0;
#X connect 16 0 19 0;
#X connect 17 0 18 0;
#X connect 18 0 14 1;
#X connect 19 0 14 1;
#X connect 20 0 9 0;
#X restore 111 432 pd voice;
#X obj 169 407 r scale1;
#N canvas 572 23 637 501 rhythm 0;
#X obj 27 258 sel 0;
#X obj 14 306 outlet;
#X obj 26 183 int;
#X obj 23 142 r iter;
#X obj 60 183 + 1;
#X obj 27 228 mod 3;
#X obj 264 196 random 6;
#X obj 264 220 sel 0 1 2 3 4 5;
#X msg 261 245 2;
#X obj 272 294 int;
#X msg 298 245 4;
#X msg 335 246 6;
#X msg 375 248 8;
#X msg 416 248 10;
#X msg 227 244 2;
#X obj 90 306 s rhythmIter;
#X obj 126 146 r rhythmUpdate;
#X obj 130 182 random 8;
#X obj 130 206 + 1;
#X connect 0 0 1 0;
#X connect 0 0 15 0;
#X connect 2 0 4 0;
#X connect 2 0 5 0;
#X connect 3 0 2 0;
#X connect 4 0 2 1;
#X connect 5 0 0 0;
#X connect 6 0 7 0;
#X connect 7 0 14 0;
#X connect 7 1 8 0;
#X connect 7 2 10 0;
#X connect 7 3 11 0;
#X connect 7 4 12 0;
#X connect 7 5 13 0;
#X connect 8 0 9 0;
#X connect 10 0 9 0;
#X connect 11 0 9 0;
#X connect 12 0 9 0;
#X connect 13 0 9 0;
#X connect 14 0 9 0;
#X connect 16 0 17 0;
#X connect 17 0 18 0;
#X connect 18 0 5 1;
#X restore 141 802 pd rhythm;
#X obj 663 390 bng 15 250 50 0 empty empty empty 17 7 0 10 -262144
-1 -1;
#X msg 42 996 9TET;
#X msg 426 166 happyState;
#X msg 316 170 initState;
#X msg 537 172 weakState;
#X obj 542 696 cnv 15 500 400 empty empty empty 20 12 0 14 -204800
-66577 0;
#X obj 822 841 vsl 15 50 1 100 1 1 empty empty dry -1 -9 0 10 -262144
-1 -1 4500 1;
#X obj 853 841 vsl 15 50 1 100 1 1 empty empty wet -1 -9 0 10 -262144
-1 -1 4700 1;
#X obj 895 842 vsl 15 50 80 100 1 1 empty empty feedback -17 -9 0 10
-262144 -1 -1 4500 1;
#X obj 941 842 vsl 15 50 1 100 1 1 empty empty damp -5 -9 0 10 -262144
-1 -1 3600 1;
#X obj 984 842 vsl 15 50 1 100 1 1 empty empty lowcut -11 -9 0 10 -262144
-1 -1 1700 1;
#X obj 858 903 pack f f f f f;
#X obj 830 906 bng 15 250 50 0 empty empty empty 17 7 0 10 -262144
-1 -1;
#X obj 848 929 cnv 15 70 30 empty empty empty 20 12 0 14 -204786 -66577
0;
#X obj 749 1067 cnv 15 70 30 empty empty empty 20 12 0 14 -204786 -66577
0;
#X msg 653 1021 pythag;
#X msg 610 1020 bare;
#X msg 711 1021 pent;
#X msg 756 1021 slendro;
#X msg 819 1021 harrison;
#X msg 889 1020 justdiatonic;
#X msg 989 1019 major;
#X obj 690 830 cnv 15 70 30 empty empty empty 20 12 0 14 -204786 -66577
0;
#X obj 640 780 r bfreq;
#N canvas 98 181 432 390 voice 0;
#X obj 63 58 inlet;
#X obj 117 55 inlet;
#X obj 207 44 inlet;
#N canvas 417 23 721 485 tuningsys 0;
#X obj 270 34 inlet;
#X obj 48 46 inlet;
#X obj 17 221 f;
#X msg 247 99 0;
#X msg 290 97 1;
#X msg 336 100 2;
#X msg 380 101 3;
#X obj 276 145 int;
#N canvas 366 38 719 482 pent 0;
#X obj 79 9 inlet;
#X obj 100 283 outlet;
#X obj 71 65 t f b;
#X obj 34 149 f;
#X msg 126 148 0.8;
#X msg 166 149 0.9;
#X msg 201 151 1;
#X obj 99 221 *;
#X msg 236 150 1.2;
#X msg 272 151 1.3333;
#X msg 342 153 1.6;
#X obj 151 110 sel 0 1 2 3 4 5;
#X obj 152 86 random 6;
#X connect 0 0 2 0;
#X connect 2 0 3 0;
#X connect 2 1 12 0;
#X connect 3 0 7 0;
#X connect 4 0 7 1;
#X connect 5 0 7 1;
#X connect 6 0 7 1;
#X connect 7 0 1 0;
#X connect 8 0 7 1;
#X connect 9 0 7 1;
#X connect 10 0 7 1;
#X connect 11 0 4 0;
#X connect 11 1 5 0;
#X connect 11 2 6 0;
#X connect 11 3 8 0;
#X connect 11 4 9 0;
#X connect 11 5 10 0;
#X connect 12 0 11 0;
#X restore 154 262 pd pent;
#N canvas 734 25 450 300 pythag 0;
#X obj 31 68 t f b;
#X obj 37 12 inlet;
#X msg 69 146 1;
#X msg 105 148 1.18519;
#X msg 174 152 1.33333;
#X msg 241 150 1.5;
#X msg 270 149 1.77778;
#X msg 339 149 2;
#X obj 44 217 *;
#X obj 31 92 f;
#X obj 44 241 outlet;
#X obj 152 86 random 6;
#X obj 151 110 sel 0 1 2 3 4 5;
#X connect 0 0 9 0;
#X connect 0 1 11 0;
#X connect 1 0 0 0;
#X connect 2 0 8 1;
#X connect 3 0 8 1;
#X connect 4 0 8 1;
#X connect 5 0 8 1;
#X connect 6 0 8 1;
#X connect 7 0 8 1;
#X connect 8 0 10 0;
#X connect 9 0 8 0;
#X connect 11 0 12 0;
#X connect 12 0 2 0;
#X connect 12 1 3 0;
#X connect 12 2 4 0;
#X connect 12 3 5 0;
#X connect 12 4 6 0;
#X connect 12 5 7 0;
#X restore 78 263 pd pythag;
#N canvas 0 23 450 300 slendro 0;
#X obj 31 68 t f b;
#X obj 37 12 inlet;
#X msg 69 146 1;
#X msg 236 149 1.5;
#X msg 327 151 2;
#X obj 44 189 *;
#X obj 31 92 f;
#X obj 43 262 outlet;
#X obj 152 86 random 6;
#X obj 151 110 sel 0 1 2 3 4 5;
#X msg 105 148 1.1875;
#X msg 168 147 1.3125;
#X msg 279 149 1.75;
#X obj 160 194 random 2;
#X obj 160 218 sel 0;
#X obj 44 213 + 0;
#X msg 197 244 0;
#X msg 139 245 0.5;
#X connect 0 0 6 0;
#X connect 0 1 8 0;
#X connect 0 1 13 0;
#X connect 1 0 0 0;
#X connect 2 0 5 1;
#X connect 3 0 5 1;
#X connect 4 0 5 1;
#X connect 5 0 15 0;
#X connect 6 0 5 0;
#X connect 8 0 9 0;
#X connect 9 0 2 0;
#X connect 9 1 10 0;
#X connect 9 2 11 0;
#X connect 9 3 3 0;
#X connect 9 4 12 0;
#X connect 9 5 4 0;
#X connect 10 0 5 1;
#X connect 11 0 5 1;
#X connect 12 0 5 1;
#X connect 13 0 14 0;
#X connect 14 0 17 0;
#X connect 14 1 16 0;
#X connect 15 0 7 0;
#X connect 16 0 15 1;
#X connect 17 0 15 1;
#X restore 219 265 pd slendro;
#N canvas 0 23 450 300 harrison 0;
#X obj 31 68 t f b;
#X obj 37 12 inlet;
#X msg 69 146 1;
#X msg 189 150 1.33333;
#X msg 254 151 1.5;
#X msg 373 153 2;
#X obj 44 217 *;
#X obj 31 92 f;
#X obj 44 241 outlet;
#X obj 152 86 random 6;
#X obj 151 110 sel 0 1 2 3 4 5;
#X msg 105 148 1.14286;
#X msg 289 151 1.71429;
#X connect 0 0 7 0;
#X connect 0 1 9 0;
#X connect 1 0 0 0;
#X connect 2 0 6 1;
#X connect 3 0 6 1;
#X connect 4 0 6 1;
#X connect 5 0 6 1;
#X connect 6 0 8 0;
#X connect 7 0 6 0;
#X connect 9 0 10 0;
#X connect 10 0 2 0;
#X connect 10 1 11 0;
#X connect 10 2 3 0;
#X connect 10 3 4 0;
#X connect 10 4 12 0;
#X connect 10 5 5 0;
#X connect 11 0 6 1;
#X connect 12 0 6 1;
#X restore 315 268 pd harrison;
#X msg 435 102 4;
#X obj 86 223 f;
#X obj 140 227 f;
#X obj 178 226 f;
#X obj 220 227 f;
#N canvas 0 23 619 340 justdiatonic 0;
#X obj 31 68 t f b;
#X obj 37 12 inlet;
#X msg 69 146 1;
#X obj 44 217 *;
#X obj 31 92 f;
#X obj 44 241 outlet;
#X msg 105 147 1.125;
#X msg 159 148 1.2;
#X msg 197 148 1.33333;
#X msg 281 153 1.5;
#X obj 151 110 sel 0 1 2 3 4 5 6 7;
#X msg 321 152 1.66667;
#X msg 412 152 1.875;
#X msg 463 151 2;
#X obj 152 85 random 8;
#X connect 0 0 4 0;
#X connect 0 1 14 0;
#X connect 1 0 0 0;
#X connect 2 0 3 1;
#X connect 3 0 5 0;
#X connect 4 0 3 0;
#X connect 6 0 3 1;
#X connect 7 0 3 1;
#X connect 8 0 3 1;
#X connect 9 0 3 1;
#X connect 10 0 2 0;
#X connect 10 1 6 0;
#X connect 10 2 7 0;
#X connect 10 3 8 0;
#X connect 10 4 9 0;
#X connect 10 5 11 0;
#X connect 10 6 12 0;
#X connect 10 7 13 0;
#X connect 11 0 3 1;
#X connect 14 0 10 0;
#X restore 435 268 pd justdiatonic;
#X obj 261 227 f;
#X msg 501 100 5;
#N canvas 248 23 719 482 major 0;
#X obj 79 9 inlet;
#X obj 71 65 t f b;
#X msg 126 148 0;
#X obj 152 86 random 8;
#X obj 151 110 sel 0 1 2 3 4 5 6 7;
#X obj 99 221 +;
#X obj 99 245 mtof;
#X obj 100 283 outlet;
#X obj 34 149 f;
#X msg 388 149 12;
#X obj 79 33 ftom;
#X msg 166 149 2;
#X msg 201 151 4;
#X msg 236 150 5;
#X msg 272 151 7;
#X msg 313 150 9;
#X msg 350 149 11;
#X connect 0 0 10 0;
#X connect 1 0 8 0;
#X connect 1 1 3 0;
#X connect 2 0 5 1;
#X connect 3 0 4 0;
#X connect 4 0 2 0;
#X connect 4 1 11 0;
#X connect 4 2 12 0;
#X connect 4 3 13 0;
#X connect 4 4 14 0;
#X connect 4 5 15 0;
#X connect 4 6 16 0;
#X connect 4 7 9 0;
#X connect 5 0 6 0;
#X connect 6 0 7 0;
#X connect 8 0 5 0;
#X connect 9 0 5 1;
#X connect 10 0 1 0;
#X connect 11 0 5 1;
#X connect 12 0 5 1;
#X connect 13 0 5 1;
#X connect 14 0 5 1;
#X connect 15 0 5 1;
#X connect 16 0 5 1;
#X restore 557 269 pd major;
#X obj 313 228 f;
#X msg 546 109 6;
#X obj 598 110 print Not Found;
#X obj 131 352 outlet;
#X obj 111 21 inlet;
#X obj 267 60 route bare pythag pent slendro harrison justdiatonic
major 9TET, f 63;
#X msg 589 145 7;
#X obj 289 184 sel 0 1 2 3 4 5 6 7;
#X obj 355 225 f;
#N canvas 0 23 450 300 9tet 0;
#X obj 79 9 inlet;
#X obj 100 283 outlet;
#X obj 71 65 t f b;
#X obj 34 149 f;
#X obj 99 221 *;
#X obj 152 86 random 9;
#X msg 82 128 1.08;
#X msg 97 155 1.16667;
#X msg 129 180 1.26;
#X msg 164 198 1.36111;
#X msg 219 218 1.46939;
#X msg 288 244 1.5873;
#X msg 317 219 1.71429;
#X msg 344 194 1.85185;
#X msg 383 170 2;
#X obj 151 110 sel 0 1 2 3 4 5 6 7 8;
#X connect 0 0 2 0;
#X connect 2 0 3 0;
#X connect 2 1 5 0;
#X connect 3 0 4 0;
#X connect 4 0 1 0;
#X connect 5 0 15 0;
#X connect 6 0 4 1;
#X connect 7 0 4 1;
#X connect 8 0 4 1;
#X connect 9 0 4 1;
#X connect 10 0 4 1;
#X connect 11 0 4 1;
#X connect 12 0 4 1;
#X connect 14 0 4 1;
#X connect 15 0 6 0;
#X connect 15 1 7 0;
#X connect 15 2 8 0;
#X connect 15 3 9 0;
#X connect 15 4 10 0;
#X connect 15 5 11 0;
#X connect 15 6 12 0;
#X connect 15 7 13 0;
#X connect 15 8 14 0;
#X restore 627 268 pd 9tet;
#X obj 326 31 print oscvoice #3;
#X connect 0 0 26 0;
#X connect 0 0 31 0;
#X connect 1 0 2 1;
#X connect 1 0 13 1;
#X connect 1 0 14 1;
#X connect 1 0 15 1;
#X connect 1 0 16 1;
#X connect 1 0 18 1;
#X connect 1 0 21 1;
#X connect 1 0 29 1;
#X connect 2 0 24 0;
#X connect 3 0 7 1;
#X connect 4 0 7 1;
#X connect 5 0 7 1;
#X connect 6 0 7 1;
#X connect 7 0 28 0;
#X connect 8 0 24 0;
#X connect 9 0 24 0;
#X connect 10 0 24 0;
#X connect 11 0 24 0;
#X connect 12 0 7 1;
#X connect 13 0 9 0;
#X connect 14 0 8 0;
#X connect 15 0 10 0;
#X connect 16 0 11 0;
#X connect 17 0 24 0;
#X connect 18 0 17 0;
#X connect 19 0 7 1;
#X connect 20 0 24 0;
#X connect 21 0 20 0;
#X connect 22 0 7 1;
#X connect 25 0 7 0;
#X connect 26 0 3 0;
#X connect 26 1 4 0;
#X connect 26 2 5 0;
#X connect 26 3 6 0;
#X connect 26 4 12 0;
#X connect 26 5 19 0;
#X connect 26 6 22 0;
#X connect 26 7 27 0;
#X connect 26 8 23 0;
#X connect 27 0 7 1;
#X connect 28 0 2 0;
#X connect 28 1 13 0;
#X connect 28 2 14 0;
#X connect 28 3 15 0;
#X connect 28 4 16 0;
#X connect 28 5 18 0;
#X connect 28 6 21 0;
#X connect 28 7 29 0;
#X connect 29 0 30 0;
#X connect 30 0 24 0;
#X restore 76 108 pd tuningsys;
#X obj 86 332 outlet~;
#X obj 293 203 outlet;
#N canvas 360 307 593 303 randasdr 0;
#X obj 82 28 inlet;
#X obj 138 168 pack 40 70 160;
#X obj 138 192 outlet;
#X obj 50 115 + 10;
#X obj 47 92 random 50;
#X obj 262 88 random 200;
#X obj 147 87 random 200;
#X obj 147 111 + 100;
#X obj 262 112 + 50;
#X connect 0 0 4 0;
#X connect 0 0 5 0;
#X connect 0 0 6 0;
#X connect 1 0 2 0;
#X connect 3 0 1 0;
#X connect 4 0 3 0;
#X connect 5 0 8 0;
#X connect 6 0 7 0;
#X connect 7 0 1 1;
#X connect 8 0 1 2;
#X restore 201 124 pd randasdr;
#N canvas 0 50 450 300 initV3 0;
#X obj 63 126 line~;
#X obj 63 152 snapshot~;
#X obj 132 123 metro 1;
#X obj 140 92 tgl 15 0 empty empty empty 17 7 0 10 -262144 -1 -1 0
1;
#X obj 64 7 inlet;
#X obj 63 178 outlet;
#X obj 134 58 del 10000;
#X msg 63 99 1.3 10000;
#X connect 0 0 1 0;
#X connect 1 0 5 0;
#X connect 2 0 1 0;
#X connect 3 0 2 0;
#X connect 4 0 3 0;
#X connect 4 0 7 0;
#X connect 4 0 6 0;
#X connect 6 0 3 0;
#X connect 7 0 0 0;
#X restore 176 356 pd initV3;
#X obj 200 327 del 10000;
#X obj 208 293 r initVol;
#X obj 80 289 *~ 0;
#X obj 112 256 r vol3;
#N canvas 591 313 1096 672 keys 0;
#X obj 150 150 bng 15 250 50 0 empty empty empty 17 7 0 10 -262144
-1 -1;
#X msg 37 94 next \$1;
#X obj 38 169 outlet~;
#X obj 37 14 inlet;
#X msg 150 90 all \$1;
#N canvas 0 23 450 300 vary 0;
#X obj 121 4 noise~;
#X obj 243 14 tgl 15 0 empty empty empty 17 7 0 10 -262144 -1 -1 1
1;
#X obj 154 69 snapshot~;
#X obj 278 8 loadbang;
#X obj 243 34 metro 1;
#X obj 167 37 +~ 1;
#X obj 154 93 outlet;
#X connect 0 0 5 0;
#X connect 0 0 2 0;
#X connect 1 0 4 0;
#X connect 2 0 6 0;
#X connect 3 0 1 0;
#X connect 4 0 2 0;
#X restore 98 16 pd vary;
#X obj 37 60 +;
#X msg 164 21 0;
#X msg 201 23 100;
#X obj 91 58 * 0;
#X msg 215 87 all \$1;
#X msg 278 90 all \$1;
#X obj 243 35 inlet;
#X obj 204 62 unpack f f f;
#X obj 34 124 clone syn.ctl 50;
#X connect 1 0 14 0;
#X connect 3 0 6 0;
#X connect 4 0 14 1;
#X connect 5 0 9 0;
#X connect 6 0 1 0;
#X connect 7 0 9 1;
#X connect 8 0 9 1;
#X connect 9 0 6 1;
#X connect 10 0 14 2;
#X connect 11 0 14 3;
#X connect 12 0 13 0;
#X connect 13 0 4 0;
#X connect 13 1 10 0;
#X connect 13 2 11 0;
#X connect 14 0 2 0;
#X connect 14 1 0 0;
#X restore 96 212 pd keys;
#X connect 0 0 3 0;
#X connect 1 0 3 1;
#X connect 1 0 6 0;
#X connect 2 0 3 2;
#X connect 3 0 12 0;
#X connect 3 0 5 0;
#X connect 6 0 12 1;
#X connect 7 0 10 1;
#X connect 8 0 7 0;
#X connect 9 0 8 0;
#X connect 10 0 4 0;
#X connect 11 0 10 1;
#X connect 12 0 10 0;
#X restore 641 860 pd voice;
#N canvas 424 23 484 367 rhythm 0;
#X obj 28 158 sel 0;
#X obj 25 205 outlet;
#X obj 27 83 int;
#X obj 25 39 r iter;
#X obj 61 83 + 1;
#X obj 28 128 mod 2;
#X obj 241 94 random 6;
#X obj 241 118 sel 0 1 2 3 4 5;
#X msg 204 142 1;
#X msg 238 143 2;
#X msg 275 143 3;
#X msg 312 144 5;
#X msg 352 146 7;
#X msg 393 146 9;
#X obj 303 172 int;
#X obj 87 205 s rhythmIter;
#X obj 128 49 r rhythmUpdate;
#X obj 130 86 random 8;
#X obj 130 110 + 1;
#X connect 0 0 1 0;
#X connect 0 0 15 0;
#X connect 2 0 4 0;
#X connect 2 0 5 0;
#X connect 3 0 2 0;
#X connect 4 0 2 1;
#X connect 5 0 0 0;
#X connect 6 0 7 0;
#X connect 7 0 8 0;
#X connect 7 1 9 0;
#X connect 7 2 10 0;
#X connect 7 3 11 0;
#X connect 7 4 12 0;
#X connect 7 5 13 0;
#X connect 8 0 14 0;
#X connect 9 0 14 0;
#X connect 10 0 14 0;
#X connect 11 0 14 0;
#X connect 12 0 14 0;
#X connect 13 0 14 0;
#X connect 16 0 17 0;
#X connect 17 0 18 0;
#X connect 18 0 5 1;
#X restore 663 810 pd rhythm;
#X msg 562 1026 9TET;
#X msg 620 173 chillState;
#X msg 711 174 actionState;
#X msg 820 176 recoveringState;
#X obj 486 419 vsl 15 50 1 100 1 1 empty empty predelay -11 -9 0 10
-262144 -1 -1 2400 1;
#X obj 320 481 pack f f f f f f;
#X obj 690 885 bng 15 250 50 0 empty empty empty 17 7 0 10 -262144
-1 -1;
#X obj 171 879 bng 15 250 50 0 empty empty empty 17 7 0 10 -262144
-1 -1;
#N canvas 785 275 1071 418 parseState 0;
#X obj 235 16 inlet;
#N canvas 160 70 1065 420 scaleControl 0;
#X obj 234 48 inlet;
#X obj 383 299 s scale2;
#X obj 261 298 s scale1;
#X msg 40 167 slendro;
#X msg 686 189 bare;
#X msg 774 185 justdiatonic;
#X msg 597 190 pent;
#X msg 873 186 pythag;
#X msg 426 190 slendro;
#X obj 237 87 route initState happyState weakState chillState actionState
recoveringState, f 76;
#X msg 968 190 pythag;
#X msg 1031 191 pent;
#X msg 230 189 pent;
#X msg 517 189 slendro;
#X msg 333 190 bare;
#X obj 681 303 s scale4;
#X obj 488 302 s scale3;
#X msg 138 181 bare;
#X connect 0 0 9 0;
#X connect 3 0 16 0;
#X connect 3 0 2 0;
#X connect 4 0 15 0;
#X connect 5 0 2 0;
#X connect 5 0 1 0;
#X connect 6 0 1 0;
#X connect 6 0 16 0;
#X connect 7 0 16 0;
#X connect 8 0 16 0;
#X connect 9 0 17 0;
#X connect 9 0 3 0;
#X connect 9 1 12 0;
#X connect 9 1 4 0;
#X connect 9 2 4 0;
#X connect 9 2 14 0;
#X connect 9 2 8 0;
#X connect 9 3 6 0;
#X connect 9 3 4 0;
#X connect 9 3 13 0;
#X connect 9 4 5 0;
#X connect 9 4 7 0;
#X connect 9 4 4 0;
#X connect 9 5 4 0;
#X connect 9 5 11 0;
#X connect 9 5 10 0;
#X connect 10 0 2 0;
#X connect 11 0 1 0;
#X connect 11 0 16 0;
#X connect 12 0 2 0;
#X connect 12 0 1 0;
#X connect 13 0 2 0;
#X connect 14 0 2 0;
#X connect 14 0 1 0;
#X connect 17 0 1 0;
#X connect 17 0 16 0;
#X connect 17 0 15 0;
#X restore 313 62 pd scaleControl;
#N canvas 0 50 812 300 volumeControl 0;
#X obj 240 48 inlet;
#X obj 237 87 route initState happyState weakState chillState actionState
recoveringState, f 76;
#X obj 135 142 s initVol;
#X connect 0 0 1 0;
#X connect 1 0 2 0;
#X restore 186 63 pd volumeControl;
#X connect 0 0 1 0;
#X connect 0 0 2 0;
#X restore 611 231 pd parseState;
#X obj 860 932 s rev3;
#X obj 753 1072 s scale3;
#X obj 694 834 r scale3;
#X obj 704 391 r scale4;
#X obj 861 511 s rev4;
#X obj 741 610 s scale4;
#X msg 43 307 64;
#X obj 109 173 metro 150;
#X obj 660 953 r vol3 @hv_param 0 1 0.2;
#X obj 165 948 r vol2 @hv_param 0 1 0.2;
#X obj 36 270 loadbang;
#N canvas 335 73 1021 593 oscReceive 0;
#X obj 55 184 netreceive -u -b;
#X msg 78 143 listen 0;
#X text 152 143 stop listening;
#X text 64 58 packets from network;
#X text 173 177 UDP packets \, binary output, f 13;
#X obj 45 272 oscparse;
#X text 150 114 listen on port 8000;
#X obj 177 269 oscparse;
#X obj 177 293 list trim;
#X text 241 267 Parse the OSC message;
#X obj 177 319 route unity;
#X msg 66 115 listen 8000;
#X obj 66 84 loadbang;
#X obj 116 433 bng 15 250 50 0 empty empty empty 17 7 0 10 -262144
-1 -1;
#X obj 448 438 bng 15 250 50 0 empty empty empty 17 7 0 10 -262144
-1 -1;
#X obj 194 435 bng 15 250 50 0 empty empty empty 17 7 0 10 -262144
-1 -1;
#X obj 283 434 bng 15 250 50 0 empty empty empty 17 7 0 10 -262144
-1 -1;
#X obj 596 423 bng 15 250 50 0 empty empty empty 17 7 0 10 -262144
-1 -1;
#X obj 543 441 bng 15 250 50 0 empty empty empty 17 7 0 10 -262144
-1 -1;
#X floatatom 920 435 5 0 0 0 - - -;
#X obj 920 458 s metronum;
#X obj 94 459 s startTrig;
#X obj 196 460 s loadTrig;
#X obj 282 458 s endTrig;
#X obj 448 459 s damageTrig;
#X floatatom 827 437 5 0 0 0 - - -;
#X obj 827 460 s basemidi;
#X obj 12 441 bng 15 250 50 0 empty empty empty 17 7 0 10 -262144 -1
-1;
#X obj 543 461 s eggTrig;
#X obj 12 461 s initTrig;
#X obj 359 438 bng 15 250 50 0 empty empty empty 17 7 0 10 -262144
-1 -1;
#X obj 359 458 s deathTrig;
#X obj 173 359 route init start load end death damage egg shieldStart
shieldStop basefreq metronum, f 83;
#X obj 616 456 s shieldStart;
#X obj 722 438 bng 15 250 50 0 empty empty empty 17 7 0 10 -262144
-1 -1;
#X obj 722 458 s shieldStop;
#X obj 46 295 print OSC;
#X connect 0 0 5 0;
#X connect 0 0 7 0;
#X connect 1 0 0 0;
#X connect 5 0 36 0;
#X connect 7 0 8 0;
#X connect 8 0 10 0;
#X connect 10 0 32 0;
#X connect 11 0 0 0;
#X connect 12 0 11 0;
#X connect 13 0 21 0;
#X connect 14 0 24 0;
#X connect 15 0 22 0;
#X connect 16 0 23 0;
#X connect 17 0 33 0;
#X connect 18 0 28 0;
#X connect 19 0 20 0;
#X connect 25 0 26 0;
#X connect 27 0 29 0;
#X connect 30 0 31 0;
#X connect 32 0 27 0;
#X connect 32 1 13 0;
#X connect 32 2 15 0;
#X connect 32 3 16 0;
#X connect 32 4 30 0;
#X connect 32 5 14 0;
#X connect 32 6 18 0;
#X connect 32 7 17 0;
#X connect 32 8 34 0;
#X connect 32 9 25 0;
#X connect 32 10 19 0;
#X connect 34 0 35 0;
#X restore 951 81 pd oscReceive;
#N canvas 400 23 450 300 oscSend 0;
#X msg 158 207 disconnect;
#X obj 61 253 netsend -u -b;
#X obj 59 55 list prepend send;
#X obj 59 80 list trim;
#X obj 59 23 r oscOut;
#X obj 147 108 loadbang;
#X msg 97 144 connect localhost 8001;
#X msg 185 176 connect 127.0.0.1 8001;
#X text 221 84 send to port 8001;
#X obj 314 144 r startTrig;
#X connect 0 0 1 0;
#X connect 2 0 3 0;
#X connect 3 0 1 0;
#X connect 4 0 2 0;
#X connect 5 0 6 0;
#X connect 6 0 1 0;
#X connect 7 0 1 0;
#X connect 9 0 7 0;
#X restore 951 57 pd oscSend;
#X obj 168 137 r metronum;
#X obj 111 310 r basemidi;
#X obj 618 113 r startTrig;
#X obj 335 95 r endTrig;
#X obj 288 43 r loadTrig;
#X obj 14 17 loadbang;
#X obj 140 51 r initTrig;
#X obj 112 475 *~ 0.5;
#X obj 631 457 *~ 0.2;
#X obj 640 911 *~ 0.2;
#X obj 119 897 *~ 0.2;
#X msg 104 85 1;
#N canvas 0 356 448 307 SFX 0;
#X obj 115 196 dac~;
#N canvas 1030 5 509 594 shd 0;
#X obj 118 384 nbx 5 14 0 1e+037 0 0 empty empty empty 0 -8 0 10 -262144
-1 -1 0 256;
#X obj 61 174 int;
#X obj 102 172 + 1;
#X obj 65 118 tgl 15 0 empty empty empty 17 7 0 10 -262144 -1 -1 0
1;
#X msg 68 90 1;
#X msg 173 176 0;
#X obj 122 487 syn2.ctl;
#X msg 137 451 5;
#X msg 173 450 -4;
#X msg 212 451 597;
#X msg 254 450 737;
#X obj 68 542 outlet~;
#X obj 65 138 metro 50;
#X obj 127 32 inlet;
#X obj 118 419 * 64;
#X obj 126 60 route bang float;
#X obj 78 203 moses 5;
#X obj 60 269 sel 0 1 2 3 4;
#X msg 45 340 1;
#X msg 80 340 1.2;
#X msg 120 338 2;
#X msg 174 340 1.5;
#X obj 250 387 loadbang;
#X obj 46 450 print egg;
#X connect 0 0 14 0;
#X connect 1 0 2 0;
#X connect 1 0 16 0;
#X connect 2 0 1 1;
#X connect 3 0 12 0;
#X connect 4 0 3 0;
#X connect 5 0 3 0;
#X connect 5 0 1 1;
#X connect 6 0 11 0;
#X connect 7 0 6 1;
#X connect 8 0 6 2;
#X connect 9 0 6 3;
#X connect 10 0 6 4;
#X connect 12 0 1 0;
#X connect 13 0 15 0;
#X connect 14 0 6 0;
#X connect 14 0 23 0;
#X connect 15 0 4 0;
#X connect 15 1 14 1;
#X connect 16 0 17 0;
#X connect 16 1 5 0;
#X connect 17 0 18 0;
#X connect 17 1 19 0;
#X connect 17 2 20 0;
#X connect 17 3 21 0;
#X connect 18 0 0 0;
#X connect 19 0 0 0;
#X connect 20 0 0 0;
#X connect 21 0 0 0;
#X connect 22 0 7 0;
#X connect 22 0 8 0;
#X connect 22 0 9 0;
#X connect 22 0 10 0;
#X restore 189 113 pd shd;
#N canvas 1321 41 509 594 shd 0;
#X obj 118 384 nbx 5 14 0 1e+037 0 0 empty empty empty 0 -8 0 10 -262144
-1 -1 0 256;
#X obj 61 174 int;
#X obj 112 178 + 1;
#X obj 65 118 tgl 15 0 empty empty empty 17 7 0 10 -262144 -1 -1 0
1;
#X msg 68 90 1;
#X msg 173 176 0;
#X obj 122 487 syn2.ctl;
#X msg 137 449 5;
#X msg 173 450 -4;
#X msg 212 451 597;
#X msg 254 450 737;
#X obj 68 542 outlet~;
#X obj 127 32 inlet;
#X obj 118 419 * 64;
#X obj 126 60 route bang float;
#X msg 45 340 2;
#X msg 80 340 1.97;
#X msg 120 338 1.95;
#X msg 166 339 1.93;
#X msg 210 339 1.87;
#X obj 60 269 sel 0 1 2 3 4 5 6 7 8 9;
#X obj 66 207 moses 10;
#X obj 234 395 loadbang;
#X obj 66 138 metro 80;
#X obj 15 460 print damage;
#X connect 0 0 13 0;
#X connect 1 0 2 0;
#X connect 1 0 21 0;
#X connect 2 0 1 1;
#X connect 3 0 23 0;
#X connect 4 0 3 0;
#X connect 5 0 3 0;
#X connect 5 0 1 1;
#X connect 6 0 11 0;
#X connect 7 0 6 1;
#X connect 8 0 6 2;
#X connect 9 0 6 3;
#X connect 10 0 6 4;
#X connect 12 0 14 0;
#X connect 13 0 6 0;
#X connect 13 0 24 0;
#X connect 14 0 4 0;
#X connect 14 1 13 1;
#X connect 15 0 0 0;
#X connect 16 0 0 0;
#X connect 17 0 0 0;
#X connect 18 0 0 0;
#X connect 19 0 0 0;
#X connect 20 0 15 0;
#X connect 20 1 16 0;
#X connect 20 2 17 0;
#X connect 20 3 18 0;
#X connect 20 4 19 0;
#X connect 21 0 20 0;
#X connect 21 1 5 0;
#X connect 22 0 7 0;
#X connect 22 0 8 0;
#X connect 22 0 9 0;
#X connect 22 0 10 0;
#X connect 23 0 1 0;
#X restore 49 109 pd shd;
#X obj 82 152 *~;
#X obj 164 150 *~;
#X obj 105 24 inlet;
#X obj 42 56 inlet;
#X obj 105 54 route float damage egg;
#X connect 1 0 4 0;
#X connect 2 0 3 0;
#X connect 3 0 0 0;
#X connect 3 0 0 1;
#X connect 4 0 0 1;
#X connect 4 0 0 0;
#X connect 5 0 7 0;
#X connect 6 0 2 0;
#X connect 6 0 1 0;
#X connect 7 0 3 1;
#X connect 7 0 4 1;
#X connect 7 1 2 0;
#X connect 7 2 1 0;
#X restore 525 83 pd SFX;
#X obj 813 114 r deathTrig;
#X obj 653 24 r damageTrig;
#X msg 653 50 damage;
#X obj 747 22 r eggTrig;
#X msg 747 48 egg;
#X msg 583 50 0.01;
#X msg 147 102 0;
#X obj 526 49 r bfreq;
#X obj 584 25 loadbang;
#X floatatom 1053 264 5 0 0 0 - - -;
#X obj 1054 348 oscformat PD message;
#X msg 1086 309 set PD message;
#X obj 1054 383 s oscOut;
#X connect 0 0 117 0;
#X connect 2 0 1 0;
#X connect 5 0 106 0;
#X connect 6 0 10 0;
#X connect 6 0 106 1;
#X connect 7 0 10 0;
#X connect 7 0 106 2;
#X connect 8 0 10 0;
#X connect 8 0 106 3;
#X connect 9 0 10 0;
#X connect 9 0 106 4;
#X connect 10 0 106 0;
#X connect 14 0 21 0;
#X connect 15 0 21 0;
#X connect 16 0 21 0;
#X connect 17 0 21 0;
#X connect 18 0 21 0;
#X connect 19 0 21 0;
#X connect 20 0 21 0;
#X connect 23 0 28 0;
#X connect 24 0 28 1;
#X connect 24 0 29 0;
#X connect 25 0 28 2;
#X connect 25 0 29 0;
#X connect 26 0 28 3;
#X connect 26 0 29 0;
#X connect 27 0 28 4;
#X connect 27 0 29 0;
#X connect 28 0 66 0;
#X connect 29 0 28 0;
#X connect 32 0 67 0;
#X connect 33 0 67 0;
#X connect 34 0 67 0;
#X connect 35 0 67 0;
#X connect 36 0 67 0;
#X connect 37 0 67 0;
#X connect 38 0 67 0;
#X connect 40 0 41 0;
#X connect 41 0 133 0;
#X connect 41 1 108 0;
#X connect 42 0 41 2;
#X connect 44 0 49 0;
#X connect 45 0 49 1;
#X connect 45 0 50 0;
#X connect 46 0 49 2;
#X connect 46 0 50 0;
#X connect 47 0 49 3;
#X connect 47 0 50 0;
#X connect 48 0 49 4;
#X connect 48 0 50 0;
#X connect 49 0 114 0;
#X connect 50 0 49 0;
#X connect 53 0 115 0;
#X connect 54 0 115 0;
#X connect 55 0 115 0;
#X connect 56 0 115 0;
#X connect 57 0 115 0;
#X connect 58 0 115 0;
#X connect 59 0 115 0;
#X connect 62 0 131 0;
#X connect 63 0 62 0;
#X connect 63 0 145 0;
#X connect 64 0 63 0;
#X connect 65 0 63 1;
#X connect 65 1 75 0;
#X connect 69 0 70 0;
#X connect 69 0 72 0;
#X connect 71 0 72 1;
#X connect 72 0 130 0;
#X connect 73 0 72 2;
#X connect 74 0 41 1;
#X connect 75 0 63 0;
#X connect 75 0 62 1;
#X connect 76 0 67 0;
#X connect 77 0 109 0;
#X connect 78 0 109 0;
#X connect 79 0 109 0;
#X connect 81 0 86 0;
#X connect 82 0 86 1;
#X connect 82 0 87 0;
#X connect 83 0 86 2;
#X connect 83 0 87 0;
#X connect 84 0 86 3;
#X connect 84 0 87 0;
#X connect 85 0 86 4;
#X connect 85 0 87 0;
#X connect 86 0 110 0;
#X connect 87 0 86 0;
#X connect 90 0 111 0;
#X connect 91 0 111 0;
#X connect 92 0 111 0;
#X connect 93 0 111 0;
#X connect 94 0 111 0;
#X connect 95 0 111 0;
#X connect 96 0 111 0;
#X connect 98 0 99 0;
#X connect 99 0 132 0;
#X connect 99 1 107 0;
#X connect 100 0 99 1;
#X connect 101 0 111 0;
#X connect 102 0 109 0;
#X connect 103 0 109 0;
#X connect 104 0 109 0;
#X connect 105 0 106 5;
#X connect 106 0 12 0;
#X connect 112 0 99 2;
#X connect 113 0 62 2;
#X connect 116 0 69 0;
#X connect 117 0 3 0;
#X connect 118 0 132 1;
#X connect 119 0 133 1;
#X connect 120 0 116 0;
#X connect 123 0 117 1;
#X connect 124 0 69 0;
#X connect 125 0 102 0;
#X connect 126 0 78 0;
#X connect 127 0 78 0;
#X connect 128 0 2 0;
#X connect 129 0 78 0;
#X connect 129 0 134 0;
#X connect 130 0 61 0;
#X connect 130 0 61 1;
#X connect 131 0 61 0;
#X connect 131 0 61 1;
#X connect 132 0 61 1;
#X connect 133 0 61 0;
#X connect 134 0 0 0;
#X connect 137 0 138 0;
#X connect 138 0 135 1;
#X connect 139 0 140 0;
#X connect 140 0 135 1;
#X connect 141 0 135 1;
#X connect 142 0 0 0;
#X connect 143 0 135 0;
#X connect 144 0 141 0;
#X connect 145 0 146 0;
#X connect 146 0 148 0;
#X connect 147 0 146 0;
