#N canvas 91 23 1349 755 12;
#X obj 404 50 tgl 15 0 empty empty empty 17 7 0 10 -262144 -1 -1 1
1;
#X obj 440 12 vsl 15 50 5 200 0 1 empty empty empty 0 -9 0 10 -262144
-1 -1 1600 1;
#X obj 408 77 metro;
#X msg 11 79 \; pd dsp \$1;
#X obj 12 51 tgl 15 0 empty empty empty 17 7 0 10 -258113 -1 -1 1 1
;
#X obj 408 120 s iter;
#X obj 41 504 cnv 15 230 200 empty empty empty 20 12 0 14 -204800 -66577
0;
#X obj 64 530 vsl 15 50 1 100 1 1 dry1 dry1 dry -1 -9 0 10 -262144
-1 -1 1200 1;
#X obj 95 530 vsl 15 50 1 100 1 1 wet1 wet1 wet -1 -9 0 10 -262144
-1 -1 4400 1;
#X obj 137 531 vsl 15 50 1 100 1 1 feedback1 feedback1 feedback -17
-9 0 10 -262144 -1 -1 4300 1;
#X obj 183 531 vsl 15 50 1 100 1 1 damp1 damp1 damp -5 -9 0 10 -262144
-1 -1 3900 1;
#X obj 226 531 vsl 15 50 1 100 1 1 lowcut1 lowcut1 lowcut -11 -9 0
10 -262144 -1 -1 1500 1;
#X obj 974 222 cnv 15 230 200 empty empty empty 20 12 0 14 -204786
-66577 0;
#X obj 997 248 vsl 15 50 1 100 1 1 dry2 dry2 dry -1 -9 0 10 -262144
-1 -1 3700 1;
#X obj 1029 248 vsl 15 50 1 100 1 1 wet2 wet2 wet -1 -9 0 10 -262144
-1 -1 2600 1;
#X obj 1070 249 vsl 15 50 1 100 1 1 feedback2 feedback2 feedback -17
-9 0 10 -262144 -1 -1 4900 1;
#X obj 1116 249 vsl 15 50 1 100 1 1 damp2 damp2 damp -5 -9 0 10 -262144
-1 -1 700 1;
#X obj 1159 249 vsl 15 50 1 100 1 1 lowcut2 lowcut2 lowcut -11 -9 0
10 -262144 -1 -1 300 1;
#N canvas 417 23 721 485 oscrhythm 0;
#X obj 130 31 inlet;
#X obj 189 30 inlet;
#X obj 270 34 inlet;
#X obj 48 46 inlet;
#X obj 78 217 f;
#X msg 247 99 0;
#X msg 290 97 1;
#X msg 336 100 2;
#X msg 380 101 3;
#X obj 276 145 int;
#N canvas 366 38 719 482 pent 0;
#X obj 79 9 inlet;
#X obj 71 65 t f b;
#X msg 126 148 0;
#X obj 152 86 random 8;
#X obj 151 110 sel 0 1 2 3 4 5 6 7;
#X obj 99 221 +;
#X obj 99 245 mtof;
#X msg 166 149 -3;
#X msg 201 151 3;
#X msg 236 150 -5;
#X msg 313 150 -7;
#X msg 350 149 7;
#X msg 272 151 5;
#X obj 100 283 outlet;
#X obj 34 149 f;
#X msg 388 149 12;
#X obj 79 33 ftom;
#X connect 0 0 16 0;
#X connect 1 0 14 0;
#X connect 1 1 3 0;
#X connect 2 0 5 1;
#X connect 3 0 4 0;
#X connect 4 0 2 0;
#X connect 4 1 7 0;
#X connect 4 2 8 0;
#X connect 4 3 9 0;
#X connect 4 4 12 0;
#X connect 4 5 10 0;
#X connect 4 6 11 0;
#X connect 4 7 15 0;
#X connect 5 0 6 0;
#X connect 6 0 13 0;
#X connect 7 0 5 1;
#X connect 8 0 5 1;
#X connect 9 0 5 1;
#X connect 10 0 5 1;
#X connect 11 0 5 1;
#X connect 12 0 5 1;
#X connect 14 0 5 0;
#X connect 15 0 5 1;
#X connect 16 0 1 0;
#X restore 219 259 pd pent;
#N canvas 734 25 450 300 pythag 0;
#X obj 31 68 t f b;
#X obj 37 12 inlet;
#X msg 69 146 1;
#X msg 105 148 1.18519;
#X msg 174 152 1.33333;
#X msg 241 150 1.5;
#X msg 270 149 1.77778;
#X msg 339 149 2;
#X obj 44 217 *;
#X obj 31 92 f;
#X obj 44 241 outlet;
#X obj 152 86 random 6;
#X obj 151 110 sel 0 1 2 3 4 5;
#X connect 0 0 9 0;
#X connect 0 1 11 0;
#X connect 1 0 0 0;
#X connect 2 0 8 1;
#X connect 3 0 8 1;
#X connect 4 0 8 1;
#X connect 5 0 8 1;
#X connect 6 0 8 1;
#X connect 7 0 8 1;
#X connect 8 0 10 0;
#X connect 9 0 8 0;
#X connect 11 0 12 0;
#X connect 12 0 2 0;
#X connect 12 1 3 0;
#X connect 12 2 4 0;
#X connect 12 3 5 0;
#X connect 12 4 6 0;
#X connect 12 5 7 0;
#X restore 143 260 pd pythag;
#N canvas 0 23 450 300 slendro 0;
#X obj 31 68 t f b;
#X obj 37 12 inlet;
#X msg 69 146 1;
#X msg 236 149 1.5;
#X msg 327 151 2;
#X obj 44 217 *;
#X obj 31 92 f;
#X obj 44 241 outlet;
#X obj 152 86 random 6;
#X obj 151 110 sel 0 1 2 3 4 5;
#X msg 105 148 1.1875;
#X msg 168 147 1.3125;
#X msg 279 149 1.75;
#X connect 0 0 6 0;
#X connect 0 1 8 0;
#X connect 1 0 0 0;
#X connect 2 0 5 1;
#X connect 3 0 5 1;
#X connect 4 0 5 1;
#X connect 5 0 7 0;
#X connect 6 0 5 0;
#X connect 8 0 9 0;
#X connect 9 0 2 0;
#X connect 9 1 10 0;
#X connect 9 2 11 0;
#X connect 9 3 3 0;
#X connect 9 4 12 0;
#X connect 9 5 4 0;
#X connect 10 0 5 1;
#X connect 11 0 5 1;
#X connect 12 0 5 1;
#X restore 284 262 pd slendro;
#N canvas 0 23 450 300 harrison 0;
#X obj 31 68 t f b;
#X obj 37 12 inlet;
#X msg 69 146 1;
#X msg 189 150 1.33333;
#X msg 254 151 1.5;
#X msg 373 153 2;
#X obj 44 217 *;
#X obj 31 92 f;
#X obj 44 241 outlet;
#X obj 152 86 random 6;
#X obj 151 110 sel 0 1 2 3 4 5;
#X msg 105 148 1.14286;
#X msg 289 151 1.71429;
#X connect 0 0 7 0;
#X connect 0 1 9 0;
#X connect 1 0 0 0;
#X connect 2 0 6 1;
#X connect 3 0 6 1;
#X connect 4 0 6 1;
#X connect 5 0 6 1;
#X connect 6 0 8 0;
#X connect 7 0 6 0;
#X connect 9 0 10 0;
#X connect 10 0 2 0;
#X connect 10 1 11 0;
#X connect 10 2 3 0;
#X connect 10 3 4 0;
#X connect 10 4 12 0;
#X connect 10 5 5 0;
#X connect 11 0 6 1;
#X connect 12 0 6 1;
#X restore 380 265 pd harrison;
#X msg 435 102 4;
#X obj 147 219 f;
#X obj 201 223 f;
#X obj 239 222 f;
#X obj 281 223 f;
#N canvas 532 23 450 300 rhythm 0;
#X obj 21 130 sel 0;
#X obj 24 164 outlet;
#X obj 114 71 inlet;
#X obj 22 98 mod;
#X obj 24 58 int;
#X obj 56 58 + 1;
#X obj 88 25 inlet;
#X obj 24 13 r iter;
#X connect 0 0 1 0;
#X connect 2 0 3 1;
#X connect 3 0 0 0;
#X connect 4 0 5 0;
#X connect 4 0 3 0;
#X connect 5 0 4 1;
#X connect 6 0 5 1;
#X connect 7 0 4 0;
#X restore 142 59 pd rhythm;
#N canvas 0 23 619 340 justdiatonic 0;
#X obj 31 68 t f b;
#X obj 37 12 inlet;
#X msg 69 146 1;
#X obj 44 217 *;
#X obj 31 92 f;
#X obj 44 241 outlet;
#X msg 105 147 1.125;
#X msg 159 148 1.2;
#X msg 197 148 1.33333;
#X msg 281 153 1.5;
#X obj 151 110 sel 0 1 2 3 4 5 6 7;
#X msg 321 152 1.66667;
#X msg 412 152 1.875;
#X msg 463 151 2;
#X obj 152 85 random 8;
#X connect 0 0 4 0;
#X connect 0 1 14 0;
#X connect 1 0 0 0;
#X connect 2 0 3 1;
#X connect 3 0 5 0;
#X connect 4 0 3 0;
#X connect 6 0 3 1;
#X connect 7 0 3 1;
#X connect 8 0 3 1;
#X connect 9 0 3 1;
#X connect 10 0 2 0;
#X connect 10 1 6 0;
#X connect 10 2 7 0;
#X connect 10 3 8 0;
#X connect 10 4 9 0;
#X connect 10 5 11 0;
#X connect 10 6 12 0;
#X connect 10 7 13 0;
#X connect 11 0 3 1;
#X connect 14 0 10 0;
#X restore 500 265 pd justdiatonic;
#X obj 322 223 f;
#X msg 501 100 5;
#X obj 326 31 print oscvoice #1;
#N canvas 248 23 719 482 major 0;
#X obj 79 9 inlet;
#X obj 71 65 t f b;
#X msg 126 148 0;
#X obj 152 86 random 8;
#X obj 151 110 sel 0 1 2 3 4 5 6 7;
#X obj 99 221 +;
#X obj 99 245 mtof;
#X obj 100 283 outlet;
#X obj 34 149 f;
#X msg 388 149 12;
#X obj 79 33 ftom;
#X msg 166 149 2;
#X msg 201 151 4;
#X msg 236 150 5;
#X msg 272 151 7;
#X msg 313 150 9;
#X msg 350 149 11;
#X connect 0 0 10 0;
#X connect 1 0 8 0;
#X connect 1 1 3 0;
#X connect 2 0 5 1;
#X connect 3 0 4 0;
#X connect 4 0 2 0;
#X connect 4 1 11 0;
#X connect 4 2 12 0;
#X connect 4 3 13 0;
#X connect 4 4 14 0;
#X connect 4 5 15 0;
#X connect 4 6 16 0;
#X connect 4 7 9 0;
#X connect 5 0 6 0;
#X connect 6 0 7 0;
#X connect 8 0 5 0;
#X connect 9 0 5 1;
#X connect 10 0 1 0;
#X connect 11 0 5 1;
#X connect 12 0 5 1;
#X connect 13 0 5 1;
#X connect 14 0 5 1;
#X connect 15 0 5 1;
#X connect 16 0 5 1;
#X restore 622 266 pd major;
#X obj 374 224 f;
#X msg 546 109 6;
#X obj 267 60 route bare pythag pent slendro harrison justdiatonic
major;
#X obj 289 184 sel 0 1 2 3 4 5 6;
#X obj 598 110 print Not Found;
#X obj 181 336 outlet;
#X connect 0 0 19 0;
#X connect 1 0 19 1;
#X connect 2 0 23 0;
#X connect 2 0 27 0;
#X connect 3 0 4 1;
#X connect 3 0 15 1;
#X connect 3 0 16 1;
#X connect 3 0 17 1;
#X connect 3 0 18 1;
#X connect 3 0 21 1;
#X connect 3 0 25 1;
#X connect 4 0 30 0;
#X connect 5 0 9 1;
#X connect 6 0 9 1;
#X connect 7 0 9 1;
#X connect 8 0 9 1;
#X connect 9 0 28 0;
#X connect 10 0 30 0;
#X connect 11 0 30 0;
#X connect 12 0 30 0;
#X connect 13 0 30 0;
#X connect 14 0 9 1;
#X connect 15 0 11 0;
#X connect 16 0 10 0;
#X connect 17 0 12 0;
#X connect 18 0 13 0;
#X connect 19 0 9 0;
#X connect 20 0 30 0;
#X connect 21 0 20 0;
#X connect 22 0 9 1;
#X connect 24 0 30 0;
#X connect 25 0 24 0;
#X connect 26 0 9 1;
#X connect 27 0 5 0;
#X connect 27 1 6 0;
#X connect 27 2 7 0;
#X connect 27 3 8 0;
#X connect 27 4 14 0;
#X connect 27 5 22 0;
#X connect 27 6 26 0;
#X connect 27 7 29 0;
#X connect 28 0 4 0;
#X connect 28 1 15 0;
#X connect 28 2 16 0;
#X connect 28 3 17 0;
#X connect 28 4 18 0;
#X connect 28 5 21 0;
#X connect 28 6 25 0;
#X restore 83 253 pd oscrhythm;
#X obj 122 201 nbx 5 14 1 1e+37 0 1 empty empty empty 0 -8 0 10 -262144
-1 -1 7 256;
#X obj 103 179 nbx 5 14 1 1e+37 0 1 empty empty empty 0 -8 0 10 -262144
-1 -1 1 256;
#X msg 245 163 pythag;
#X msg 244 140 bare;
#X msg 247 186 pent;
#X msg 246 209 slendro;
#X msg 247 233 harrison;
#X obj 41 179 nbx 5 14 0 1e+37 0 1 empty empty empty 0 -8 0 10 -262144
-1 -1 69 256;
#X obj 136 450 dac~;
#X obj 41 198 mtof;
#X obj 68 635 vsl 15 50 40 2000 0 1 dec1 dec1 decay -7 -9 0 10 -262144
-1 -1 2600 1;
#X obj 1012 351 vsl 15 50 40 10000 0 1 dec2 dec2 decay -7 -9 0 10 -262144
-1 -1 3500 1;
#X obj 100 592 pack f f f f f;
#X obj 72 595 bng 15 250 50 0 empty empty empty 17 7 0 10 -262144 -1
-1;
#X obj 217 592 s rev1;
#N canvas 0 23 759 643 FX 0;
#X obj 37 37 inlet~;
#N canvas 470 331 970 462 rev 0;
#X obj 40 68 inlet~;
#X obj 37 244 outlet~;
#X msg 176 134 dry-gain \$1;
#X msg 272 133 wet-gain \$1;
#X msg 369 131 feedback \$1;
#X msg 468 130 damp \$1;
#X msg 534 131 lowcut \$1;
#X obj 320 59 unpack f f f f f;
#X obj 320 35 inlet;
#X obj 38 199 hv.reverb;
#X connect 0 0 9 0;
#X connect 2 0 9 1;
#X connect 3 0 9 1;
#X connect 4 0 9 1;
#X connect 5 0 9 1;
#X connect 6 0 9 1;
#X connect 7 0 2 0;
#X connect 7 1 3 0;
#X connect 7 2 4 0;
#X connect 7 3 5 0;
#X connect 7 4 6 0;
#X connect 8 0 7 0;
#X connect 9 0 1 0;
#X restore 39 75 pd rev;
#X obj 111 45 inlet;
#X obj 118 104 outlet~;
#X obj 39 108 outlet~;
#X connect 0 0 1 0;
#X connect 0 0 3 0;
#X connect 1 0 4 0;
#X connect 2 0 1 1;
#X restore 81 363 pd FX;
#X obj 129 362 r rev1;
#X obj 70 401 *~;
#X obj 194 403 *~;
#X obj 147 638 vsl 15 50 0 2 0 1 mgain1 mgain1 main_gain -15 -9 0 10
-262144 -1 -1 1600 1;
#X obj 217 639 vsl 15 50 0 2 0 1 fxgain1 fxgain1 FX_gain -15 -9 0 10
-262144 -1 -1 600 1;
#X obj 105 400 r fxgain1;
#X obj 176 372 r mgain1;
#N canvas 294 101 721 485 oscrhythm 0;
#X obj 260 24 inlet;
#X obj 38 36 inlet;
#X obj 68 207 f;
#X msg 237 89 0;
#X msg 280 87 1;
#X msg 326 90 2;
#X msg 370 91 3;
#X obj 239 135 int;
#N canvas 366 38 719 482 pent 0;
#X obj 79 9 inlet;
#X obj 71 65 t f b;
#X msg 126 148 0;
#X obj 152 86 random 8;
#X obj 151 110 sel 0 1 2 3 4 5 6 7;
#X obj 99 221 +;
#X obj 99 245 mtof;
#X msg 166 149 -3;
#X msg 201 151 3;
#X msg 236 150 -5;
#X msg 313 150 -7;
#X msg 350 149 7;
#X msg 272 151 5;
#X obj 100 283 outlet;
#X obj 34 149 f;
#X msg 388 149 12;
#X obj 79 33 ftom;
#X connect 0 0 16 0;
#X connect 1 0 14 0;
#X connect 1 1 3 0;
#X connect 2 0 5 1;
#X connect 3 0 4 0;
#X connect 4 0 2 0;
#X connect 4 1 7 0;
#X connect 4 2 8 0;
#X connect 4 3 9 0;
#X connect 4 4 12 0;
#X connect 4 5 10 0;
#X connect 4 6 11 0;
#X connect 4 7 15 0;
#X connect 5 0 6 0;
#X connect 6 0 13 0;
#X connect 7 0 5 1;
#X connect 8 0 5 1;
#X connect 9 0 5 1;
#X connect 10 0 5 1;
#X connect 11 0 5 1;
#X connect 12 0 5 1;
#X connect 14 0 5 0;
#X connect 15 0 5 1;
#X connect 16 0 1 0;
#X restore 209 249 pd pent;
#N canvas 734 25 450 300 pythag 0;
#X obj 31 68 t f b;
#X obj 37 12 inlet;
#X msg 69 146 1;
#X msg 105 148 1.18519;
#X msg 174 152 1.33333;
#X msg 241 150 1.5;
#X msg 270 149 1.77778;
#X msg 339 149 2;
#X obj 44 217 *;
#X obj 31 92 f;
#X obj 44 241 outlet;
#X obj 152 86 random 6;
#X obj 151 110 sel 0 1 2 3 4 5;
#X connect 0 0 9 0;
#X connect 0 1 11 0;
#X connect 1 0 0 0;
#X connect 2 0 8 1;
#X connect 3 0 8 1;
#X connect 4 0 8 1;
#X connect 5 0 8 1;
#X connect 6 0 8 1;
#X connect 7 0 8 1;
#X connect 8 0 10 0;
#X connect 9 0 8 0;
#X connect 11 0 12 0;
#X connect 12 0 2 0;
#X connect 12 1 3 0;
#X connect 12 2 4 0;
#X connect 12 3 5 0;
#X connect 12 4 6 0;
#X connect 12 5 7 0;
#X restore 133 250 pd pythag;
#N canvas 0 23 450 300 slendro 0;
#X obj 31 68 t f b;
#X obj 37 12 inlet;
#X msg 69 146 1;
#X msg 236 149 1.5;
#X msg 327 151 2;
#X obj 44 217 *;
#X obj 31 92 f;
#X obj 44 241 outlet;
#X obj 152 86 random 6;
#X obj 151 110 sel 0 1 2 3 4 5;
#X msg 105 148 1.1875;
#X msg 168 147 1.3125;
#X msg 279 149 1.75;
#X connect 0 0 6 0;
#X connect 0 1 8 0;
#X connect 1 0 0 0;
#X connect 2 0 5 1;
#X connect 3 0 5 1;
#X connect 4 0 5 1;
#X connect 5 0 7 0;
#X connect 6 0 5 0;
#X connect 8 0 9 0;
#X connect 9 0 2 0;
#X connect 9 1 10 0;
#X connect 9 2 11 0;
#X connect 9 3 3 0;
#X connect 9 4 12 0;
#X connect 9 5 4 0;
#X connect 10 0 5 1;
#X connect 11 0 5 1;
#X connect 12 0 5 1;
#X restore 274 252 pd slendro;
#N canvas 0 23 450 300 harrison 0;
#X obj 31 68 t f b;
#X obj 37 12 inlet;
#X msg 69 146 1;
#X msg 189 150 1.33333;
#X msg 254 151 1.5;
#X msg 373 153 2;
#X obj 44 217 *;
#X obj 31 92 f;
#X obj 44 241 outlet;
#X obj 152 86 random 6;
#X obj 151 110 sel 0 1 2 3 4 5;
#X msg 105 148 1.14286;
#X msg 289 151 1.71429;
#X connect 0 0 7 0;
#X connect 0 1 9 0;
#X connect 1 0 0 0;
#X connect 2 0 6 1;
#X connect 3 0 6 1;
#X connect 4 0 6 1;
#X connect 5 0 6 1;
#X connect 6 0 8 0;
#X connect 7 0 6 0;
#X connect 9 0 10 0;
#X connect 10 0 2 0;
#X connect 10 1 11 0;
#X connect 10 2 3 0;
#X connect 10 3 4 0;
#X connect 10 4 12 0;
#X connect 10 5 5 0;
#X connect 11 0 6 1;
#X connect 12 0 6 1;
#X restore 370 255 pd harrison;
#X msg 425 92 4;
#X obj 137 209 f;
#X obj 191 213 f;
#X obj 229 212 f;
#X obj 271 213 f;
#X obj 316 21 print oscvoice #2;
#N canvas 0 23 619 340 justdiatonic 0;
#X obj 31 68 t f b;
#X obj 37 12 inlet;
#X msg 69 146 1;
#X obj 44 217 *;
#X obj 31 92 f;
#X obj 44 241 outlet;
#X msg 105 147 1.125;
#X msg 159 148 1.2;
#X msg 197 148 1.33333;
#X msg 281 153 1.5;
#X obj 151 110 sel 0 1 2 3 4 5 6 7;
#X msg 321 152 1.66667;
#X msg 412 152 1.875;
#X msg 463 151 2;
#X obj 152 85 random 8;
#X connect 0 0 4 0;
#X connect 0 1 14 0;
#X connect 1 0 0 0;
#X connect 2 0 3 1;
#X connect 3 0 5 0;
#X connect 4 0 3 0;
#X connect 6 0 3 1;
#X connect 7 0 3 1;
#X connect 8 0 3 1;
#X connect 9 0 3 1;
#X connect 10 0 2 0;
#X connect 10 1 6 0;
#X connect 10 2 7 0;
#X connect 10 3 8 0;
#X connect 10 4 9 0;
#X connect 10 5 11 0;
#X connect 10 6 12 0;
#X connect 10 7 13 0;
#X connect 11 0 3 1;
#X connect 14 0 10 0;
#X restore 490 255 pd justdiatonic;
#X obj 312 213 f;
#X msg 491 90 5;
#N canvas 366 38 719 482 major 0;
#X obj 79 9 inlet;
#X obj 71 65 t f b;
#X msg 126 148 0;
#X obj 152 86 random 8;
#X obj 151 110 sel 0 1 2 3 4 5 6 7;
#X obj 99 221 +;
#X obj 99 245 mtof;
#X obj 100 283 outlet;
#X obj 34 149 f;
#X msg 388 149 12;
#X obj 79 33 ftom;
#X msg 166 149 2;
#X msg 201 151 4;
#X msg 236 150 5;
#X msg 272 151 7;
#X msg 313 150 9;
#X msg 350 149 11;
#X connect 0 0 10 0;
#X connect 1 0 8 0;
#X connect 1 1 3 0;
#X connect 2 0 5 1;
#X connect 3 0 4 0;
#X connect 4 0 2 0;
#X connect 4 1 11 0;
#X connect 4 2 12 0;
#X connect 4 3 13 0;
#X connect 4 4 14 0;
#X connect 4 5 15 0;
#X connect 4 6 16 0;
#X connect 4 7 9 0;
#X connect 5 0 6 0;
#X connect 6 0 7 0;
#X connect 8 0 5 0;
#X connect 9 0 5 1;
#X connect 10 0 1 0;
#X connect 11 0 5 1;
#X connect 12 0 5 1;
#X connect 13 0 5 1;
#X connect 14 0 5 1;
#X connect 15 0 5 1;
#X connect 16 0 5 1;
#X restore 607 252 pd major;
#X obj 279 174 sel 0 1 2 3 4 5 6;
#X obj 359 209 f;
#X obj 257 50 route bare pythag pent slendro harrison justdiatonic
major;
#X msg 559 94 6;
#X obj 184 346 outlet;
#X obj 137 62 bng 15 250 50 0 empty empty empty 17 7 0 10 -262144 -1
-1;
#X connect 0 0 17 0;
#X connect 0 0 24 0;
#X connect 1 0 2 1;
#X connect 1 0 13 1;
#X connect 1 0 14 1;
#X connect 1 0 15 1;
#X connect 1 0 16 1;
#X connect 1 0 19 1;
#X connect 1 0 23 1;
#X connect 1 0 27 0;
#X connect 2 0 26 0;
#X connect 3 0 7 1;
#X connect 4 0 7 1;
#X connect 5 0 7 1;
#X connect 6 0 7 1;
#X connect 7 0 22 0;
#X connect 8 0 26 0;
#X connect 9 0 26 0;
#X connect 10 0 26 0;
#X connect 11 0 26 0;
#X connect 12 0 7 1;
#X connect 13 0 9 0;
#X connect 14 0 8 0;
#X connect 15 0 10 0;
#X connect 16 0 11 0;
#X connect 18 0 26 0;
#X connect 19 0 18 0;
#X connect 20 0 7 1;
#X connect 21 0 26 0;
#X connect 22 0 2 0;
#X connect 22 1 13 0;
#X connect 22 2 14 0;
#X connect 22 3 15 0;
#X connect 22 4 16 0;
#X connect 22 5 19 0;
#X connect 22 6 23 0;
#X connect 23 0 21 0;
#X connect 24 0 3 0;
#X connect 24 1 4 0;
#X connect 24 2 5 0;
#X connect 24 3 6 0;
#X connect 24 4 12 0;
#X connect 24 5 20 0;
#X connect 24 6 25 0;
#X connect 25 0 7 1;
#X connect 27 0 7 0;
#X restore 607 361 pd oscrhythm;
#X msg 786 272 pythag;
#X msg 785 249 bare;
#X msg 788 295 pent;
#X msg 787 318 slendro;
#X msg 788 342 harrison;
#X obj 696 566 dac~;
#N canvas 0 23 759 643 FX 0;
#X obj 37 37 inlet~;
#N canvas 470 331 970 462 rev 0;
#X obj 40 68 inlet~;
#X obj 37 244 outlet~;
#X msg 176 134 dry-gain \$1;
#X msg 272 133 wet-gain \$1;
#X msg 369 131 feedback \$1;
#X msg 468 130 damp \$1;
#X msg 534 131 lowcut \$1;
#X obj 320 59 unpack f f f f f;
#X obj 320 35 inlet;
#X obj 38 199 hv.reverb;
#X connect 0 0 9 0;
#X connect 2 0 9 1;
#X connect 3 0 9 1;
#X connect 4 0 9 1;
#X connect 5 0 9 1;
#X connect 6 0 9 1;
#X connect 7 0 2 0;
#X connect 7 1 3 0;
#X connect 7 2 4 0;
#X connect 7 3 5 0;
#X connect 7 4 6 0;
#X connect 8 0 7 0;
#X connect 9 0 1 0;
#X restore 38 134 pd rev;
#X obj 110 104 inlet;
#X obj 117 163 outlet~;
#X obj 38 167 outlet~;
#X connect 0 0 1 0;
#X connect 0 0 3 0;
#X connect 1 0 4 0;
#X connect 2 0 1 1;
#X restore 645 470 pd FX;
#X obj 610 511 *~;
#X obj 734 515 *~;
#X obj 1061 355 vsl 15 50 0 2 0 1 mgain2 mgain2 main_gain -15 -9 0
10 -262144 -1 -1 2600 1;
#X obj 1124 356 vsl 15 50 0 2 0 1 fxgain2 fxgain2 FX_gain -15 -9 0
10 -262144 -1 -1 1200 1;
#X obj 1029 309 pack f f f f f;
#X obj 1006 311 bng 15 250 50 0 empty empty empty 17 7 0 10 -262144
-1 -1;
#X obj 1139 309 s rev2;
#X obj 693 469 r rev2;
#X obj 645 512 r fxgain2;
#X obj 769 513 r mgain2;
#X obj 142 219 r dec1;
#X obj 692 409 r dec2;
#X msg 247 259 justdiatonic;
#X msg 782 367 justdiatonic;
#X msg 247 283 major;
#X msg 787 392 major;
#X obj 673 390 hsl 50 15 0 1 0 1 empty empty empty -2 -8 0 10 -262144
-1 -1 1300 1;
#N canvas 787 362 450 300 keys 0;
#X obj 151 122 bng 15 250 50 0 empty empty empty 17 7 0 10 -262144
-1 -1;
#X msg 38 66 next \$1;
#X obj 39 117 *~;
#X obj 39 141 outlet~;
#X obj 46 26 inlet;
#X obj 165 155 inlet;
#X obj 39 93 clone syn.ctl 100 -x;
#X msg 177 52 all \$1;
#X obj 178 26 inlet;
#X connect 1 0 6 0;
#X connect 2 0 3 0;
#X connect 4 0 1 0;
#X connect 5 0 2 1;
#X connect 6 0 2 0;
#X connect 6 1 0 0;
#X connect 7 0 6 1;
#X connect 8 0 7 0;
#X restore 646 436 pd keys;
#X obj 109 279 hsl 50 15 0 1 0 1 empty empty empty -2 -8 0 10 -262144
-1 -1 900 1;
#N canvas 787 362 450 300 keys 0;
#X obj 151 122 bng 15 250 50 0 empty empty empty 17 7 0 10 -262144
-1 -1;
#X msg 38 66 next \$1;
#X obj 39 117 *~;
#X obj 39 141 outlet~;
#X obj 46 26 inlet;
#X obj 165 155 inlet;
#X obj 39 93 clone syn.ctl 100 -x;
#X msg 177 52 all \$1;
#X obj 178 26 inlet;
#X connect 1 0 6 0;
#X connect 2 0 3 0;
#X connect 4 0 1 0;
#X connect 5 0 2 1;
#X connect 6 0 2 0;
#X connect 6 1 0 0;
#X connect 7 0 6 1;
#X connect 8 0 7 0;
#X restore 82 325 pd keys;
#X obj 128 298 r dec1;
#X obj 19 253 s bfreq;
#X obj 613 257 nbx 5 14 0 1e+37 0 1 empty empty empty 0 -8 0 10 -262144
-1 -1 0.75 256;
#X obj 624 278 bng 15 250 50 0 empty empty empty 17 7 0 10 -262144
-1 -1;
#X obj 596 304 *;
#X obj 32 149 bng 15 250 50 0 empty empty empty 17 7 0 10 -262144 -1
-1;
#X msg 625 216 0.25;
#X obj 604 133 int;
#X obj 634 131 + 1;
#X obj 547 258 r bfreq;
#X obj 342 107 loadbang;
#X obj 343 139 bng 15 250 50 0 empty empty empty 17 7 0 10 -262144
-1 -1;
#X msg 570 215 0.5;
#X obj 599 161 mod 64;
#X obj 585 186 sel 0 32 52;
#X msg 673 217 0.75;
#X obj 153 45 int;
#X obj 184 45 + 1;
#X obj 153 93 sel 0;
#X obj 155 9 bng 15 250 50 0 empty empty empty 17 7 0 10 -262144 -1
-1;
#X obj 104 132 random 1;
#X obj 175 127 random 8;
#X obj 175 151 + 0;
#N canvas 417 23 721 485 oscrhythm 0;
#X obj 130 31 inlet;
#X obj 189 30 inlet;
#X obj 270 34 inlet;
#X obj 48 46 inlet;
#X obj 78 217 f;
#X msg 247 99 0;
#X msg 290 97 1;
#X msg 336 100 2;
#X msg 380 101 3;
#X obj 276 145 int;
#N canvas 366 38 719 482 pent 0;
#X obj 79 9 inlet;
#X obj 71 65 t f b;
#X msg 126 148 0;
#X obj 152 86 random 8;
#X obj 151 110 sel 0 1 2 3 4 5 6 7;
#X obj 99 221 +;
#X obj 99 245 mtof;
#X msg 166 149 -3;
#X msg 201 151 3;
#X msg 236 150 -5;
#X msg 313 150 -7;
#X msg 350 149 7;
#X msg 272 151 5;
#X obj 100 283 outlet;
#X obj 34 149 f;
#X msg 388 149 12;
#X obj 79 33 ftom;
#X connect 0 0 16 0;
#X connect 1 0 14 0;
#X connect 1 1 3 0;
#X connect 2 0 5 1;
#X connect 3 0 4 0;
#X connect 4 0 2 0;
#X connect 4 1 7 0;
#X connect 4 2 8 0;
#X connect 4 3 9 0;
#X connect 4 4 12 0;
#X connect 4 5 10 0;
#X connect 4 6 11 0;
#X connect 4 7 15 0;
#X connect 5 0 6 0;
#X connect 6 0 13 0;
#X connect 7 0 5 1;
#X connect 8 0 5 1;
#X connect 9 0 5 1;
#X connect 10 0 5 1;
#X connect 11 0 5 1;
#X connect 12 0 5 1;
#X connect 14 0 5 0;
#X connect 15 0 5 1;
#X connect 16 0 1 0;
#X restore 219 259 pd pent;
#N canvas 734 25 450 300 pythag 0;
#X obj 31 68 t f b;
#X obj 37 12 inlet;
#X msg 69 146 1;
#X msg 105 148 1.18519;
#X msg 174 152 1.33333;
#X msg 241 150 1.5;
#X msg 270 149 1.77778;
#X msg 339 149 2;
#X obj 44 217 *;
#X obj 31 92 f;
#X obj 44 241 outlet;
#X obj 152 86 random 6;
#X obj 151 110 sel 0 1 2 3 4 5;
#X connect 0 0 9 0;
#X connect 0 1 11 0;
#X connect 1 0 0 0;
#X connect 2 0 8 1;
#X connect 3 0 8 1;
#X connect 4 0 8 1;
#X connect 5 0 8 1;
#X connect 6 0 8 1;
#X connect 7 0 8 1;
#X connect 8 0 10 0;
#X connect 9 0 8 0;
#X connect 11 0 12 0;
#X connect 12 0 2 0;
#X connect 12 1 3 0;
#X connect 12 2 4 0;
#X connect 12 3 5 0;
#X connect 12 4 6 0;
#X connect 12 5 7 0;
#X restore 143 260 pd pythag;
#N canvas 0 23 450 300 slendro 0;
#X obj 31 68 t f b;
#X obj 37 12 inlet;
#X msg 69 146 1;
#X msg 236 149 1.5;
#X msg 327 151 2;
#X obj 44 217 *;
#X obj 31 92 f;
#X obj 44 241 outlet;
#X obj 152 86 random 6;
#X obj 151 110 sel 0 1 2 3 4 5;
#X msg 105 148 1.1875;
#X msg 168 147 1.3125;
#X msg 279 149 1.75;
#X connect 0 0 6 0;
#X connect 0 1 8 0;
#X connect 1 0 0 0;
#X connect 2 0 5 1;
#X connect 3 0 5 1;
#X connect 4 0 5 1;
#X connect 5 0 7 0;
#X connect 6 0 5 0;
#X connect 8 0 9 0;
#X connect 9 0 2 0;
#X connect 9 1 10 0;
#X connect 9 2 11 0;
#X connect 9 3 3 0;
#X connect 9 4 12 0;
#X connect 9 5 4 0;
#X connect 10 0 5 1;
#X connect 11 0 5 1;
#X connect 12 0 5 1;
#X restore 284 262 pd slendro;
#N canvas 0 23 450 300 harrison 0;
#X obj 31 68 t f b;
#X obj 37 12 inlet;
#X msg 69 146 1;
#X msg 189 150 1.33333;
#X msg 254 151 1.5;
#X msg 373 153 2;
#X obj 44 217 *;
#X obj 31 92 f;
#X obj 44 241 outlet;
#X obj 152 86 random 6;
#X obj 151 110 sel 0 1 2 3 4 5;
#X msg 105 148 1.14286;
#X msg 289 151 1.71429;
#X connect 0 0 7 0;
#X connect 0 1 9 0;
#X connect 1 0 0 0;
#X connect 2 0 6 1;
#X connect 3 0 6 1;
#X connect 4 0 6 1;
#X connect 5 0 6 1;
#X connect 6 0 8 0;
#X connect 7 0 6 0;
#X connect 9 0 10 0;
#X connect 10 0 2 0;
#X connect 10 1 11 0;
#X connect 10 2 3 0;
#X connect 10 3 4 0;
#X connect 10 4 12 0;
#X connect 10 5 5 0;
#X connect 11 0 6 1;
#X connect 12 0 6 1;
#X restore 380 265 pd harrison;
#X msg 435 102 4;
#X obj 147 219 f;
#X obj 201 223 f;
#X obj 239 222 f;
#X obj 281 223 f;
#N canvas 532 23 450 300 rhythm 0;
#X obj 21 130 sel 0;
#X obj 24 164 outlet;
#X obj 114 71 inlet;
#X obj 22 98 mod;
#X obj 24 58 int;
#X obj 56 58 + 1;
#X obj 88 25 inlet;
#X obj 24 13 r iter;
#X connect 0 0 1 0;
#X connect 2 0 3 1;
#X connect 3 0 0 0;
#X connect 4 0 5 0;
#X connect 4 0 3 0;
#X connect 5 0 4 1;
#X connect 6 0 5 1;
#X connect 7 0 4 0;
#X restore 142 59 pd rhythm;
#N canvas 0 23 619 340 justdiatonic 0;
#X obj 31 68 t f b;
#X obj 37 12 inlet;
#X msg 69 146 1;
#X obj 44 217 *;
#X obj 31 92 f;
#X obj 44 241 outlet;
#X msg 105 147 1.125;
#X msg 159 148 1.2;
#X msg 197 148 1.33333;
#X msg 281 153 1.5;
#X obj 151 110 sel 0 1 2 3 4 5 6 7;
#X msg 321 152 1.66667;
#X msg 412 152 1.875;
#X msg 463 151 2;
#X obj 152 85 random 8;
#X connect 0 0 4 0;
#X connect 0 1 14 0;
#X connect 1 0 0 0;
#X connect 2 0 3 1;
#X connect 3 0 5 0;
#X connect 4 0 3 0;
#X connect 6 0 3 1;
#X connect 7 0 3 1;
#X connect 8 0 3 1;
#X connect 9 0 3 1;
#X connect 10 0 2 0;
#X connect 10 1 6 0;
#X connect 10 2 7 0;
#X connect 10 3 8 0;
#X connect 10 4 9 0;
#X connect 10 5 11 0;
#X connect 10 6 12 0;
#X connect 10 7 13 0;
#X connect 11 0 3 1;
#X connect 14 0 10 0;
#X restore 500 265 pd justdiatonic;
#X obj 322 223 f;
#X msg 501 100 5;
#X obj 326 31 print oscvoice #1;
#N canvas 248 23 719 482 major 0;
#X obj 79 9 inlet;
#X obj 71 65 t f b;
#X msg 126 148 0;
#X obj 152 86 random 8;
#X obj 151 110 sel 0 1 2 3 4 5 6 7;
#X obj 99 221 +;
#X obj 99 245 mtof;
#X obj 100 283 outlet;
#X obj 34 149 f;
#X msg 388 149 12;
#X obj 79 33 ftom;
#X msg 166 149 2;
#X msg 201 151 4;
#X msg 236 150 5;
#X msg 272 151 7;
#X msg 313 150 9;
#X msg 350 149 11;
#X connect 0 0 10 0;
#X connect 1 0 8 0;
#X connect 1 1 3 0;
#X connect 2 0 5 1;
#X connect 3 0 4 0;
#X connect 4 0 2 0;
#X connect 4 1 11 0;
#X connect 4 2 12 0;
#X connect 4 3 13 0;
#X connect 4 4 14 0;
#X connect 4 5 15 0;
#X connect 4 6 16 0;
#X connect 4 7 9 0;
#X connect 5 0 6 0;
#X connect 6 0 7 0;
#X connect 8 0 5 0;
#X connect 9 0 5 1;
#X connect 10 0 1 0;
#X connect 11 0 5 1;
#X connect 12 0 5 1;
#X connect 13 0 5 1;
#X connect 14 0 5 1;
#X connect 15 0 5 1;
#X connect 16 0 5 1;
#X restore 622 266 pd major;
#X obj 374 224 f;
#X msg 546 109 6;
#X obj 267 60 route bare pythag pent slendro harrison justdiatonic
major;
#X obj 289 184 sel 0 1 2 3 4 5 6;
#X obj 598 110 print Not Found;
#X obj 181 336 outlet;
#X connect 0 0 19 0;
#X connect 1 0 19 1;
#X connect 2 0 23 0;
#X connect 2 0 27 0;
#X connect 3 0 4 1;
#X connect 3 0 15 1;
#X connect 3 0 16 1;
#X connect 3 0 17 1;
#X connect 3 0 18 1;
#X connect 3 0 21 1;
#X connect 3 0 25 1;
#X connect 4 0 30 0;
#X connect 5 0 9 1;
#X connect 6 0 9 1;
#X connect 7 0 9 1;
#X connect 8 0 9 1;
#X connect 9 0 28 0;
#X connect 10 0 30 0;
#X connect 11 0 30 0;
#X connect 12 0 30 0;
#X connect 13 0 30 0;
#X connect 14 0 9 1;
#X connect 15 0 11 0;
#X connect 16 0 10 0;
#X connect 17 0 12 0;
#X connect 18 0 13 0;
#X connect 19 0 9 0;
#X connect 20 0 30 0;
#X connect 21 0 20 0;
#X connect 22 0 9 1;
#X connect 24 0 30 0;
#X connect 25 0 24 0;
#X connect 26 0 9 1;
#X connect 27 0 5 0;
#X connect 27 1 6 0;
#X connect 27 2 7 0;
#X connect 27 3 8 0;
#X connect 27 4 14 0;
#X connect 27 5 22 0;
#X connect 27 6 26 0;
#X connect 27 7 29 0;
#X connect 28 0 4 0;
#X connect 28 1 15 0;
#X connect 28 2 16 0;
#X connect 28 3 17 0;
#X connect 28 4 18 0;
#X connect 28 5 21 0;
#X connect 28 6 25 0;
#X restore 290 451 pd oscrhythm;
#X obj 329 399 nbx 5 14 1 1e+37 0 1 empty empty empty 0 -8 0 10 -262144
-1 -1 4 256;
#X obj 310 377 nbx 5 14 1 1e+37 0 1 empty empty empty 0 -8 0 10 -262144
-1 -1 1 256;
#X msg 452 361 pythag;
#X msg 451 338 bare;
#X msg 454 384 pent;
#X msg 453 407 slendro;
#X msg 454 431 harrison;
#X obj 248 377 nbx 5 14 0 1e+37 0 1 empty empty empty 0 -8 0 10 -262144
-1 -1 69 256;
#X obj 343 648 dac~;
#X obj 248 396 mtof;
#N canvas 0 23 759 643 FX 0;
#X obj 37 37 inlet~;
#N canvas 470 331 970 462 rev 0;
#X obj 40 68 inlet~;
#X obj 37 244 outlet~;
#X msg 176 134 dry-gain \$1;
#X msg 272 133 wet-gain \$1;
#X msg 369 131 feedback \$1;
#X msg 468 130 damp \$1;
#X msg 534 131 lowcut \$1;
#X obj 320 59 unpack f f f f f;
#X obj 320 35 inlet;
#X obj 38 199 hv.reverb;
#X connect 0 0 9 0;
#X connect 2 0 9 1;
#X connect 3 0 9 1;
#X connect 4 0 9 1;
#X connect 5 0 9 1;
#X connect 6 0 9 1;
#X connect 7 0 2 0;
#X connect 7 1 3 0;
#X connect 7 2 4 0;
#X connect 7 3 5 0;
#X connect 7 4 6 0;
#X connect 8 0 7 0;
#X connect 9 0 1 0;
#X restore 39 75 pd rev;
#X obj 111 45 inlet;
#X obj 118 104 outlet~;
#X obj 39 108 outlet~;
#X connect 0 0 1 0;
#X connect 0 0 3 0;
#X connect 1 0 4 0;
#X connect 2 0 1 1;
#X restore 288 561 pd FX;
#X obj 336 560 r rev1;
#X obj 277 599 *~;
#X obj 401 601 *~;
#X obj 312 598 r fxgain1;
#X obj 436 599 r mgain1;
#X msg 454 457 justdiatonic;
#X msg 454 481 major;
#X obj 316 477 hsl 50 15 0 1 0 1 empty empty empty -2 -8 0 10 -262144
-1 -1 1100 1;
#N canvas 787 362 450 300 keys 0;
#X obj 151 122 bng 15 250 50 0 empty empty empty 17 7 0 10 -262144
-1 -1;
#X msg 38 66 next \$1;
#X obj 39 117 *~;
#X obj 39 141 outlet~;
#X obj 46 26 inlet;
#X obj 165 155 inlet;
#X obj 39 93 clone syn.ctl 100 -x;
#X msg 177 52 all \$1;
#X obj 178 26 inlet;
#X connect 1 0 6 0;
#X connect 2 0 3 0;
#X connect 4 0 1 0;
#X connect 5 0 2 1;
#X connect 6 0 2 0;
#X connect 6 1 0 0;
#X connect 7 0 6 1;
#X connect 8 0 7 0;
#X restore 289 523 pd keys;
#X obj 335 496 r dec1;
#X obj 226 451 s bfreq;
#X obj 239 347 bng 15 250 50 0 empty empty empty 17 7 0 10 -262144
-1 -1;
#X obj 311 330 random 1;
#X obj 382 325 random 8;
#X obj 382 349 + 0;
#X obj 153 69 mod 20;
#X obj 287 14 loadbang;
#X obj 287 38 del 1000;
#X connect 0 0 2 0;
#X connect 1 0 2 1;
#X connect 2 0 5 0;
#X connect 2 0 77 0;
#X connect 4 0 3 0;
#X connect 7 0 31 0;
#X connect 8 0 31 1;
#X connect 8 0 32 0;
#X connect 9 0 31 2;
#X connect 9 0 32 0;
#X connect 10 0 31 3;
#X connect 10 0 32 0;
#X connect 11 0 31 4;
#X connect 11 0 32 0;
#X connect 13 0 54 0;
#X connect 14 0 54 1;
#X connect 14 0 55 0;
#X connect 15 0 54 2;
#X connect 15 0 55 0;
#X connect 16 0 54 3;
#X connect 16 0 55 0;
#X connect 17 0 54 4;
#X connect 17 0 55 0;
#X connect 18 0 69 0;
#X connect 18 0 89 0;
#X connect 19 0 18 2;
#X connect 20 0 18 1;
#X connect 21 0 18 3;
#X connect 22 0 18 3;
#X connect 23 0 18 3;
#X connect 24 0 18 3;
#X connect 25 0 18 3;
#X connect 26 0 28 0;
#X connect 28 0 18 0;
#X connect 28 0 71 0;
#X connect 31 0 33 0;
#X connect 32 0 31 0;
#X connect 34 0 36 0;
#X connect 34 1 37 0;
#X connect 35 0 34 1;
#X connect 36 0 27 0;
#X connect 37 0 27 1;
#X connect 40 0 36 1;
#X connect 41 0 37 1;
#X connect 42 0 67 0;
#X connect 43 0 42 1;
#X connect 44 0 42 1;
#X connect 45 0 42 1;
#X connect 46 0 42 1;
#X connect 47 0 42 1;
#X connect 49 0 50 0;
#X connect 49 1 51 0;
#X connect 50 0 48 0;
#X connect 51 0 48 1;
#X connect 54 0 56 0;
#X connect 55 0 54 0;
#X connect 57 0 49 1;
#X connect 58 0 50 1;
#X connect 59 0 51 1;
#X connect 61 0 67 2;
#X connect 62 0 18 3;
#X connect 63 0 42 1;
#X connect 64 0 18 3;
#X connect 65 0 42 1;
#X connect 66 0 67 1;
#X connect 67 0 49 0;
#X connect 68 0 69 1;
#X connect 69 0 34 0;
#X connect 70 0 69 2;
#X connect 72 0 74 1;
#X connect 72 0 73 0;
#X connect 73 0 74 0;
#X connect 74 0 42 0;
#X connect 75 0 26 0;
#X connect 76 0 72 0;
#X connect 77 0 78 0;
#X connect 77 0 83 0;
#X connect 78 0 77 1;
#X connect 79 0 74 0;
#X connect 80 0 81 0;
#X connect 81 0 62 0;
#X connect 81 0 46 0;
#X connect 82 0 72 0;
#X connect 83 0 84 0;
#X connect 84 0 82 0;
#X connect 84 1 76 0;
#X connect 84 2 85 0;
#X connect 85 0 72 0;
#X connect 86 0 87 0;
#X connect 86 0 120 0;
#X connect 87 0 86 1;
#X connect 88 0 90 0;
#X connect 88 0 91 0;
#X connect 88 0 117 0;
#X connect 88 0 118 0;
#X connect 89 0 86 0;
#X connect 90 0 20 0;
#X connect 91 0 92 0;
#X connect 92 0 19 0;
#X connect 93 0 113 0;
#X connect 93 0 89 0;
#X connect 94 0 93 2;
#X connect 95 0 93 1;
#X connect 96 0 93 3;
#X connect 97 0 93 3;
#X connect 98 0 93 3;
#X connect 99 0 93 3;
#X connect 100 0 93 3;
#X connect 101 0 103 0;
#X connect 103 0 93 0;
#X connect 103 0 115 0;
#X connect 104 0 106 0;
#X connect 104 1 107 0;
#X connect 105 0 104 1;
#X connect 106 0 102 0;
#X connect 107 0 102 1;
#X connect 108 0 106 1;
#X connect 109 0 107 1;
#X connect 110 0 93 3;
#X connect 111 0 93 3;
#X connect 112 0 113 1;
#X connect 113 0 104 0;
#X connect 114 0 113 2;
#X connect 116 0 101 0;
#X connect 117 0 95 0;
#X connect 118 0 119 0;
#X connect 119 0 94 0;
#X connect 120 0 88 0;
#X connect 121 0 4 0;
#X connect 121 0 122 0;
#X connect 122 0 0 0;
