#N canvas 771 41 556 495 12;
#X obj 106 25 notein;
#X obj 197 205 bng 15 250 50 0 empty empty empty 17 7 0 10 -262144
-1 -1;
#X obj 110 280 pack 50 1000 2000;
#X msg 120 236 50;
#N canvas 344 165 1096 672 keys 0;
#X obj 150 150 bng 15 250 50 0 empty empty empty 17 7 0 10 -262144
-1 -1;
#X msg 37 94 next \$1;
#X obj 38 169 outlet~;
#X obj 37 14 inlet;
#X msg 150 90 all \$1;
#N canvas 0 23 450 300 vary 0;
#X obj 121 4 noise~;
#X obj 243 14 tgl 15 0 empty empty empty 17 7 0 10 -262144 -1 -1 1
1;
#X obj 154 69 snapshot~;
#X obj 278 8 loadbang;
#X obj 243 34 metro 1;
#X obj 167 37 +~ 1;
#X obj 154 93 outlet;
#X connect 0 0 5 0;
#X connect 0 0 2 0;
#X connect 1 0 4 0;
#X connect 2 0 6 0;
#X connect 3 0 1 0;
#X connect 4 0 2 0;
#X restore 98 16 pd vary;
#X obj 37 60 +;
#X msg 164 21 0;
#X msg 201 23 100;
#X obj 91 58 * 0;
#X msg 215 87 all \$1;
#X msg 278 90 all \$1;
#X obj 243 35 inlet;
#X obj 204 62 unpack f f f;
#X obj 34 124 clone syn.ctl 50;
#X connect 1 0 14 0;
#X connect 3 0 6 0;
#X connect 4 0 14 1;
#X connect 5 0 9 0;
#X connect 6 0 1 0;
#X connect 7 0 9 1;
#X connect 8 0 9 1;
#X connect 9 0 6 1;
#X connect 10 0 14 2;
#X connect 11 0 14 3;
#X connect 12 0 13 0;
#X connect 13 0 4 0;
#X connect 13 1 10 0;
#X connect 13 2 11 0;
#X connect 14 0 2 0;
#X connect 14 1 0 0;
#X restore 86 318 pd keys;
#X obj 91 380 dac~;
#X obj 71 162 mtof;
#X obj 125 149 sel 0;
#X obj 71 200 f;
#X obj 86 342 *~ 1;
#X obj 29 270 print;
#X obj 127 173 bang;
#X msg 162 240 500;
#X msg 217 238 100;
#X connect 0 0 6 0;
#X connect 0 1 7 0;
#X connect 1 0 3 0;
#X connect 1 0 12 0;
#X connect 1 0 13 0;
#X connect 2 0 4 1;
#X connect 3 0 2 0;
#X connect 4 0 9 0;
#X connect 6 0 8 1;
#X connect 7 1 11 0;
#X connect 8 0 4 0;
#X connect 8 0 10 0;
#X connect 9 0 5 0;
#X connect 9 0 5 1;
#X connect 11 0 8 0;
#X connect 12 0 2 1;
#X connect 13 0 2 2;
