#N canvas 284 54 793 460 12;
#X obj 35 214 osc~;
#X obj 84 214 osc~;
#X obj 83 250 *~;
#X obj 46 291 *~;
#X obj 106 330 *~;
#X obj 298 234 line~;
#X obj 297 44 inlet;
#X obj 104 367 outlet~;
#X obj 58 70 loadbang;
#X msg 32 130 85;
#X msg 446 196 0 2000;
#X msg 77 130 43;
#X obj 441 168 del 500;
#X obj 352 138 del 200;
#X msg 267 179 0.5 50;
#X msg 353 192 0 1000;
#X msg 160 135 260;
#X connect 0 0 3 0;
#X connect 1 0 2 0;
#X connect 2 0 3 1;
#X connect 3 0 4 0;
#X connect 4 0 7 0;
#X connect 5 0 4 1;
#X connect 6 0 14 0;
#X connect 6 0 13 0;
#X connect 8 0 11 0;
#X connect 8 0 9 0;
#X connect 8 0 16 0;
#X connect 9 0 0 0;
#X connect 10 0 5 0;
#X connect 11 0 1 0;
#X connect 12 0 10 0;
#X connect 13 0 15 0;
#X connect 13 0 12 0;
#X connect 14 0 5 0;
#X connect 15 0 5 0;
#X connect 16 0 2 1;
