#N canvas 327 57 829 530 12;
#X obj 52 256 osc~;
#X obj 58 298 *~;
#X obj 75 371 outlet~;
#X obj 67 7 inlet;
#X floatatom 313 354 5 0 0 0 - - -;
#X floatatom 294 325 5 0 0 0 - - -;
#X floatatom 277 300 5 0 0 0 - - -;
#X floatatom 235 209 5 0 0 0 - - -;
#X floatatom 260 278 5 0 0 0 - - -;
#X text 273 207 peak level;
#X text 301 273 attack duration (ms);
#X text 315 295 decay duration (ms);
#X text 335 321 sustain level (% of peak);
#X text 347 351 release duration (ms);
#N canvas 251 52 707 458 envelope_adsr 0;
#X obj 209 53 moses;
#X obj 112 56 inlet;
#X obj 112 92 sel 0;
#X msg 111 130 stop;
#X obj 209 93 t b b;
#X obj 258 125 t b;
#X obj 174 209 f \$1;
#X obj 174 245 pack 0 \$2;
#X msg 125 245 0;
#X obj 337 145 inlet;
#X obj 377 145 inlet;
#X obj 421 145 inlet;
#X obj 461 145 inlet;
#X obj 314 239 del \$2;
#X obj 314 265 f \$4;
#X obj 390 268 * \$1;
#X obj 389 299 pack 0 \$3;
#X obj 472 301 pack 0 \$5;
#X obj 518 269 inlet;
#X obj 354 358 line~;
#X obj 354 386 outlet~;
#X obj 313 299 * 0.5;
#X connect 0 0 4 0;
#X connect 0 1 5 0;
#X connect 1 0 2 0;
#X connect 2 0 3 0;
#X connect 2 0 17 0;
#X connect 2 1 0 0;
#X connect 3 0 13 0;
#X connect 4 0 5 0;
#X connect 4 1 8 0;
#X connect 5 0 6 0;
#X connect 5 0 13 0;
#X connect 6 0 7 0;
#X connect 7 0 19 0;
#X connect 8 0 19 0;
#X connect 9 0 15 1;
#X connect 9 0 6 1;
#X connect 10 0 13 1;
#X connect 10 0 7 1;
#X connect 11 0 16 1;
#X connect 12 0 14 1;
#X connect 13 0 14 0;
#X connect 14 0 21 0;
#X connect 15 0 16 0;
#X connect 16 0 19 0;
#X connect 17 0 19 0;
#X connect 18 0 17 1;
#X connect 19 0 20 0;
#X connect 21 0 15 0;
#X restore 206 386 pd envelope_adsr;
#X msg 315 163 1;
#X obj 322 120 loadbang;
#X obj 186 247 tgl 15 0 empty empty empty 17 7 0 10 -262144 -1 -1 0
1;
#X obj 193 129 bng 15 250 50 0 empty empty empty 17 7 0 10 -262144
-1 -1;
#X msg 164 205 1;
#X msg 196 205 0;
#X msg 352 162 50;
#X msg 396 161 100;
#X msg 460 161 0.25;
#X obj 196 172 del 50;
#X obj 231 149 outlet;
#X obj 327 242 inlet;
#X msg 503 163 500;
#X obj 259 234 inlet;
#X obj 468 282 inlet;
#X connect 0 0 1 0;
#X connect 1 0 2 0;
#X connect 3 0 0 0;
#X connect 3 0 18 0;
#X connect 4 0 14 5;
#X connect 5 0 14 4;
#X connect 6 0 14 3;
#X connect 7 0 14 1;
#X connect 8 0 14 2;
#X connect 14 0 1 1;
#X connect 15 0 7 0;
#X connect 16 0 15 0;
#X connect 16 0 21 0;
#X connect 16 0 23 0;
#X connect 16 0 27 0;
#X connect 16 0 22 0;
#X connect 17 0 14 0;
#X connect 18 0 19 0;
#X connect 18 0 24 0;
#X connect 18 0 25 0;
#X connect 19 0 17 0;
#X connect 20 0 17 0;
#X connect 21 0 8 0;
#X connect 22 0 6 0;
#X connect 23 0 5 0;
#X connect 24 0 20 0;
#X connect 26 0 6 0;
#X connect 27 0 4 0;
#X connect 28 0 8 0;
#X connect 29 0 4 0;
