#N canvas 1160 317 895 678 12;
#N canvas 575 353 712 563 distortion 0;
#X obj 147 32 inlet~;
#X obj 206 414 outlet~;
#X obj 233 142 *~;
#X text 342 53 Distortion Amount;
#X obj 29 300 *~;
#X floatatom 69 273 5 0 0 0 - - -;
#X text 106 276 "dry" signal;
#X obj 299 284 *~;
#X floatatom 326 257 5 0 0 0 - - -;
#X text 334 285 wet;
#X obj 233 166 hv.tanh;
#X obj 109 209 * -1;
#X obj 106 241 + 1;
#X obj 254 65 loadbang;
#X obj 367 99 loadbang;
#X msg 253 93 4.354;
#X msg 367 125 0.677;
#X obj 260 119 f;
#X obj 366 155 f;
#X connect 0 0 2 0;
#X connect 0 0 4 0;
#X connect 2 0 10 0;
#X connect 4 0 1 0;
#X connect 5 0 4 1;
#X connect 7 0 1 0;
#X connect 8 0 7 1;
#X connect 10 0 7 0;
#X connect 11 0 12 0;
#X connect 12 0 5 0;
#X connect 13 0 15 0;
#X connect 14 0 16 0;
#X connect 15 0 17 0;
#X connect 16 0 18 0;
#X connect 17 0 2 1;
#X connect 18 0 8 0;
#X connect 18 0 11 0;
#X restore 309 247 pd distortion;
#X text 90 148 notes;
#X text 240 48 harmonicity;
#X text 374 31 modulation index;
#X text 476 99 mod decay;
#X text 589 161 decay (volume);
#X obj 283 290 outlet~;
#X obj 251 77 inlet;
#X obj 380 62 inlet;
#X obj 460 131 inlet;
#X obj 538 156 inlet;
#X obj 166 138 inlet;
#N canvas 493 16 717 604 FMdohickey 1;
#N canvas 761 271 570 438 FM_synth 1;
#X obj 50 279 osc~;
#X obj 48 236 +~;
#X obj 89 161 osc~;
#X obj 91 119 *~;
#X obj 89 200 *~;
#X obj 161 169 *~;
#X obj 54 42 inlet~;
#X obj 49 324 outlet~;
#X obj 126 75 inlet;
#X obj 196 125 inlet~;
#X connect 0 0 7 0;
#X connect 1 0 0 0;
#X connect 2 0 4 0;
#X connect 3 0 2 0;
#X connect 3 0 5 0;
#X connect 4 0 1 1;
#X connect 5 0 4 1;
#X connect 6 0 3 0;
#X connect 6 0 1 0;
#X connect 8 0 3 1;
#X connect 9 0 5 1;
#X restore 96 199 pd FM_synth;
#X obj 87 127 t f b;
#N canvas 780 79 802 661 env 0;
#X obj 46 9 inlet;
#X obj 45 278 outlet~;
#N canvas 251 52 707 458 envelope_adsr 0;
#X obj 209 53 moses;
#X obj 112 56 inlet;
#X obj 112 92 sel 0;
#X msg 111 130 stop;
#X obj 209 93 t b b;
#X obj 258 125 t b;
#X obj 174 209 f \$1;
#X obj 174 245 pack 0 \$2;
#X msg 125 245 0;
#X obj 337 145 inlet;
#X obj 377 145 inlet;
#X obj 421 145 inlet;
#X obj 461 145 inlet;
#X obj 314 239 del \$2;
#X obj 314 265 f \$4;
#X obj 390 268 * \$1;
#X obj 389 299 pack 0 \$3;
#X obj 472 301 pack 0 \$5;
#X obj 518 269 inlet;
#X obj 354 358 line~;
#X obj 354 386 outlet~;
#X obj 313 299 * 0.5;
#X connect 0 0 4 0;
#X connect 0 1 5 0;
#X connect 1 0 2 0;
#X connect 2 0 3 0;
#X connect 2 0 17 0;
#X connect 2 1 0 0;
#X connect 3 0 13 0;
#X connect 4 0 5 0;
#X connect 4 1 8 0;
#X connect 5 0 6 0;
#X connect 5 0 13 0;
#X connect 6 0 7 0;
#X connect 7 0 19 0;
#X connect 8 0 19 0;
#X connect 9 0 15 1;
#X connect 9 0 6 1;
#X connect 10 0 13 1;
#X connect 10 0 7 1;
#X connect 11 0 16 1;
#X connect 12 0 14 1;
#X connect 13 0 14 0;
#X connect 14 0 21 0;
#X connect 15 0 16 0;
#X connect 16 0 19 0;
#X connect 17 0 19 0;
#X connect 18 0 17 1;
#X connect 19 0 20 0;
#X connect 21 0 15 0;
#X restore 47 191 pd envelope_adsr;
#X msg 101 150 1;
#X obj 242 58 loadbang;
#X obj 45 157 tgl 15 0 empty empty empty 17 7 0 10 -262144 -1 -1 0
1;
#X obj 52 39 bng 15 250 50 0 empty empty empty 17 7 0 10 -262144 -1
-1;
#X msg 23 115 1;
#X msg 55 115 0;
#X msg 136 151 50;
#X msg 182 148 100;
#X msg 226 150 0.25;
#X obj 55 82 del 50;
#X msg 272 151 500;
#X obj 242 98 bng 15 250 50 0 empty empty empty 17 7 0 10 -262144 -1
-1;
#X obj 124 224 inlet;
#X obj 47 217 *~;
#X connect 0 0 6 0;
#X connect 2 0 16 0;
#X connect 3 0 2 1;
#X connect 4 0 14 0;
#X connect 5 0 2 0;
#X connect 6 0 7 0;
#X connect 6 0 12 0;
#X connect 7 0 5 0;
#X connect 8 0 5 0;
#X connect 9 0 2 2;
#X connect 10 0 2 3;
#X connect 11 0 2 4;
#X connect 12 0 8 0;
#X connect 13 0 2 5;
#X connect 14 0 13 0;
#X connect 14 0 11 0;
#X connect 14 0 10 0;
#X connect 14 0 9 0;
#X connect 14 0 3 0;
#X connect 15 0 16 1;
#X connect 16 0 1 0;
#X restore 267 216 pd env;
#X obj 187 153 *~;
#X obj 86 87 inlet;
#X obj 133 156 inlet;
#X obj 266 56 inlet;
#X obj 318 175 inlet;
#X obj 94 233 *~;
#X obj 214 127 inlet;
#X obj 93 269 outlet~;
#N canvas 355 319 802 661 env 0;
#X obj 46 9 inlet;
#X obj 49 264 outlet~;
#N canvas 251 52 707 458 envelope_adsr 0;
#X obj 209 53 moses;
#X obj 112 56 inlet;
#X obj 112 92 sel 0;
#X msg 111 130 stop;
#X obj 209 93 t b b;
#X obj 258 125 t b;
#X obj 174 209 f \$1;
#X obj 174 245 pack 0 \$2;
#X msg 125 245 0;
#X obj 337 145 inlet;
#X obj 377 145 inlet;
#X obj 421 145 inlet;
#X obj 461 145 inlet;
#X obj 314 239 del \$2;
#X obj 314 265 f \$4;
#X obj 390 268 * \$1;
#X obj 389 299 pack 0 \$3;
#X obj 472 301 pack 0 \$5;
#X obj 518 269 inlet;
#X obj 354 358 line~;
#X obj 354 386 outlet~;
#X obj 313 299 * 0.5;
#X connect 0 0 4 0;
#X connect 0 1 5 0;
#X connect 1 0 2 0;
#X connect 2 0 3 0;
#X connect 2 0 17 0;
#X connect 2 1 0 0;
#X connect 3 0 13 0;
#X connect 4 0 5 0;
#X connect 4 1 8 0;
#X connect 5 0 6 0;
#X connect 5 0 13 0;
#X connect 6 0 7 0;
#X connect 7 0 19 0;
#X connect 8 0 19 0;
#X connect 9 0 15 1;
#X connect 9 0 6 1;
#X connect 10 0 13 1;
#X connect 10 0 7 1;
#X connect 11 0 16 1;
#X connect 12 0 14 1;
#X connect 13 0 14 0;
#X connect 14 0 21 0;
#X connect 15 0 16 0;
#X connect 16 0 19 0;
#X connect 17 0 19 0;
#X connect 18 0 17 1;
#X connect 19 0 20 0;
#X connect 21 0 15 0;
#X restore 47 191 pd envelope_adsr;
#X msg 101 150 1;
#X obj 242 58 loadbang;
#X obj 45 157 tgl 15 0 empty empty empty 17 7 0 10 -262144 -1 -1 0
1;
#X obj 52 39 bng 15 250 50 0 empty empty empty 17 7 0 10 -262144 -1
-1;
#X msg 23 115 1;
#X msg 55 115 0;
#X msg 136 151 50;
#X msg 182 148 100;
#X msg 226 150 0.25;
#X obj 55 82 del 50;
#X msg 272 151 500;
#X obj 242 98 bng 15 250 50 0 empty empty empty 17 7 0 10 -262144 -1
-1;
#X obj 87 230 inlet;
#X obj 51 228 *~;
#X connect 0 0 6 0;
#X connect 2 0 16 0;
#X connect 3 0 2 1;
#X connect 4 0 14 0;
#X connect 5 0 2 0;
#X connect 6 0 7 0;
#X connect 6 0 12 0;
#X connect 7 0 5 0;
#X connect 8 0 5 0;
#X connect 9 0 2 2;
#X connect 10 0 2 3;
#X connect 11 0 2 4;
#X connect 12 0 8 0;
#X connect 13 0 2 5;
#X connect 14 0 13 0;
#X connect 14 0 11 0;
#X connect 14 0 10 0;
#X connect 14 0 9 0;
#X connect 14 0 3 0;
#X connect 15 0 16 1;
#X connect 16 0 1 0;
#X restore 189 97 pd env;
#X connect 0 0 8 0;
#X connect 1 0 0 0;
#X connect 1 1 2 0;
#X connect 1 1 11 0;
#X connect 2 0 8 1;
#X connect 3 0 0 2;
#X connect 4 0 1 0;
#X connect 5 0 0 1;
#X connect 6 0 11 1;
#X connect 7 0 2 1;
#X connect 8 0 10 0;
#X connect 9 0 3 1;
#X connect 11 0 3 0;
#X restore 282 208 pd FMdohickey;
#X text 413 318 This patch (creating a synth via FM) is inspired by
this Youtube video. https://www.youtube.com/watch?v=mvtN7de6Oko;
#X connect 0 0 6 0;
#X connect 7 0 12 1;
#X connect 8 0 12 2;
#X connect 9 0 12 3;
#X connect 10 0 12 4;
#X connect 11 0 12 0;
#X connect 12 0 6 0;
#X connect 12 0 0 0;
