#N canvas 149 177 895 823 12;
#N canvas 575 353 712 563 distortion 0;
#X obj 147 32 inlet~;
#X obj 206 414 outlet~;
#X obj 233 142 *~;
#X text 342 53 Distortion Amount;
#X obj 29 300 *~;
#X floatatom 69 273 5 0 0 0 - - -;
#X text 106 276 "dry" signal;
#X obj 299 284 *~;
#X floatatom 326 257 5 0 0 0 - - -;
#X text 334 285 wet;
#X obj 233 166 hv.tanh;
#X obj 116 209 * -1;
#X obj 106 241 + 1;
#X obj 232 35 loadbang;
#X obj 406 127 loadbang;
#X msg 281 74 4.354;
#X msg 406 153 0.677;
#X connect 0 0 2 0;
#X connect 0 0 4 0;
#X connect 2 0 10 0;
#X connect 4 0 1 0;
#X connect 5 0 4 1;
#X connect 7 0 1 0;
#X connect 8 0 7 1;
#X connect 10 0 7 0;
#X connect 11 0 12 0;
#X connect 12 0 5 0;
#X connect 13 0 15 0;
#X connect 14 0 16 0;
#X connect 15 0 2 1;
#X connect 16 0 11 0;
#X connect 16 0 8 0;
#X restore 350 250 pd distortion;
#X text 90 148 notes;
#X text 240 48 harmonicity;
#X text 391 50 modulation index;
#X text 515 98 mod decay;
#X text 589 161 decay (volume);
#X obj 283 290 outlet~;
#X obj 251 77 inlet;
#X obj 377 78 inlet;
#X obj 480 118 inlet;
#X obj 538 156 inlet;
#X obj 166 138 inlet;
#N canvas 782 59 450 300 FMdohickey 1;
#N canvas 1260 25 570 438 FM_synth 0;
#X obj 125 346 osc~;
#X obj 132 294 +~;
#X obj 241 201 osc~;
#X obj 244 135 *~;
#X obj 194 254 *~;
#X obj 317 203 *~;
#X obj 364 63 inlet~;
#X obj 124 391 outlet~;
#X obj 122 26 inlet;
#X obj 242 33 inlet;
#X connect 0 0 7 0;
#X connect 1 0 0 0;
#X connect 2 0 4 0;
#X connect 3 0 2 0;
#X connect 3 0 5 0;
#X connect 4 0 1 1;
#X connect 5 0 4 1;
#X connect 6 0 5 1;
#X connect 8 0 3 0;
#X connect 8 0 1 0;
#X connect 9 0 3 1;
#X restore 87 185 pd FM_synth;
#N canvas 1436 71 450 300 env 0;
#X obj 46 9 inlet;
#X obj 247 33 inlet;
#X obj 46 42 bng 15 250 50 0 empty empty empty 17 7 0 10 -262144 -1
-1;
#X obj 56 94 pack 1 3;
#X obj 170 70 del 10;
#X obj 170 103 pack 0 500;
#X floatatom 247 64 5 0 0 0 - - -;
#X obj 80 141 line~;
#X obj 80 175 *~;
#X obj 80 201 *~;
#X obj 80 227 outlet~;
#X connect 0 0 2 0;
#X connect 1 0 6 0;
#X connect 2 0 3 0;
#X connect 2 0 4 0;
#X connect 3 0 7 0;
#X connect 4 0 5 0;
#X connect 5 0 7 0;
#X connect 6 0 5 1;
#X connect 7 0 8 0;
#X connect 7 0 8 1;
#X connect 8 0 9 0;
#X connect 8 0 9 1;
#X connect 9 0 10 0;
#X restore 188 85 pd env;
#X obj 87 127 t f b;
#N canvas 989 195 450 300 env 0;
#X obj 46 9 inlet;
#X obj 247 33 inlet;
#X obj 46 42 bng 15 250 50 0 empty empty empty 17 7 0 10 -262144 -1
-1;
#X obj 56 94 pack 1 3;
#X obj 170 70 del 10;
#X floatatom 249 68 5 0 0 0 - - -;
#X obj 80 141 line~;
#X obj 80 175 *~;
#X obj 80 201 *~;
#X obj 80 227 outlet~;
#X obj 170 103 pack 0 500;
#X connect 0 0 2 0;
#X connect 1 0 5 0;
#X connect 2 0 4 0;
#X connect 2 0 3 0;
#X connect 3 0 6 0;
#X connect 4 0 10 0;
#X connect 5 0 10 1;
#X connect 6 0 7 0;
#X connect 6 0 7 1;
#X connect 7 0 8 0;
#X connect 7 0 8 1;
#X connect 8 0 9 0;
#X connect 10 0 6 0;
#X restore 242 185 pd env;
#X obj 187 133 *~;
#X obj 75 59 inlet;
#X obj 146 47 inlet;
#X obj 263 36 inlet;
#X obj 298 85 inlet;
#X obj 86 227 *~;
#X obj 223 111 inlet;
#X obj 86 253 outlet~;
#X connect 0 0 9 0;
#X connect 1 0 4 0;
#X connect 2 0 0 0;
#X connect 2 1 1 0;
#X connect 2 1 3 0;
#X connect 3 0 9 1;
#X connect 4 0 0 2;
#X connect 5 0 2 0;
#X connect 6 0 0 1;
#X connect 7 0 1 1;
#X connect 8 0 3 1;
#X connect 9 0 11 0;
#X connect 10 0 4 1;
#X restore 282 208 pd FMdohickey;
#X text 142 360 This patch (creating a synth via FM) is inspired by
this Youtube video. https://www.youtube.com/watch?v=mvtN7de6Oko;
#N canvas 0 50 450 300 prac 0;
#N canvas 188 93 340 342 operator 0;
#X obj 162 150 osc~;
#X floatatom 98 153 5 0 0 0 - - -;
#X obj 132 214 +~;
#X obj 162 183 *~ 100;
#X obj 162 119 +~;
#X obj 72 57 inlet;
#X obj 166 54 inlet~;
#X obj 132 258 outlet~;
#X connect 0 0 3 0;
#X connect 1 0 2 0;
#X connect 2 0 7 0;
#X connect 3 0 2 1;
#X connect 4 0 0 0;
#X connect 5 0 1 0;
#X connect 6 0 4 0;
#X restore 10 388 pd operator;
#X obj 20 513 *~;
#X obj 222 214 dac~;
#X floatatom 39 488 5 0 0 0 - - -;
#X obj 17 460 osc~;
#X floatatom 7 312 5 0 0 0 - - -;
#N canvas 29 38 340 342 operator 0;
#X obj 183 163 osc~;
#X floatatom 119 166 5 0 0 0 - - -;
#X obj 153 227 +~;
#X obj 183 196 *~ 100;
#X obj 183 132 +~;
#X obj 93 70 inlet;
#X obj 187 67 inlet~;
#X obj 153 271 outlet~;
#X text 10 69 Carrier Freq;
#X text 233 69 Modulator Freq;
#X connect 0 0 3 0;
#X connect 1 0 2 0;
#X connect 2 0 7 0;
#X connect 3 0 2 1;
#X connect 4 0 0 0;
#X connect 5 0 1 0;
#X connect 6 0 4 0;
#X restore 83 327 pd operator;
#X floatatom 81 296 5 0 0 0 - - -;
#N canvas 932 22 450 300 FMdohickey 0;
#N canvas 1436 71 450 300 env 0;
#X obj 46 9 inlet;
#X obj 247 33 inlet;
#X obj 46 42 bng 15 250 50 0 empty empty empty 17 7 0 10 -262144 -1
-1;
#X obj 56 94 pack 1 3;
#X obj 170 70 del 10;
#X obj 170 103 pack 0 500;
#X floatatom 247 64 5 0 0 0 - - -;
#X obj 80 141 line~;
#X obj 80 175 *~;
#X obj 80 201 *~;
#X obj 80 227 outlet~;
#X connect 0 0 2 0;
#X connect 1 0 6 0;
#X connect 2 0 3 0;
#X connect 2 0 4 0;
#X connect 3 0 7 0;
#X connect 4 0 5 0;
#X connect 5 0 7 0;
#X connect 6 0 5 1;
#X connect 7 0 8 0;
#X connect 7 0 8 1;
#X connect 8 0 9 0;
#X connect 8 0 9 1;
#X connect 9 0 10 0;
#X restore 188 85 pd env;
#X obj 91 141 t f b;
#N canvas 989 195 450 300 env 0;
#X obj 46 9 inlet;
#X obj 247 33 inlet;
#X obj 46 42 bng 15 250 50 0 empty empty empty 17 7 0 10 -262144 -1
-1;
#X obj 56 94 pack 1 3;
#X obj 170 70 del 10;
#X floatatom 249 68 5 0 0 0 - - -;
#X obj 80 141 line~;
#X obj 80 175 *~;
#X obj 80 201 *~;
#X obj 80 227 outlet~;
#X obj 170 103 pack 0 500;
#X connect 0 0 2 0;
#X connect 1 0 5 0;
#X connect 2 0 4 0;
#X connect 2 0 3 0;
#X connect 3 0 6 0;
#X connect 4 0 10 0;
#X connect 5 0 10 1;
#X connect 6 0 7 0;
#X connect 6 0 7 1;
#X connect 7 0 8 0;
#X connect 7 0 8 1;
#X connect 8 0 9 0;
#X connect 10 0 6 0;
#X restore 242 185 pd env;
#X obj 193 124 *~;
#X obj 75 59 inlet;
#X obj 146 47 inlet;
#X obj 233 45 inlet;
#X obj 298 85 inlet;
#X obj 111 236 *~;
#X obj 237 91 inlet;
#X obj 111 262 outlet~;
#N canvas 1260 25 570 438 FM_synth 0;
#X obj 150 321 osc~;
#X obj 148 284 +~;
#X obj 196 222 osc~;
#X obj 194 254 *~;
#X obj 317 203 *~;
#X obj 356 156 inlet~;
#X obj 150 359 outlet~;
#X obj 141 132 inlet;
#X obj 194 180 *;
#X obj 213 135 inlet;
#X connect 0 0 6 0;
#X connect 1 0 0 0;
#X connect 2 0 3 0;
#X connect 3 0 1 1;
#X connect 4 0 3 1;
#X connect 5 0 4 1;
#X connect 7 0 1 0;
#X connect 7 0 8 0;
#X connect 8 0 2 0;
#X connect 8 0 4 0;
#X connect 9 0 8 1;
#X restore 103 185 pd FM_synth;
#X connect 0 0 3 0;
#X connect 1 0 11 0;
#X connect 1 1 0 0;
#X connect 1 1 2 0;
#X connect 2 0 8 1;
#X connect 3 0 11 2;
#X connect 4 0 1 0;
#X connect 5 0 11 1;
#X connect 6 0 0 1;
#X connect 7 0 2 1;
#X connect 8 0 10 0;
#X connect 9 0 3 1;
#X connect 11 0 8 0;
#X restore 228 179 pd FMdohickey;
#X floatatom 241 156 5 0 0 0 - - -;
#X floatatom 307 152 5 0 0 0 - - -;
#X floatatom 174 21 5 0 0 0 - - -;
#X floatatom 248 97 5 0 0 0 - - -;
#X floatatom 313 96 5 0 0 0 - - -;
#X obj 81 90 f;
#X obj 81 113 mod 80;
#X obj 119 41 tgl 15 0 empty empty empty 17 7 0 10 -262144 -1 -1 0
1;
#X obj 123 62 metro;
#X obj 83 179 + 100;
#X msg 132 166 1;
#X msg 163 165 -1;
#X obj 154 88 f;
#X obj 111 90 +;
#X obj 132 143 sel 1 78;
#X obj 23 549 dac~;
#N canvas 29 38 340 342 operator 0;
#X obj 183 163 osc~;
#X floatatom 119 166 5 0 0 0 - - -;
#X obj 153 227 +~;
#X obj 183 196 *~ 100;
#X obj 183 132 +~;
#X obj 93 70 inlet;
#X obj 187 67 inlet~;
#X obj 153 271 outlet~;
#X text 10 69 Carrier Freq;
#X text 233 69 Modulator Freq;
#X connect 0 0 3 0;
#X connect 1 0 2 0;
#X connect 2 0 7 0;
#X connect 3 0 2 1;
#X connect 4 0 0 0;
#X connect 5 0 1 0;
#X connect 6 0 4 0;
#X restore 125 409 pd operator;
#X floatatom 123 378 5 0 0 0 - - -;
#X obj 16 427 +~;
#X floatatom 195 272 5 0 0 0 - - -;
#X obj 210 303 * 0.714286;
#X connect 0 0 27 0;
#X connect 1 0 24 0;
#X connect 1 0 24 1;
#X connect 3 0 1 1;
#X connect 4 0 1 0;
#X connect 5 0 0 0;
#X connect 6 0 0 1;
#X connect 7 0 6 0;
#X connect 9 0 8 1;
#X connect 10 0 8 4;
#X connect 11 0 17 1;
#X connect 12 0 8 2;
#X connect 13 0 8 3;
#X connect 14 0 15 0;
#X connect 14 0 22 0;
#X connect 15 0 18 0;
#X connect 15 0 23 0;
#X connect 16 0 17 0;
#X connect 17 0 14 0;
#X connect 17 0 21 0;
#X connect 18 0 8 0;
#X connect 19 0 21 1;
#X connect 20 0 21 1;
#X connect 21 0 22 1;
#X connect 22 0 14 1;
#X connect 23 0 19 0;
#X connect 23 1 20 0;
#X connect 25 0 27 1;
#X connect 26 0 25 0;
#X connect 27 0 4 0;
#X connect 28 0 29 0;
#X connect 28 0 6 1;
#X connect 29 0 25 1;
#X restore 194 469 pd prac;
#X obj 392 289 outlet~;
#X connect 0 0 15 0;
#X connect 7 0 12 1;
#X connect 8 0 12 2;
#X connect 9 0 12 3;
#X connect 10 0 12 4;
#X connect 11 0 12 0;
#X connect 12 0 0 0;
#X connect 12 0 6 0;
